<svg width="297" height="314" viewBox="0 0 297 314" fill="none" xmlns="http://www.w3.org/2000/svg">
<path d="M249.651 20.543H181.384V91.6608H249.651V20.543Z" fill="#E0E0E0"/>
<path d="M245.028 20.543H176.761V91.6608H245.028V20.543Z" fill="#FAFAFA"/>
<path d="M245.046 91.6799H176.736V20.5195H245.046V91.6799ZM176.773 91.6374H245.003V20.562H176.773V91.6374Z" fill="#E0E0E0"/>
<path d="M235.849 30.1055H185.934V82.1007H235.849V30.1055Z" fill="white"/>
<path d="M185.933 82.4473C185.586 82.9706 185.178 83.4514 184.718 83.8799C183.923 84.7177 182.805 85.8529 181.547 87.0913C180.29 88.3297 179.118 89.4285 178.285 90.2117C177.855 90.6716 177.372 91.0791 176.846 91.4258C177.191 90.9026 177.599 90.4235 178.061 89.9992C178.856 89.1554 179.98 88.0201 181.238 86.7757C182.495 85.5312 183.668 84.4324 184.506 83.6553C184.931 83.1969 185.411 82.7913 185.933 82.4473Z" fill="#E0E0E0"/>
<path d="M235.849 82.3242C236.374 82.6698 236.855 83.0775 237.282 83.5384C238.121 84.3336 239.263 85.4506 240.496 86.7072C241.729 87.9639 242.834 89.1355 243.618 89.9672C244.078 90.3973 244.486 90.8802 244.833 91.4059C244.309 91.0609 243.83 90.6531 243.406 90.1918C242.567 89.3965 241.425 88.2735 240.18 87.0168C238.935 85.7602 237.835 84.5886 237.057 83.7508C236.599 83.3255 236.193 82.8465 235.849 82.3242Z" fill="#E0E0E0"/>
<path d="M235.697 30.2441C236.046 29.7217 236.454 29.241 236.912 28.8115C237.708 27.9676 238.832 26.8324 240.083 25.594C241.335 24.3556 242.513 23.2568 243.345 22.4798C243.777 22.0187 244.262 21.6111 244.791 21.2656C244.442 21.7843 244.034 22.2609 243.576 22.6862C242.78 23.53 241.657 24.6713 240.399 25.9097C239.142 27.1481 237.969 28.253 237.131 29.0361C236.704 29.4951 236.222 29.9007 235.697 30.2441Z" fill="#E0E0E0"/>
<path d="M185.8 30.3729C185.277 30.0244 184.796 29.617 184.366 29.1588C183.528 28.3636 182.386 27.2405 181.153 25.9899C179.92 24.7394 178.808 23.5617 178.03 22.73C177.569 22.2987 177.161 21.8136 176.815 21.2852C177.336 21.6345 177.815 22.0418 178.243 22.4993C179.081 23.2945 180.223 24.4176 181.463 25.6742C182.702 26.9309 183.807 28.1025 184.591 28.9403C185.05 29.3673 185.456 29.8484 185.8 30.3729Z" fill="#E0E0E0"/>
<path d="M235.697 82.1006C235.697 82.1006 235.697 82.0096 235.697 81.8457C235.697 81.6818 235.697 81.4329 235.697 81.1233C235.697 80.4676 235.697 79.5327 235.697 78.3125C235.697 75.8843 235.666 72.2419 235.648 67.7192C235.648 58.6132 235.587 45.6402 235.551 30.0811L235.739 30.2693L185.97 30.2996L186.194 30.0811C186.194 49.1612 186.194 67.0211 186.164 82.0763L185.97 81.8882L222.011 81.9853L232.137 82.0339H234.816H235.508H235.745H235.527H234.858H232.216L222.132 82.0824L185.97 82.1795H185.781V81.9914C185.781 66.9361 185.781 49.0762 185.781 29.9961V29.7715H186.006H235.776H235.97V30.1175C235.928 45.7009 235.897 58.7164 235.873 67.8528C235.873 72.3815 235.836 75.951 235.824 78.4036C235.824 79.6177 235.824 80.5344 235.824 81.1779C235.824 81.4753 235.824 81.706 235.824 81.8821C235.792 81.9604 235.749 82.034 235.697 82.1006Z" fill="#E0E0E0"/>
<path d="M219.222 47.7773H202.565V64.4231H219.222V47.7773Z" fill="#EBEBEB"/>
<path d="M261.277 208.594C264.995 206.676 269.381 206.427 273.512 207.107C275.729 207.471 278.043 208.139 279.556 209.802C281.068 211.466 281.348 214.404 279.617 215.836C278.584 216.686 277.144 216.814 275.808 216.802C272.57 216.759 268.98 216.195 266.398 218.137C264.922 219.248 263.968 221.094 262.182 221.64C260.396 222.186 258.538 221.154 257.596 219.6C256.753 217.982 256.568 216.101 257.08 214.349C257.288 213.132 257.776 211.979 258.504 210.98C259.232 209.982 260.181 209.166 261.277 208.594Z" fill="#D7F1DE"/>
<path d="M252.748 192.125C255.026 195.373 259.43 194.299 261.496 192.32C263.561 190.341 264.418 187.463 265.201 184.719C267.024 178.46 268.846 171.892 267.485 165.518C267.167 163.588 266.327 161.783 265.055 160.297C263.713 158.882 261.654 158.039 259.771 158.536C257.541 159.144 256.126 161.311 255.154 163.393C252.201 169.523 250.653 176.234 250.622 183.038C250.622 186.2 250.987 189.521 252.772 192.144" fill="#D7F1DE"/>
<path d="M246.024 206.197C248.496 203.265 248.964 198.991 247.846 195.318C246.729 191.645 244.262 188.525 241.401 185.975C238.032 182.981 234.112 180.669 229.859 179.17C228.212 178.504 226.44 178.204 224.666 178.29C223.78 178.343 222.921 178.611 222.162 179.07C221.403 179.529 220.768 180.165 220.31 180.925C219.095 183.238 220.261 186.048 221.525 188.337C223.75 192.372 226.285 196.228 229.106 199.871C231.384 202.797 233.966 205.687 237.447 207.01C240.927 208.334 244.505 208.176 246.346 205.796" fill="#D7F1DE"/>
<path d="M252.597 241.122C252.716 240.638 252.785 240.144 252.803 239.647C252.906 238.572 253.034 237.218 253.192 235.622C253.394 233.637 253.696 231.663 254.097 229.709C254.63 227.333 255.349 225.003 256.247 222.74C257.13 220.477 258.331 218.351 259.813 216.426C261.017 214.861 262.555 213.584 264.315 212.687C265.509 212.094 266.791 211.696 268.111 211.509C268.608 211.49 269.101 211.417 269.581 211.29C269.083 211.239 268.58 211.239 268.081 211.29C266.712 211.392 265.372 211.74 264.126 212.316C262.274 213.194 260.649 214.486 259.376 216.092C257.834 218.043 256.589 220.212 255.683 222.527C254.768 224.825 254.055 227.197 253.55 229.618C253.169 231.594 252.905 233.59 252.761 235.597C252.633 237.309 252.584 238.693 252.566 239.653C252.522 240.142 252.532 240.635 252.597 241.122Z" fill="#E0E0E0"/>
<path d="M252.87 238.026C252.914 237.8 252.929 237.57 252.913 237.34C252.913 236.824 252.913 236.174 252.913 235.379C252.913 233.679 252.913 231.221 252.998 228.185C253.149 222.115 253.672 215.571 254.686 206.331C255.64 197.668 256.928 187.579 258.283 181.022C258.574 179.535 258.89 178.187 259.139 177.016C259.388 175.844 259.631 174.824 259.844 173.98L260.305 172.08C260.374 171.86 260.413 171.631 260.421 171.4C260.321 171.606 260.241 171.822 260.184 172.044C260.038 172.538 259.85 173.163 259.619 173.92C259.364 174.733 259.109 175.741 258.811 176.919C258.513 178.096 258.204 179.426 257.863 180.913C256.183 188.669 254.919 196.509 254.079 204.401C253.064 213.634 252.609 222.042 252.572 228.137C252.536 231.172 252.572 233.643 252.676 235.343C252.724 236.138 252.767 236.788 252.797 237.304C252.793 237.546 252.817 237.789 252.87 238.026Z" fill="#E0E0E0"/>
<path d="M252.426 231.214C252.481 230.533 252.481 229.849 252.426 229.168C252.348 227.851 252.171 225.951 251.819 223.626C251.364 220.902 250.755 218.207 249.997 215.552C249.121 212.285 247.996 209.091 246.631 205.997C243.831 199.319 240.022 193.916 236.711 190.553C235.979 189.784 235.2 189.06 234.379 188.386C234.02 188.082 233.698 187.779 233.376 187.542L232.471 186.935C231.927 186.526 231.352 186.158 230.752 185.836C230.649 185.969 233.182 187.463 236.395 190.869C240.456 195.408 243.712 200.606 246.024 206.239C247.365 209.316 248.501 212.477 249.426 215.704C250.312 218.672 250.896 221.398 251.345 223.699C251.795 225.999 252.007 227.887 252.159 229.162C252.195 229.852 252.284 230.538 252.426 231.214Z" fill="#E0E0E0"/>
<path d="M237.228 250.416L238.849 272.683H267.473L269.101 250.416H237.228Z" fill="#FFBDA6"/>
<path d="M272.516 241.637H234.464V250.415H272.516V241.637Z" fill="#FFBDA6"/>
<path d="M234.464 271.826V274.261H236.25H271.89V271.826H234.464Z" fill="#EFF0F5"/>
<path d="M238.006 278.542L236.25 274.262H270.523L268.482 278.542H238.006Z" fill="#FFBDA6"/>
<path d="M268.567 257.694C268.567 257.694 268.531 257.767 268.439 257.895L268.008 258.465L266.344 260.596L266.265 260.693L266.198 260.59L262.098 254.932H262.334L258.301 260.639L258.173 260.803L258.034 260.633L253.253 254.95H253.526L253.265 255.278L249.013 260.639L248.867 260.815L248.739 260.633L244.7 254.926H244.937L239.949 260.602L239.858 260.699L239.791 260.59L238.236 257.974C238.072 257.694 237.945 257.464 237.835 257.282C237.786 257.203 237.745 257.12 237.714 257.033C237.714 257.033 237.781 257.105 237.884 257.251L238.327 257.925L239.955 260.487H239.804C241.073 258.993 242.738 257.051 244.694 254.762L244.815 254.617L244.924 254.768L249.001 260.45H248.721L252.973 255.084C253.065 254.969 253.156 254.859 253.235 254.75L253.374 254.58L253.514 254.75L258.283 260.45H258.015C259.485 258.399 260.858 256.492 262.085 254.774L262.207 254.604L262.322 254.774C263.938 257.075 265.305 259.024 266.332 260.499H266.186L267.923 258.423L268.385 257.883C268.5 257.767 268.561 257.688 268.567 257.694Z" fill="#F5F5F5"/>
<path d="M269.503 250.27C269.503 250.367 262.328 250.446 253.484 250.446C244.639 250.446 237.465 250.367 237.465 250.27C237.465 250.173 244.633 250.088 253.484 250.088C262.335 250.088 269.503 250.167 269.503 250.27Z" fill="#F5F5F5"/>
<path d="M270.93 274.498C270.93 274.602 263.13 274.68 253.52 274.68C243.91 274.68 236.11 274.602 236.11 274.498C236.11 274.395 243.904 274.322 253.52 274.322C263.137 274.322 270.93 274.401 270.93 274.498Z" fill="#F5F5F5"/>
<path d="M24.8457 251.908V278.346H63.5352H106.21V251.908H24.8457Z" fill="#F5F5F5"/>
<path d="M21.4316 244.521V251.909H109.053V244.521H63.5351H21.4316Z" fill="#E0E0E0"/>
<path d="M65.2421 278.347H106.21V251.909H109.053V244.521H63.5352V251.23L65.2421 278.347Z" fill="#E0E0E0"/>
<path d="M52.7224 256.176H36.2236V260.158H52.7224V256.176Z" fill="#E0E0E0"/>
<path d="M55.2919 265.131H34.1035V273.533H55.2919V265.131Z" fill="white"/>
<path d="M37.3652 218.113V244.551H76.0487H118.723V218.113H37.3652Z" fill="#F5F5F5"/>
<path d="M33.9512 210.719V218.113H121.572V210.719H76.0486H33.9512Z" fill="#E0E0E0"/>
<path d="M77.7558 244.551H118.723V218.113H121.572V210.719H76.0488V217.427L77.7558 244.551Z" fill="#E0E0E0"/>
<path d="M65.2419 222.375H48.7432V226.357H65.2419V222.375Z" fill="#E0E0E0"/>
<path d="M67.8056 231.336H46.6172V239.738H67.8056V231.336Z" fill="white"/>
<path d="M289.682 278.542C289.682 278.633 227.976 278.7 151.873 278.7C75.7693 278.7 14.0508 278.633 14.0508 278.542C14.0508 278.451 75.745 278.408 151.867 278.408C227.988 278.408 289.682 278.457 289.682 278.542Z" fill="#263238"/>
<path d="M121.28 231.918L50.2068 231.881C46.1365 231.915 42.2194 230.332 39.3168 227.481C36.4142 224.629 34.7638 220.742 34.7285 216.674V41.736C34.7718 37.6705 36.4282 33.7885 39.3339 30.9428C42.2396 28.0971 46.1568 26.5205 50.225 26.5593L121.299 26.6018C129.852 26.6018 136.777 33.4131 136.188 41.7785L136.151 216.717C136.771 225.119 129.833 231.924 121.28 231.918Z" fill="#263238"/>
<path d="M121.365 31.585H107.581C106.674 31.6057 105.811 31.9856 105.184 32.6413C104.556 33.2969 104.215 34.1747 104.234 35.0817V37.5768C104.246 38.4787 103.901 39.3486 103.274 39.9977C102.647 40.6467 101.789 41.0224 100.887 41.0431H74.019C73.5698 41.0329 73.127 40.9343 72.716 40.753C72.305 40.5717 71.9338 40.3113 71.6235 39.9866C71.3132 39.6618 71.07 39.2792 70.9078 38.8605C70.7455 38.4418 70.6674 37.9953 70.6779 37.5464V35.0514C70.6974 34.1443 70.3559 33.2665 69.7283 32.6109C69.1007 31.9553 68.2384 31.5754 67.3307 31.5547H50.4189C47.5425 31.5531 44.7832 32.693 42.7476 34.7239C40.712 36.7547 39.5667 39.5103 39.5635 42.3848V216.23C39.5627 217.653 39.8424 219.063 40.3866 220.378C40.9307 221.693 41.7288 222.888 42.7351 223.895C43.7414 224.901 44.9363 225.7 46.2516 226.245C47.5669 226.791 48.9767 227.072 50.4007 227.073L121.353 227.115C124.229 227.115 126.988 225.974 129.022 223.942C131.057 221.91 132.2 219.154 132.202 216.279L132.238 42.4273C132.238 41.0014 131.957 39.5895 131.41 38.2725C130.864 36.9555 130.062 35.7592 129.052 34.7521C128.042 33.7449 126.843 32.9468 125.524 32.4034C124.205 31.8599 122.792 31.5818 121.365 31.585Z" fill="#3BAD6B"/>
<path d="M125.423 51.6017C125.423 51.6503 123.51 51.7049 121.171 51.7231C118.832 51.7413 116.919 51.7231 116.919 51.6685C116.919 51.6138 118.832 51.5653 121.171 51.5471C123.51 51.5289 125.423 51.5531 125.423 51.6017Z" fill="white"/>
<path d="M125.441 53.7929C125.441 53.8414 123.528 53.8961 121.189 53.9143C118.85 53.9325 116.937 53.9143 116.937 53.8596C116.937 53.805 118.85 53.7564 121.189 53.7382C123.528 53.72 125.441 53.7322 125.441 53.7929Z" fill="white"/>
<path d="M125.46 55.9716C125.46 56.0202 123.546 56.0748 121.207 56.093C118.869 56.1112 116.955 56.093 116.955 56.0384C116.955 55.9838 118.869 55.9352 121.207 55.917C123.546 55.8988 125.46 55.917 125.46 55.9716Z" fill="white"/>
<path d="M47.7227 58.534H47.9049H48.3969L50.2193 58.4854L50.1707 58.54C50.1707 58.1333 50.1707 57.6901 50.1707 57.2166C50.1707 56.9738 50.1707 56.737 50.1707 56.4578C50.1992 56.3116 50.2734 56.1781 50.3825 56.0767C50.4917 55.9753 50.6302 55.911 50.7782 55.8932C51.0698 55.8932 51.331 55.8932 51.6469 55.8932C51.8154 55.9192 51.9691 56.0044 52.0805 56.1334C52.1918 56.2625 52.2535 56.427 52.2544 56.5974C52.2544 57.2166 52.2544 57.8601 52.2544 58.5279L52.1693 58.4429H54.4716L54.3866 58.534C54.3866 57.6051 54.3866 56.652 54.3866 55.6686C54.3866 55.4258 54.3866 55.1829 54.3866 54.9401C54.3744 54.8308 54.3388 54.7255 54.2822 54.6312C54.2256 54.5369 54.1493 54.4559 54.0585 54.3938L53.0562 53.4042L52.0843 52.4451L51.6104 51.9837C51.4891 51.8224 51.3249 51.6984 51.1366 51.6255C51.0465 51.601 50.952 51.5975 50.8603 51.6154C50.7686 51.6333 50.6823 51.6721 50.6081 51.7287C50.4684 51.8441 50.3226 52.0141 50.1829 52.1476L49.3264 52.9247C48.8039 53.4649 48.2633 53.9567 47.8685 54.4241C47.7541 54.694 47.7142 54.9896 47.753 55.2801V56.0935C47.753 56.5913 47.753 57.0284 47.753 57.3987C47.753 57.7691 47.753 58.0058 47.753 58.2365C47.7615 58.3355 47.7615 58.435 47.753 58.534C47.753 58.534 47.753 58.4429 47.753 58.2608C47.753 58.0787 47.753 57.763 47.753 57.4352C47.753 57.1073 47.753 56.6217 47.753 56.1178C47.753 55.8629 47.753 55.5836 47.753 55.2922C47.753 55.1465 47.753 54.9948 47.753 54.843C47.7527 54.6747 47.7967 54.5093 47.8806 54.3634C48.3058 53.8413 48.8161 53.38 49.3385 52.8215L50.0371 51.9716C50.1773 51.8184 50.3254 51.6725 50.4806 51.5345C50.5743 51.4626 50.6832 51.4131 50.7991 51.39C50.915 51.3668 51.0346 51.3706 51.1488 51.4009C51.3661 51.4787 51.5574 51.6153 51.7016 51.7955L52.1754 52.2569L53.1473 53.21L54.1557 54.1995C54.2497 54.2841 54.3351 54.3776 54.4109 54.4787C54.4898 54.593 54.5321 54.7285 54.5323 54.8673C54.5323 55.1101 54.5323 55.3529 54.5323 55.6018C54.5323 56.5792 54.5323 57.5384 54.5323 58.4672V58.5522H54.4412H52.145H52.06V58.4672C52.06 57.7994 52.06 57.1559 52.06 56.5428C52.0644 56.4085 52.0191 56.2773 51.9328 56.1743C51.8465 56.0713 51.7253 56.0036 51.5922 55.9843C51.331 55.9843 51.0151 55.9843 50.76 55.9843C50.6401 55.997 50.5274 56.0474 50.4379 56.1281C50.3485 56.2088 50.2868 56.3157 50.2619 56.4335C50.2619 56.6642 50.2619 56.9313 50.2619 57.1681V58.54H50.2072H48.3848H47.8988L47.7227 58.534Z" fill="white"/>
<path d="M90.1723 202.456C97.4693 202.456 103.385 196.545 103.385 189.253C103.385 181.96 97.4693 176.049 90.1723 176.049C82.8753 176.049 76.96 181.96 76.96 189.253C76.96 196.545 82.8753 202.456 90.1723 202.456Z" fill="white"/>
<path d="M82.0685 192.289L85.367 191.512C85.5646 191.467 85.7408 191.355 85.8667 191.196C85.9925 191.037 86.0606 190.84 86.0595 190.638V189.958C86.0595 189.958 85.9198 188.804 87.0132 188.744C87.7908 188.689 92.7538 188.744 92.7538 188.744C92.7538 188.744 94.0598 188.744 94.0416 189.745V190.735C94.0419 190.901 94.0951 191.062 94.1935 191.195C94.2918 191.328 94.4302 191.426 94.5883 191.476L98.1663 192.556C98.3495 192.611 98.5466 192.597 98.7195 192.515C98.8924 192.433 99.0286 192.29 99.1018 192.113L99.5574 191.008C99.6441 190.807 99.6836 190.589 99.6728 190.371C99.6379 189.772 99.4265 189.198 99.0654 188.72C98.3546 187.809 95.0075 185.684 88.6291 185.97C82.5544 186.261 81.2302 188.823 80.8839 189.436C80.6525 189.975 80.6118 190.577 80.7685 191.142L81.0358 191.749C81.1156 191.947 81.2634 192.11 81.4526 192.209C81.6419 192.308 81.8602 192.336 82.0685 192.289Z" fill="#3BAD6B"/>
<g opacity="0.2">
<path d="M90.1721 156.09C95.228 156.09 99.3266 151.994 99.3266 146.941C99.3266 141.889 95.228 137.793 90.1721 137.793C85.1162 137.793 81.0176 141.889 81.0176 146.941C81.0176 151.994 85.1162 156.09 90.1721 156.09Z" fill="white"/>
</g>
<path d="M87.6695 148.015C88.2566 148.015 88.7326 147.54 88.7326 146.953C88.7326 146.366 88.2566 145.891 87.6695 145.891C87.0824 145.891 86.6064 146.366 86.6064 146.953C86.6064 147.54 87.0824 148.015 87.6695 148.015Z" fill="white"/>
<path d="M91.2345 146.953C91.2345 147.163 91.1722 147.369 91.0554 147.543C90.9386 147.718 90.7725 147.854 90.5783 147.934C90.384 148.015 90.1703 148.036 89.9641 147.995C89.7578 147.954 89.5684 147.853 89.4198 147.704C89.2711 147.556 89.1698 147.366 89.1288 147.16C89.0878 146.954 89.1089 146.741 89.1893 146.546C89.2698 146.352 89.406 146.186 89.5809 146.07C89.7557 145.953 89.9612 145.891 90.1715 145.891C90.4534 145.891 90.7238 146.003 90.9232 146.202C91.1225 146.401 91.2345 146.671 91.2345 146.953Z" fill="white"/>
<path d="M93.7379 146.953C93.7391 147.165 93.6772 147.372 93.5602 147.549C93.4432 147.725 93.2763 147.863 93.0807 147.945C92.8851 148.027 92.6696 148.048 92.4617 148.007C92.2537 147.966 92.0626 147.864 91.9128 147.715C91.7629 147.565 91.6609 147.374 91.6199 147.166C91.5788 146.958 91.6005 146.743 91.6822 146.547C91.7638 146.352 91.9018 146.185 92.0785 146.068C92.2553 145.951 92.4628 145.889 92.6748 145.891C92.9567 145.891 93.2271 146.003 93.4265 146.202C93.6259 146.401 93.7379 146.671 93.7379 146.953Z" fill="white"/>
<path d="M88.7326 144.416C88.7314 144.626 88.668 144.831 88.5504 145.005C88.4329 145.179 88.2665 145.314 88.0721 145.393C87.8778 145.473 87.6642 145.493 87.4584 145.451C87.2526 145.41 87.0637 145.308 86.9157 145.159C86.7676 145.01 86.667 144.821 86.6264 144.615C86.5859 144.409 86.6073 144.196 86.6879 144.002C86.7686 143.808 86.9048 143.643 87.0795 143.526C87.2542 143.41 87.4595 143.348 87.6695 143.348C87.8096 143.348 87.9483 143.375 88.0777 143.429C88.2071 143.483 88.3246 143.562 88.4233 143.661C88.5221 143.76 88.6003 143.878 88.6534 144.008C88.7064 144.137 88.7334 144.276 88.7326 144.416Z" fill="white"/>
<path d="M91.2355 144.416C91.2343 144.626 91.1709 144.831 91.0534 145.005C90.9358 145.179 90.7694 145.314 90.5751 145.393C90.3807 145.473 90.1671 145.493 89.9613 145.451C89.7555 145.41 89.5667 145.308 89.4186 145.159C89.2705 145.01 89.1699 144.821 89.1294 144.615C89.0888 144.409 89.1102 144.196 89.1909 144.002C89.2715 143.808 89.4078 143.643 89.5824 143.526C89.7571 143.41 89.9624 143.348 90.1724 143.348C90.3125 143.348 90.4513 143.375 90.5806 143.429C90.71 143.483 90.8275 143.562 90.9263 143.661C91.0251 143.76 91.1033 143.878 91.1563 144.008C91.2094 144.137 91.2363 144.276 91.2355 144.416Z" fill="white"/>
<path d="M93.7379 144.416C93.7379 144.628 93.675 144.834 93.5573 145.01C93.4395 145.186 93.2722 145.323 93.0765 145.404C92.8808 145.484 92.6655 145.505 92.4579 145.464C92.2504 145.422 92.0599 145.319 91.9106 145.169C91.7613 145.019 91.66 144.828 91.6194 144.621C91.5789 144.413 91.6009 144.198 91.6828 144.003C91.7646 143.808 91.9026 143.641 92.0792 143.525C92.2558 143.408 92.4631 143.346 92.6748 143.348C92.8149 143.348 92.9537 143.375 93.0831 143.429C93.2124 143.483 93.3299 143.562 93.4287 143.661C93.5275 143.76 93.6057 143.878 93.6587 144.008C93.7118 144.137 93.7387 144.276 93.7379 144.416Z" fill="white"/>
<path d="M88.7326 149.467C88.7326 149.677 88.6702 149.882 88.5534 150.057C88.4366 150.232 88.2706 150.368 88.0763 150.448C87.8821 150.529 87.6683 150.55 87.4621 150.509C87.2559 150.468 87.0665 150.366 86.9178 150.218C86.7691 150.069 86.6679 149.88 86.6269 149.674C86.5859 149.468 86.6069 149.254 86.6874 149.06C86.7678 148.866 86.9041 148.7 87.0789 148.583C87.2537 148.467 87.4593 148.404 87.6695 148.404C87.9515 148.404 88.2218 148.516 88.4212 148.715C88.6206 148.915 88.7326 149.185 88.7326 149.467Z" fill="white"/>
<path d="M91.2345 149.467C91.2345 149.677 91.1722 149.882 91.0554 150.057C90.9386 150.232 90.7725 150.368 90.5783 150.448C90.384 150.529 90.1703 150.55 89.9641 150.509C89.7578 150.468 89.5684 150.366 89.4198 150.218C89.2711 150.069 89.1698 149.88 89.1288 149.674C89.0878 149.468 89.1089 149.254 89.1893 149.06C89.2698 148.866 89.406 148.7 89.5809 148.583C89.7557 148.467 89.9612 148.404 90.1715 148.404C90.4534 148.404 90.7238 148.516 90.9232 148.715C91.1225 148.915 91.2345 149.185 91.2345 149.467Z" fill="white"/>
<path d="M93.7379 149.467C93.7391 149.679 93.6772 149.886 93.5602 150.063C93.4432 150.239 93.2763 150.377 93.0807 150.459C92.8851 150.54 92.6696 150.562 92.4617 150.521C92.2537 150.48 92.0626 150.378 91.9128 150.228C91.7629 150.078 91.6609 149.888 91.6199 149.68C91.5788 149.472 91.6005 149.257 91.6822 149.061C91.7638 148.866 91.9018 148.699 92.0785 148.582C92.2553 148.465 92.4628 148.403 92.6748 148.404C92.9567 148.404 93.2271 148.516 93.4265 148.715C93.6259 148.915 93.7379 149.185 93.7379 149.467Z" fill="white"/>
<g opacity="0.2">
<path d="M63.8928 156.09C68.9487 156.09 73.0473 151.994 73.0473 146.941C73.0473 141.889 68.9487 137.793 63.8928 137.793C58.8369 137.793 54.7383 141.889 54.7383 146.941C54.7383 151.994 58.8369 156.09 63.8928 156.09Z" fill="white"/>
</g>
<path d="M59.5984 145.745V147.888C59.5984 147.932 59.6157 147.974 59.6465 148.004C59.6772 148.035 59.719 148.052 59.7625 148.052H60.9774C61.015 148.052 61.0514 148.065 61.0807 148.089L62.9456 149.546C62.9701 149.566 62.9998 149.578 63.0311 149.581C63.0624 149.585 63.0941 149.579 63.1223 149.565C63.1505 149.551 63.1741 149.529 63.1901 149.502C63.2062 149.475 63.2141 149.444 63.2129 149.412V144.355C63.2143 144.324 63.207 144.294 63.1917 144.267C63.1764 144.24 63.1537 144.218 63.1264 144.203C63.099 144.188 63.0681 144.182 63.0372 144.184C63.0063 144.186 62.9766 144.197 62.9517 144.216L61.1293 145.515C61.1 145.533 61.0665 145.543 61.0321 145.545H59.7625C59.7378 145.546 59.7136 145.551 59.6915 145.562C59.6693 145.573 59.6497 145.588 59.6342 145.607C59.6186 145.626 59.6073 145.649 59.6011 145.672C59.595 145.696 59.594 145.721 59.5984 145.745Z" fill="white"/>
<path d="M66.6626 150.595C66.6108 150.596 66.5607 150.576 66.5229 150.541C66.4844 150.502 66.4627 150.45 66.4627 150.395C66.4627 150.34 66.4844 150.288 66.5229 150.249C66.9926 149.781 67.3631 149.223 67.6125 148.609C67.862 147.995 67.9852 147.336 67.9748 146.674C67.8682 145.521 67.3533 144.445 66.5229 143.638C66.4979 143.621 66.4768 143.599 66.461 143.574C66.4452 143.548 66.4351 143.519 66.4314 143.489C66.4276 143.459 66.4302 143.429 66.4392 143.4C66.4481 143.371 66.463 143.344 66.4831 143.322C66.5031 143.299 66.5277 143.281 66.5553 143.269C66.5828 143.256 66.6127 143.25 66.6429 143.25C66.6731 143.25 66.703 143.257 66.7305 143.269C66.758 143.282 66.7825 143.3 66.8024 143.323C67.7211 144.198 68.2873 145.379 68.3939 146.643C68.405 147.361 68.2714 148.074 68.0011 148.74C67.7308 149.405 67.3293 150.009 66.8206 150.516C66.7805 150.563 66.7237 150.591 66.6626 150.595Z" fill="white"/>
<path d="M65.5085 149.576C65.48 149.576 65.4517 149.57 65.4256 149.558C65.3995 149.547 65.376 149.53 65.3567 149.509C65.3177 149.469 65.2959 149.416 65.2959 149.36C65.2959 149.305 65.3177 149.251 65.3567 149.212C65.6916 148.939 65.9646 148.598 66.1574 148.212C66.3501 147.826 66.4582 147.403 66.4744 146.971C66.41 146.053 66.0126 145.19 65.3567 144.543C65.3177 144.503 65.2959 144.45 65.2959 144.394C65.2959 144.339 65.3177 144.285 65.3567 144.246C65.3954 144.207 65.4478 144.186 65.5025 144.186C65.5571 144.186 65.6095 144.207 65.6483 144.246C66.3938 144.97 66.8404 145.947 66.8996 146.984C66.8838 147.473 66.764 147.953 66.5483 148.393C66.3325 148.832 66.0257 149.221 65.6483 149.533C65.6292 149.55 65.6069 149.562 65.5828 149.569C65.5588 149.576 65.5335 149.579 65.5085 149.576Z" fill="white"/>
<path d="M64.4826 148.495C64.4282 148.493 64.3764 148.471 64.3368 148.434C64.3167 148.415 64.3008 148.392 64.2899 148.366C64.279 148.341 64.2734 148.313 64.2734 148.285C64.2734 148.258 64.279 148.23 64.2899 148.205C64.3008 148.179 64.3167 148.156 64.3368 148.137C65.6246 146.862 64.3793 145.417 64.3368 145.356C64.2992 145.316 64.2783 145.263 64.2783 145.208C64.2783 145.152 64.2992 145.099 64.3368 145.059C64.3765 145.02 64.4299 144.998 64.4856 144.998C64.5413 144.998 64.5947 145.02 64.6344 145.059C64.6344 145.059 66.1956 146.88 64.6344 148.416C64.616 148.439 64.5929 148.458 64.5668 148.471C64.5407 148.485 64.512 148.493 64.4826 148.495Z" fill="white"/>
<g opacity="0.2">
<path d="M114.197 156.09C119.253 156.09 123.352 151.994 123.352 146.941C123.352 141.889 119.253 137.793 114.197 137.793C109.142 137.793 105.043 141.889 105.043 146.941C105.043 151.994 109.142 156.09 114.197 156.09Z" fill="white"/>
</g>
<path d="M114.258 150.103C114.183 150.103 114.112 150.073 114.058 150.021C114.005 149.969 113.974 149.898 113.973 149.823V144.056C113.983 143.989 114.017 143.927 114.069 143.882C114.12 143.837 114.187 143.812 114.255 143.812C114.324 143.812 114.39 143.837 114.442 143.882C114.494 143.927 114.528 143.989 114.538 144.056V149.823C114.536 149.897 114.506 149.967 114.454 150.019C114.402 150.071 114.332 150.101 114.258 150.103Z" fill="white"/>
<path d="M116.997 147.221H111.403C111.328 147.221 111.256 147.191 111.203 147.139C111.15 147.087 111.119 147.016 111.117 146.941C111.117 146.904 111.125 146.867 111.139 146.833C111.153 146.799 111.175 146.768 111.201 146.742C111.228 146.716 111.259 146.695 111.294 146.682C111.329 146.668 111.365 146.661 111.403 146.662H116.997C117.034 146.661 117.071 146.668 117.105 146.682C117.14 146.695 117.171 146.716 117.197 146.742C117.223 146.768 117.244 146.799 117.257 146.834C117.271 146.868 117.278 146.905 117.277 146.941C117.277 147.015 117.247 147.087 117.195 147.139C117.143 147.191 117.072 147.221 116.997 147.221Z" fill="white"/>
<path d="M78.7759 85.2689C81.2786 87.9643 82.53 91.8434 82.53 96.9064C82.6198 100.1 81.9297 103.267 80.5193 106.134C79.2617 108.607 77.2807 110.64 74.8395 111.962C72.2348 113.33 69.3254 114.015 66.3836 113.953C64.7468 113.961 63.115 113.772 61.5238 113.388C60.1319 113.073 58.8018 112.529 57.5875 111.779L60.3028 106.401C62.0687 107.521 64.1357 108.074 66.2256 107.985C68.9106 107.985 71.0368 107.194 72.604 105.612C74.1713 104.029 75.0157 101.747 75.1371 98.764C73.2419 100.662 70.6095 101.611 67.2401 101.611C65.3303 101.638 63.4403 101.223 61.7182 100.397C60.1114 99.6291 58.7489 98.4314 57.7818 96.9367C56.8021 95.3919 56.2993 93.593 56.3361 91.7645C56.2954 89.7941 56.8478 87.8569 57.9216 86.2038C58.9839 84.5923 60.4814 83.3146 62.2406 82.5189C64.1435 81.64 66.2192 81.1982 68.3153 81.2258C72.7863 81.2218 76.2731 82.5695 78.7759 85.2689ZM72.8288 94.8059C73.3014 94.3751 73.6796 93.8513 73.9398 93.2673C74.1999 92.6833 74.3362 92.0518 74.3402 91.4126C74.3442 90.7734 74.2158 90.1403 73.963 89.5531C73.7102 88.9659 73.3385 88.4373 72.8713 88.0007C71.7351 87.0718 70.291 86.6038 68.8256 86.6894C67.4391 86.6285 66.0788 87.0802 65.0046 87.9582C64.5162 88.3831 64.1303 88.9129 63.8757 89.5079C63.6212 90.1029 63.5045 90.7478 63.5345 91.3942C63.5061 92.044 63.6234 92.6919 63.8777 93.2906C64.1321 93.8893 64.5171 94.4236 65.0046 94.8545C66.1364 95.6984 67.5128 96.1503 68.9248 96.1415C70.3369 96.1328 71.7076 95.6638 72.8288 94.8059Z" fill="white"/>
<path d="M98.0018 81.7656V113.412H90.6757V87.642H84.3398V81.7656H98.0018Z" fill="white"/>
<path d="M115.734 81.7656V113.412H108.408V87.642H102.054V81.7656H115.734Z" fill="white"/>
<path d="M58.7475 126.167V127.247H54.8232V122.391H58.6564V123.459H56.19V124.285H58.3648V125.317H56.19V126.209L58.7475 126.167Z" fill="white"/>
<path d="M63.9354 127.247V124.655L62.6779 126.768H62.0705L60.8191 124.728V127.247H59.5312V122.391H60.6672L62.3863 125.213L64.0629 122.391H65.205V127.247H63.9354Z" fill="white"/>
<path d="M70.1138 126.167V127.247H66.2139V122.391H70.0531V123.459H67.5867V124.285H69.7554V125.317H67.5867V126.209L70.1138 126.167Z" fill="white"/>
<path d="M73.0173 125.937H72.2883V127.248H70.9033V122.391H73.1388C73.5346 122.382 73.9279 122.457 74.293 122.61C74.5981 122.734 74.86 122.945 75.0462 123.217C75.2278 123.503 75.3208 123.837 75.3135 124.176C75.3202 124.501 75.2338 124.821 75.0645 125.099C74.8926 125.367 74.6453 125.578 74.3537 125.706L75.3864 127.248H73.9042L73.0173 125.937ZM73.6734 123.63C73.4902 123.487 73.2608 123.418 73.0295 123.436H72.2883V124.868H73.0538C73.2832 124.886 73.5114 124.821 73.6977 124.686C73.7716 124.62 73.8298 124.539 73.8676 124.447C73.9055 124.356 73.9222 124.257 73.9164 124.158C73.9236 124.053 73.9053 123.948 73.8629 123.852C73.8206 123.756 73.7556 123.671 73.6734 123.606V123.63Z" fill="white"/>
<path d="M79.3291 124.685H80.544V126.712C80.25 126.919 79.9235 127.075 79.5781 127.174C79.2249 127.277 78.8589 127.33 78.4908 127.332C78.0099 127.337 77.5347 127.227 77.1058 127.01C76.7075 126.802 76.3736 126.489 76.1399 126.105C75.9131 125.704 75.7939 125.252 75.7939 124.791C75.7939 124.33 75.9131 123.878 76.1399 123.477C76.3762 123.093 76.7121 122.78 77.1118 122.572C77.5489 122.353 78.0323 122.243 78.5212 122.25C78.9374 122.246 79.3503 122.325 79.7361 122.481C80.0883 122.626 80.4007 122.853 80.6473 123.143L79.7665 123.938C79.6165 123.764 79.4298 123.625 79.2197 123.532C79.0096 123.438 78.7814 123.392 78.5515 123.398C78.3646 123.384 78.1769 123.411 78.0012 123.476C77.8255 123.542 77.666 123.644 77.5335 123.777C77.4009 123.909 77.2985 124.068 77.233 124.244C77.1676 124.42 77.1408 124.607 77.1544 124.794C77.1515 125.046 77.212 125.294 77.3305 125.516C77.4414 125.724 77.6103 125.895 77.8165 126.008C78.037 126.132 78.2865 126.195 78.5394 126.19C78.7975 126.192 79.0527 126.136 79.2866 126.026L79.3291 124.685Z" fill="white"/>
<path d="M85.3549 126.167V127.247H81.4307V122.391H85.2698V123.459H82.7975V124.285H84.9722V125.317H82.7975V126.209L85.3549 126.167Z" fill="white"/>
<path d="M90.7794 122.348V127.204H89.6434L87.4748 124.63V127.247H86.1201V122.39H87.2561L89.4187 124.994V122.39L90.7794 122.348Z" fill="white"/>
<path d="M92.8142 127.01C92.4169 126.802 92.0847 126.489 91.8544 126.105C91.6748 125.813 91.5569 125.487 91.508 125.148C91.4592 124.808 91.4804 124.462 91.5703 124.131C91.6602 123.8 91.8169 123.491 92.0308 123.223C92.2448 122.955 92.5113 122.733 92.8142 122.572C93.2407 122.354 93.7141 122.244 94.1931 122.25C94.6101 122.245 95.0236 122.326 95.408 122.487C95.7576 122.639 96.0643 122.875 96.301 123.173L95.4202 123.968C95.285 123.791 95.1104 123.646 94.9102 123.547C94.7099 123.448 94.4894 123.397 94.266 123.398C94.0184 123.392 93.7735 123.451 93.5553 123.568C93.3523 123.683 93.186 123.854 93.0754 124.059C92.9633 124.287 92.9051 124.537 92.9051 124.791C92.9051 125.045 92.9633 125.295 93.0754 125.522C93.1847 125.729 93.3513 125.9 93.5553 126.014C93.7729 126.133 94.0178 126.194 94.266 126.19C94.4899 126.189 94.7105 126.137 94.9107 126.037C95.111 125.937 95.2853 125.792 95.4202 125.613L96.301 126.409C96.0659 126.709 95.7587 126.945 95.408 127.095C95.0236 127.256 94.6101 127.337 94.1931 127.331C93.7141 127.338 93.2407 127.228 92.8142 127.01Z" fill="white"/>
<path d="M99.5146 125.482V127.248H98.1296V125.476L96.2646 122.361H97.7226L98.8828 124.304L100.043 122.361H101.386L99.5146 125.482Z" fill="white"/>
<path d="M104.83 127.01C104.431 126.803 104.096 126.49 103.864 126.105C103.638 125.704 103.519 125.252 103.519 124.791C103.519 124.33 103.638 123.878 103.864 123.477C104.098 123.093 104.432 122.781 104.83 122.572C105.257 122.354 105.73 122.243 106.209 122.25C106.626 122.244 107.04 122.324 107.424 122.487C107.774 122.639 108.08 122.875 108.317 123.173L107.436 123.968C107.302 123.79 107.127 123.646 106.927 123.547C106.726 123.448 106.506 123.397 106.282 123.398C106.035 123.393 105.79 123.452 105.571 123.568C105.369 123.683 105.202 123.854 105.092 124.059C104.98 124.287 104.921 124.537 104.921 124.791C104.921 125.045 104.98 125.295 105.092 125.522C105.201 125.729 105.367 125.9 105.571 126.014C105.79 126.132 106.034 126.192 106.282 126.19C106.506 126.19 106.727 126.138 106.927 126.038C107.128 125.938 107.302 125.792 107.436 125.614L108.317 126.409C108.082 126.709 107.775 126.945 107.424 127.095C107.04 127.258 106.626 127.338 106.209 127.332C105.73 127.339 105.257 127.228 104.83 127.01Z" fill="white"/>
<path d="M112.119 126.288H110.048L109.665 127.235H108.256L110.412 122.379H111.773L113.942 127.235H112.502L112.119 126.288ZM111.712 125.269L111.105 123.702L110.497 125.269H111.712Z" fill="white"/>
<path d="M114.331 122.348H115.716V126.142H118.049V127.247H114.331V122.348Z" fill="white"/>
<path d="M118.596 122.348H119.981V126.142H122.313V127.247H118.596V122.348Z" fill="white"/>
<path d="M246.054 47.3452L233.735 38.3242L232.162 53.1912L216.495 54.8303L228.529 66.8502L219.32 75.6223L232.362 76.5815L233.875 88.2797L244.196 79.5683L258.179 88.2797L262.085 73.8618L277.527 71.6946L263.993 62.0726L271.289 49.2635L259.54 51.9467L256.236 36.1934L246.054 47.3452Z" fill="white"/>
<path d="M246.054 47.345L246.723 46.5862C247.172 46.0945 247.828 45.3721 248.685 44.4129L256.181 36.1446L256.284 36.0293L256.314 36.1811C257.226 40.4973 258.356 45.8274 259.643 51.9284L259.516 51.8434L271.264 49.1419L271.531 49.0812L271.398 49.3241L264.108 62.1392L264.066 61.9632L277.612 71.5731L277.91 71.7855L277.545 71.8402L262.11 74.0135L262.237 73.9042L258.331 88.322L258.277 88.5284L258.094 88.4131L247.312 81.7171L244.11 79.726H244.299L233.972 88.4374L233.753 88.6195L233.717 88.3342C233.198 84.3639 232.694 80.4646 232.204 76.636L232.344 76.7695L219.295 75.7679H218.961L219.204 75.5372L228.407 66.7529V66.9533L216.41 54.9212L216.222 54.733H216.483L232.149 53.1122L232.052 53.185C232.66 47.3693 233.213 42.4278 233.656 38.3119V38.1844L233.759 38.2633L242.871 44.9896L245.228 46.738L246.03 47.345C246.03 47.345 245.763 47.1629 245.228 46.7804L242.859 45.0685L233.662 38.3908L233.784 38.3362C233.358 42.4521 232.842 47.3936 232.241 53.2093V53.2943H232.156L216.501 54.9516L216.574 54.7391L228.614 66.7469L228.717 66.8501L228.608 66.9472L219.411 75.7254L219.32 75.4704L232.362 76.4235H232.484V76.551C232.978 80.3715 233.484 84.2709 234.002 88.2492L233.747 88.146L244.074 79.4346L244.165 79.3617L244.262 79.4224L247.458 81.4136L258.246 88.1338L258.009 88.2249C259.352 83.2652 260.67 78.4026 261.921 73.8071V73.7099H262.025L277.46 71.5488L277.4 71.8159L263.871 62.1817L263.774 62.1089L263.835 62.0057L271.124 49.2026L271.258 49.3848L259.504 52.0559H259.4V51.9466L256.126 36.1629L256.26 36.1993L248.709 44.4918L246.729 46.6287C246.285 47.1143 246.054 47.345 246.054 47.345Z" fill="#263238"/>
<path d="M244.092 52.8336L243.278 64.6229C243.243 65.0903 243.039 65.5289 242.703 65.8564C242.367 66.1839 241.924 66.3777 241.455 66.4016C240.965 66.4276 240.484 66.2644 240.111 65.9458C239.738 65.6272 239.502 65.1775 239.451 64.6897L238.236 52.8276C238.213 52.6158 238.236 52.4016 238.303 52.1993C238.37 51.997 238.479 51.8113 238.623 51.6545C238.768 51.4977 238.944 51.3734 239.14 51.2899C239.336 51.2064 239.548 51.1656 239.761 51.1703L242.634 51.2249C242.837 51.231 243.036 51.2779 243.22 51.3628C243.404 51.4477 243.569 51.5689 243.706 51.7191C243.842 51.8694 243.946 52.0455 244.012 52.237C244.079 52.4285 244.106 52.6315 244.092 52.8336Z" fill="#3BAD6B"/>
<path d="M238.419 71.9066C238.599 72.4462 238.935 72.9203 239.385 73.2688C239.835 73.6174 240.379 73.8249 240.946 73.865C241.514 73.9051 242.081 73.7761 242.576 73.4943C243.071 73.2124 243.47 72.7904 243.725 72.2815C243.98 71.7727 244.078 71.1998 244.006 70.6353C243.935 70.0708 243.698 69.5401 243.325 69.1101C242.953 68.6802 242.461 68.3704 241.912 68.2198C241.363 68.0692 240.781 68.0847 240.241 68.2642C239.881 68.3829 239.549 68.5714 239.262 68.8189C238.976 69.0665 238.741 69.3682 238.572 69.7067C238.403 70.0452 238.302 70.4138 238.275 70.7914C238.249 71.1689 238.298 71.5479 238.419 71.9066Z" fill="#3BAD6B"/>
<path d="M253.848 52.8336L253.028 64.6229C252.996 65.0912 252.792 65.5313 252.456 65.8593C252.12 66.1873 251.675 66.3803 251.206 66.4016C250.715 66.4291 250.233 66.2664 249.86 65.9475C249.486 65.6286 249.25 65.1781 249.201 64.6897L247.956 52.8276C247.933 52.6158 247.956 52.4016 248.023 52.1993C248.09 51.997 248.199 51.8113 248.343 51.6545C248.487 51.4977 248.663 51.3734 248.86 51.2899C249.056 51.2064 249.267 51.1656 249.48 51.1703L252.36 51.2249C252.565 51.2269 252.768 51.2708 252.955 51.354C253.143 51.4371 253.312 51.5577 253.451 51.7083C253.591 51.859 253.698 52.0365 253.766 52.23C253.834 52.4235 253.862 52.6289 253.848 52.8336Z" fill="#3BAD6B"/>
<path d="M248.168 71.9066C248.349 72.4462 248.685 72.9203 249.135 73.2688C249.585 73.6174 250.128 73.8249 250.696 73.865C251.264 73.9051 251.831 73.7761 252.326 73.4943C252.82 73.2124 253.22 72.7904 253.475 72.2815C253.729 71.7727 253.827 71.1998 253.756 70.6353C253.685 70.0708 253.448 69.5401 253.075 69.1101C252.702 68.6802 252.21 68.3704 251.661 68.2198C251.112 68.0692 250.531 68.0847 249.991 68.2642C249.266 68.5066 248.668 69.0262 248.326 69.709C247.984 70.3917 247.928 71.182 248.168 71.9066Z" fill="#3BAD6B"/>
<path d="M238.187 201.037C238.152 200.471 237.98 199.921 237.688 199.435C237.395 198.949 236.989 198.541 236.505 198.245C221.567 188.361 210.305 166.458 209.169 147.913C209.138 146.856 209.108 145.788 209.072 144.707C208.136 116.825 204.212 84.7291 200.792 77.4625C193.472 62.0005 172.375 60.1429 172.375 60.1429C143.247 58.0607 138.047 80.4311 135.107 100.816C133.284 113.486 126.231 158.743 126.231 158.743L131.583 160.813C137.895 179.456 152.091 194.566 170.552 201.511C175.922 203.532 180.472 204.346 182.604 202.609C191.122 211.247 201.653 217.637 213.251 221.204C217.959 222.63 222.885 223.59 227.782 223.128C230.965 222.831 234.318 221.78 236.213 219.213C237.041 218.1 237.533 216.775 237.634 215.393C237.734 214.011 237.438 212.629 236.78 211.409C236.121 210.189 235.129 209.182 233.918 208.506C232.707 207.83 231.329 207.514 229.944 207.593C231.05 204.012 238.315 205.068 238.187 201.037Z" fill="#263238"/>
<path d="M182.781 145.983C182.781 145.983 193.43 141.412 198.928 140.374C204.425 139.336 242.841 129.446 242.841 129.446L203.192 95.4932L211.94 84.8574C211.94 84.8574 241.39 102.42 262.329 116.425C262.468 116.503 262.6 116.592 262.724 116.692C274.63 126.059 270.463 142.377 258.235 150.044C252.16 153.863 225.431 165.367 220.286 167.886C209.959 172.912 210.111 172.742 210.111 172.742L182.781 145.983Z" fill="#FFBF9D"/>
<path d="M176.251 68.3632L174.429 66.627L154.735 74.5552C153.358 74.6252 152.059 75.2119 151.098 76.1979C150.136 77.1839 149.582 78.4965 149.547 79.8732L149.717 143.992C149.717 148.344 150.561 152.108 153.192 155.574L155.956 159.217C162.261 167.54 175.237 166.854 180.254 157.687C180.555 157.166 180.788 156.609 180.947 156.03C181.073 155.556 181.17 155.076 181.238 154.591C181.846 149.437 181.846 144.963 181.846 144.963C182.198 139.299 182.314 136.974 182.314 137.028C182.314 137.083 194.378 135.638 197.64 120.17C199.262 112.473 198.952 101.885 198.496 91.4681C197.853 77.0624 187.848 68.3632 176.251 68.3632Z" fill="#FFBF9D"/>
<path d="M175.03 101.751C175.009 102.272 174.785 102.765 174.406 103.123C174.027 103.482 173.523 103.678 173.001 103.669C172.745 103.677 172.49 103.633 172.252 103.54C172.014 103.448 171.796 103.309 171.612 103.131C171.428 102.954 171.282 102.741 171.181 102.506C171.08 102.271 171.028 102.019 171.026 101.763C171.048 101.242 171.272 100.75 171.651 100.39C172.03 100.031 172.533 99.8335 173.055 99.8387C173.311 99.8314 173.566 99.8754 173.805 99.9681C174.044 100.061 174.262 100.201 174.446 100.379C174.63 100.557 174.776 100.77 174.877 101.006C174.977 101.242 175.029 101.495 175.03 101.751Z" fill="#263238"/>
<path d="M194.572 102.321C194.551 102.844 194.327 103.338 193.946 103.697C193.566 104.057 193.06 104.254 192.537 104.245C192.281 104.252 192.028 104.207 191.79 104.115C191.552 104.022 191.335 103.883 191.152 103.705C190.969 103.528 190.823 103.316 190.723 103.081C190.622 102.846 190.57 102.594 190.568 102.339C190.587 101.817 190.81 101.323 191.19 100.963C191.569 100.603 192.074 100.407 192.597 100.415C192.853 100.408 193.107 100.451 193.346 100.544C193.584 100.636 193.802 100.775 193.986 100.953C194.17 101.13 194.316 101.343 194.417 101.578C194.517 101.813 194.57 102.065 194.572 102.321Z" fill="#263238"/>
<path d="M196.425 95.6016C196.163 95.8505 194.705 94.6546 192.549 94.5514C190.392 94.4482 188.764 95.4438 188.546 95.1585C188.436 95.0371 188.71 94.5514 189.427 94.1082C190.39 93.5119 191.515 93.2278 192.646 93.2948C193.766 93.346 194.84 93.7521 195.714 94.4543C196.352 95.0067 196.552 95.4924 196.425 95.6016Z" fill="#263238"/>
<path d="M174.568 95.8266C174.282 96.0452 172.952 94.7035 170.82 94.3818C168.687 94.0601 166.962 94.8857 166.774 94.5882C166.677 94.4547 166.993 94.0236 167.758 93.6351C168.778 93.1399 169.925 92.9704 171.044 93.1495C172.155 93.3161 173.183 93.8329 173.978 94.6246C174.556 95.2256 174.707 95.7295 174.568 95.8266Z" fill="#263238"/>
<path d="M182.094 111.495C182.094 111.368 183.437 111.204 185.624 111.04C186.177 111.01 186.699 110.925 186.839 110.554C186.91 109.99 186.81 109.417 186.553 108.909L185.138 104.66C183.176 98.5889 181.785 93.6049 182.034 93.5321C182.283 93.4592 184.063 98.3097 186.025 104.386C186.491 105.88 186.94 107.308 187.373 108.672C187.55 109.279 187.871 110.032 187.55 110.846C187.459 111.035 187.327 111.202 187.163 111.333C186.998 111.465 186.807 111.557 186.602 111.604C186.292 111.67 185.976 111.696 185.66 111.683C183.455 111.671 182.094 111.617 182.094 111.495Z" fill="#263238"/>
<path d="M182.301 137.039C174.948 136.78 167.811 134.487 161.684 130.416C161.684 130.416 166.398 141.477 182.088 140.803L182.301 137.039Z" fill="#FF9A6C"/>
<path d="M166.969 87.4424C167.048 86.8354 169.204 86.6168 171.604 85.7548C174.003 84.8928 175.856 83.7636 176.287 84.2007C176.488 84.4132 176.287 85.0263 175.588 85.7669C174.67 86.69 173.553 87.3921 172.323 87.8201C171.092 88.2482 169.781 88.391 168.487 88.2377C167.503 88.0799 166.944 87.7338 166.969 87.4424Z" fill="#263238"/>
<path d="M194.997 87.4235C194.59 87.8909 193.132 87.3082 191.353 87.1928C189.573 87.0775 188.036 87.3567 187.708 86.8286C187.568 86.5736 187.835 86.094 188.516 85.6691C189.429 85.1572 190.475 84.9289 191.519 85.0132C192.563 85.0976 193.558 85.4907 194.378 86.1426C194.997 86.6768 195.155 87.1807 194.997 87.4235Z" fill="#263238"/>
<path d="M149.935 107.245C149.935 107.245 160.967 110.675 167.212 83.4664C169.344 74.1662 177.976 66.6325 177.976 66.6325L174.477 65.5762C174.477 65.5762 152.723 71.7015 152.353 72.005C151.982 72.3085 146.886 83.2479 146.886 83.2479L149.935 107.245Z" fill="#263238"/>
<path d="M152.657 106.231C152.712 105.072 151.503 102.261 150.367 102.024C147.33 101.417 141.789 101.363 141.346 109.139C140.739 119.769 151.545 118.184 151.582 117.881C151.618 117.577 152.475 110.25 152.657 106.231Z" fill="#FFBF9D"/>
<path d="M148.562 113.668C148.52 113.632 148.368 113.789 148.046 113.917C147.595 114.082 147.097 114.062 146.661 113.862C145.561 113.389 144.717 111.549 144.772 109.613C144.8 108.7 145.028 107.805 145.44 106.99C145.559 106.664 145.755 106.371 146.012 106.137C146.269 105.904 146.58 105.736 146.916 105.649C147.132 105.604 147.357 105.637 147.551 105.741C147.745 105.846 147.897 106.015 147.979 106.219C148.107 106.523 148.028 106.735 148.082 106.753C148.137 106.772 148.319 106.59 148.258 106.146C148.213 105.88 148.081 105.637 147.882 105.454C147.599 105.218 147.235 105.101 146.867 105.127C146.426 105.189 146.009 105.363 145.654 105.632C145.299 105.9 145.018 106.255 144.838 106.662C144.327 107.574 144.049 108.598 144.03 109.643C143.976 111.786 144.96 113.85 146.46 114.384C146.742 114.484 147.042 114.518 147.338 114.486C147.635 114.453 147.92 114.354 148.173 114.196C148.526 113.923 148.599 113.692 148.562 113.668Z" fill="#FF9A6C"/>
<path d="M157.419 102.042C157.419 102.006 158.026 102 159.011 101.721C160.427 101.29 161.724 100.538 162.801 99.5231C163.546 98.8303 164.208 98.0543 164.775 97.2102C165.411 96.2282 165.95 95.1873 166.385 94.102C167.303 91.5742 168.068 88.9936 168.675 86.3741C169.355 83.7608 170.166 81.1836 171.105 78.6522C171.876 76.584 172.802 74.577 173.875 72.6483C174.598 71.3474 175.41 70.0979 176.305 68.9088C176.621 68.4899 176.913 68.1864 177.07 67.9678C177.151 67.8543 177.245 67.7504 177.35 67.6582C177.28 67.7797 177.201 67.8954 177.113 68.0042C176.955 68.2289 176.694 68.5445 176.396 68.9755C175.536 70.1829 174.751 71.4419 174.045 72.7454C173.002 74.6777 172.099 76.6821 171.342 78.7432C170.467 81.0683 169.672 83.6787 168.912 86.4469C168.301 89.0773 167.524 91.6666 166.586 94.1992C166.145 95.2995 165.591 96.3513 164.933 97.3377C164.35 98.1931 163.667 98.9757 162.898 99.6688C161.793 100.69 160.457 101.429 159.004 101.824C158.488 101.967 157.955 102.041 157.419 102.042Z" fill="#263238"/>
<path d="M142.882 147.397C142.825 147.232 142.786 147.061 142.767 146.887C142.7 146.511 142.609 146.013 142.494 145.376L141.54 139.602L141.795 139.566C141.85 139.954 141.91 140.379 141.971 140.823V140.78L142.196 141.26L141.929 141.357C140.3 135.76 139.154 130.035 138.503 124.244C138.091 120.569 137.874 116.875 137.853 113.177C137.889 109.292 137.853 105.164 138.903 101.035C139.326 99.3361 139.977 97.7022 140.841 96.1789C141.687 94.7218 142.672 93.3495 143.781 92.0812C145.944 89.5862 148.277 87.4372 150.403 85.3064L161.823 74.0756C165.067 70.9128 167.703 68.3449 169.55 66.5359L171.67 64.5083L172.229 63.9862C172.29 63.9218 172.359 63.8666 172.436 63.8223C172.386 63.8948 172.329 63.962 172.265 64.0226L171.743 64.575L169.684 66.6694L162.066 74.3245L150.719 85.622C148.599 87.765 146.272 89.9261 144.146 92.3908C141.873 94.8814 140.237 97.8849 139.377 101.145C138.357 105.176 138.369 109.285 138.326 113.153C138.358 122.652 139.657 132.104 142.19 141.26L141.923 141.357C141.85 141.193 141.771 141.023 141.71 140.877C141.655 140.434 141.601 140.003 141.552 139.621L141.807 139.578C142.166 142.055 142.445 144.004 142.645 145.37C142.73 146.013 142.797 146.517 142.846 146.893C142.872 147.06 142.884 147.228 142.882 147.397Z" fill="#455A64"/>
<path d="M134.506 98.2544C134.545 98.096 134.609 97.9445 134.694 97.8052L135.302 96.5546C135.842 95.474 136.693 93.9382 137.804 92.0866C138.916 90.2351 140.338 88.0739 142.014 85.7488C143.691 83.4238 145.659 80.9773 147.876 78.5126C150.093 76.0479 152.341 73.8443 154.461 71.9138C156.581 69.9833 158.58 68.3564 160.317 67.0573C162.054 65.7581 163.476 64.7443 164.496 64.0948L165.675 63.342C165.807 63.248 165.95 63.1706 166.1 63.1113C165.99 63.2315 165.866 63.3375 165.73 63.427L164.624 64.2465C163.64 64.9447 162.237 65.9949 160.542 67.3304C158.847 68.666 156.897 70.3233 154.777 72.2416C152.657 74.1599 150.464 76.3939 148.259 78.8344C146.054 81.2748 144.104 83.7334 142.391 86.016C140.678 88.2985 139.256 90.4354 138.139 92.2627C137.021 94.0899 136.097 95.5894 135.508 96.6457L134.81 97.8598C134.725 98.0031 134.623 98.1356 134.506 98.2544Z" fill="#455A64"/>
<path d="M229.198 278.408L213.944 231.955L212.729 187.809C212.359 180.196 211.794 169.063 211.794 169.063C206.819 153.51 191 140.379 191 140.379L182.022 141.721C181.682 151.434 166.835 160.242 156.193 153.807C152.25 150.978 149.219 144.021 149.219 144.021L131.11 152.745L143.551 241.601C143.551 241.601 131.28 264.482 131.28 278.371L229.198 278.408Z" fill="#455A64"/>
<g opacity="0.3">
<path d="M142.336 231.014C144.565 236.696 148.945 241.698 154.674 243.811C160.402 245.923 167.43 244.727 171.561 240.223C174.094 237.461 175.358 233.77 176.166 230.109C176.824 226.882 177.319 223.624 177.648 220.347C179.568 203.726 180.965 186.959 179.428 170.283L177.156 151.051L170.583 154.754L167.546 223.243L142.336 231.014Z" fill="black"/>
</g>
<path d="M182.24 141.35C182.24 141.35 195.44 138.035 206.174 137.75L223.979 133.258L227.017 165.044L210.014 175.935L182.24 141.35Z" fill="#455A64"/>
<path d="M150.81 190.224L119.556 205.899C119.556 205.899 110.899 159.543 131.019 152.744L132.185 159.325L150.81 190.224Z" fill="#455A64"/>
<path d="M210.821 150.348C210.821 150.348 210.821 150.421 210.821 150.554C210.821 150.688 210.852 150.918 210.87 151.161C210.906 151.726 210.961 152.521 211.022 153.535C211.156 155.599 211.313 158.586 211.502 162.27C211.872 169.652 212.31 179.875 212.717 191.112C213.124 202.349 213.452 212.584 213.658 219.966C213.749 223.645 213.828 226.644 213.877 228.714C213.877 229.728 213.913 230.535 213.919 231.094C213.919 231.349 213.919 231.555 213.919 231.701C213.929 231.769 213.929 231.839 213.919 231.907C213.911 231.839 213.911 231.769 213.919 231.701C213.919 231.543 213.907 231.34 213.883 231.094C213.883 230.529 213.822 229.734 213.78 228.714C213.701 226.632 213.591 223.651 213.458 219.972C213.191 212.572 212.85 202.367 212.425 191.124C212 179.881 211.587 169.683 211.301 162.283C211.137 158.604 211.01 155.605 210.919 153.541C210.876 152.527 210.846 151.72 210.821 151.167V150.56C210.811 150.49 210.811 150.418 210.821 150.348Z" fill="#263238"/>
<path d="M119.556 205.9C119.556 205.9 119.592 205.87 119.677 205.821L120.06 205.609L121.542 204.832L127.009 202.033L145.13 192.891L148.933 190.991L148.854 191.185C148.318 189.602 147.685 188.053 146.958 186.547C146.26 185.078 145.744 183.621 145.191 182.249C144.158 179.499 143.083 177.107 142.208 175.098C141.333 173.088 140.641 171.455 140.197 170.35C139.979 169.786 139.809 169.349 139.705 169.045C139.645 168.898 139.596 168.745 139.56 168.59C139.638 168.73 139.705 168.876 139.76 169.027L140.301 170.302C140.781 171.419 141.516 173.021 142.396 175.013C143.277 177.004 144.395 179.402 145.434 182.152C145.968 183.518 146.521 184.969 147.22 186.401C147.951 187.913 148.59 189.468 149.133 191.057L149.188 191.191L149.06 191.258L145.264 193.164L127.094 202.221L121.597 204.953L120.09 205.682L119.695 205.858C119.651 205.879 119.604 205.893 119.556 205.9Z" fill="#263238"/>
<path d="M184.622 116.715C183.417 115.88 182.013 115.377 180.552 115.258C180.095 115.2 179.632 115.248 179.197 115.398C178.884 115.549 178.607 115.765 178.385 116.032C178.163 116.299 178.001 116.611 177.909 116.946C177.735 117.617 177.657 118.31 177.678 119.004C177.657 119.267 177.698 119.531 177.8 119.775C177.944 119.971 178.133 120.13 178.353 120.236C178.572 120.341 178.814 120.392 179.057 120.382C180.709 120.518 182.367 120.215 183.862 119.502" fill="#FF9A6C"/>
<path d="M123.528 203.903C129.919 218.739 142.062 233.801 149.546 236.557C160.693 240.661 169.92 238.621 174.197 225.023C178.474 211.424 175.728 151.082 175.728 151.082L157.139 150.02L153.689 202.027C153.689 202.027 151.636 197.99 148.021 191.622" fill="#FFBF9D"/>
<path d="M203.192 95.4861L198.509 92.0743L197.792 86.2101C197.792 86.2101 189.336 86.4286 188.819 81.8999C188.819 81.8999 183.96 83.193 184.178 78.4032C184.178 78.4032 181.7 76.7216 182.605 75.1736C183.51 73.6256 190.502 71.3066 190.903 71.1791C191.304 71.0516 195.872 70.0803 195.872 70.0803L194.517 68.5748L190.873 68.9633C190.873 68.9633 188.674 71.0334 186.857 71.2884C185.041 71.5434 184.92 70.7724 184.92 70.7724C184.92 70.7724 182.848 68.5748 185.563 66.3711C187.889 64.5965 190.673 63.5204 193.588 63.269C195.41 63.1415 197.84 66.6322 197.84 66.6322L199.809 70.1228C199.809 70.1228 203.696 69.6068 204.99 72.5511V74.6212C204.99 74.6212 207.839 74.2327 209.006 77.6019L209.783 80.5765C209.783 80.5765 213.148 84.9717 213.276 86.7868" fill="#FFBF9D"/>
<path d="M213.288 86.8184C213.288 86.8184 213.257 86.6544 213.178 86.357C213.037 85.9175 212.858 85.4909 212.644 85.0821C211.791 83.5317 210.816 82.0518 209.728 80.6566V80.6263C209.491 79.74 209.224 78.7322 208.938 77.6516C208.683 76.8501 208.214 76.1327 207.584 75.5755C206.87 74.9802 205.953 74.6862 205.026 74.7559H204.905V74.6345C204.905 73.9971 204.905 73.2929 204.905 72.5644V72.613C204.511 71.7292 203.794 71.0297 202.9 70.6582C201.937 70.272 200.894 70.1281 199.863 70.2394H199.778L199.735 70.1665L197.755 66.6759C197.326 66.0802 196.855 65.5162 196.346 64.9882C195.84 64.4384 195.249 63.9732 194.596 63.6102C194.272 63.4428 193.909 63.3653 193.545 63.3856C193.162 63.3856 192.78 63.4766 192.391 63.5373C191.608 63.6845 190.837 63.8873 190.083 64.1444C188.522 64.6434 187.062 65.414 185.77 66.4209C185.098 66.8957 184.613 67.5889 184.397 68.3817C184.333 68.7851 184.36 69.1974 184.476 69.589C184.592 69.9806 184.793 70.3417 185.065 70.6461H185.095V70.7007C185.142 70.7933 185.21 70.8739 185.293 70.936C185.377 70.9981 185.473 71.0402 185.575 71.0589C185.817 71.1231 186.067 71.1498 186.316 71.1378C186.842 71.1228 187.36 71.0053 187.841 70.7918C188.839 70.3221 189.762 69.7085 190.581 68.9706L190.787 68.7824L190.83 68.746H190.878L194.523 68.3575H194.602L194.657 68.4182L196.012 69.9298L196.194 70.1301L195.926 70.1908L191.219 71.2289C189.73 71.6822 188.266 72.2131 186.833 72.8194C186.128 73.1108 185.442 73.4265 184.773 73.7603C184.111 74.0629 183.497 74.4618 182.951 74.9441C182.722 75.1816 182.588 75.4948 182.574 75.8244C182.578 76.1597 182.675 76.4875 182.854 76.7714C183.229 77.3476 183.712 77.8463 184.275 78.2405L184.336 78.283V78.368C184.336 78.6654 184.336 78.9751 184.366 79.2604C184.396 79.5525 184.462 79.8399 184.561 80.1163C184.732 80.6585 185.095 81.1201 185.581 81.4155C186.58 81.912 187.726 82.0223 188.801 81.7251L188.922 81.719V81.8586C188.982 82.3413 189.141 82.8064 189.39 83.2243C189.639 83.6423 189.972 84.0041 190.368 84.2869C191.118 84.8246 191.96 85.2216 192.853 85.4585C194.453 85.8978 196.107 86.1143 197.767 86.102H197.858V86.187C198.132 88.5121 198.362 90.4365 198.551 92.0573V92.0088L202.013 94.5706L202.9 95.2384L203.192 95.4751L202.876 95.2687L201.971 94.6313L198.472 92.118V92.0816C198.265 90.479 198.022 88.5424 197.725 86.2234L197.828 86.3084C196.145 86.3391 194.467 86.1348 192.841 85.7014C191.919 85.4563 191.05 85.0448 190.277 84.4872C189.853 84.1896 189.496 83.8071 189.228 83.3639C188.96 82.9207 188.788 82.4267 188.722 81.9133L188.88 82.0225C188.319 82.1575 187.742 82.2107 187.167 82.1804C186.565 82.1572 185.978 81.9907 185.454 81.6947C184.913 81.3671 184.508 80.8566 184.312 80.256C184.205 79.96 184.133 79.6522 184.099 79.3393C184.063 79.0297 184.099 78.7322 184.069 78.3983L184.129 78.5258C183.527 78.1123 183.015 77.5817 182.623 76.9657C182.415 76.6361 182.302 76.2562 182.295 75.8669C182.308 75.4617 182.473 75.0761 182.757 74.7863C183.322 74.2816 183.959 73.8623 184.646 73.5418C185.32 73.1958 186.013 72.8801 186.723 72.5887C188.163 71.9773 189.633 71.4403 191.127 70.98L195.872 69.9298L195.787 70.1908L194.39 68.6792L194.523 68.7338L190.878 69.1224L190.97 69.0799L190.751 69.2741C189.908 70.0285 188.958 70.6544 187.932 71.1317C187.415 71.3599 186.857 71.4837 186.292 71.496C186.008 71.5108 185.722 71.4801 185.448 71.4049C185.288 71.3736 185.14 71.301 185.017 71.1945C184.895 71.088 184.802 70.9512 184.749 70.7979L184.792 70.8829C184.489 70.5441 184.267 70.1419 184.141 69.7059C184.015 69.2699 183.988 68.8112 184.063 68.3635C184.165 67.9251 184.355 67.512 184.622 67.1494C184.767 66.9794 184.901 66.8094 185.059 66.6516C185.217 66.4938 185.375 66.3541 185.545 66.2206C186.869 65.1946 188.364 64.4097 189.961 63.9016C190.729 63.6438 191.515 63.4409 192.312 63.2945C192.707 63.2338 193.096 63.1731 193.497 63.1428C193.917 63.118 194.337 63.206 194.712 63.3977C195.391 63.7781 196.006 64.2637 196.534 64.8365C197.052 65.379 197.531 65.9571 197.968 66.5666L199.93 70.0694L199.802 70.0026C200.883 69.8858 201.975 70.0424 202.979 70.4579C203.931 70.854 204.693 71.6022 205.105 72.5462V72.613C205.105 73.3415 205.105 74.0457 205.105 74.6831L204.984 74.5738C205.971 74.5051 206.946 74.8255 207.699 75.4662C208.349 76.0516 208.832 76.7997 209.096 77.6334C209.376 78.714 209.631 79.7217 209.862 80.6081C210.942 82.0191 211.899 83.52 212.723 85.0943C212.932 85.5105 213.1 85.9455 213.227 86.3934C213.259 86.5331 213.28 86.6752 213.288 86.8184Z" fill="#FF9A6C"/>
<path d="M204.96 89.1964C204.923 89.2268 204.613 88.9111 204.036 88.4922C203.287 87.9581 202.47 87.5254 201.606 87.2053C200.734 86.874 199.841 86.6002 198.933 86.3857C198.235 86.2582 197.785 86.2704 197.779 86.2157C198.166 86.1115 198.57 86.095 198.964 86.1672C199.904 86.3183 200.826 86.5665 201.716 86.9078C202.618 87.2324 203.458 87.7087 204.2 88.3162C204.516 88.5488 204.776 88.8497 204.96 89.1964Z" fill="#FF9A6C"/>
<path d="M206.332 80.679C206.102 80.7378 205.865 80.7663 205.628 80.764L203.708 80.8733C202.086 80.9522 199.845 81.0372 197.372 81.1161L193.879 81.2072C192.935 81.2083 191.992 81.263 191.055 81.3711C190.422 81.4389 189.796 81.5608 189.184 81.7353C188.758 81.8689 188.534 81.9842 188.521 81.9599C188.7 81.8078 188.906 81.6922 189.129 81.62C189.734 81.3964 190.361 81.2377 191 81.1465C191.946 81.0106 192.899 80.9335 193.855 80.9158L197.348 80.7944C199.82 80.7215 202.062 80.673 203.684 80.6487H205.603C205.847 80.6347 206.091 80.6448 206.332 80.679Z" fill="#FF9A6C"/>
<path d="M202.433 75.2354C202.203 75.3134 201.964 75.3624 201.722 75.3811L199.772 75.6725C198.12 75.9153 195.848 76.2796 193.351 76.7349C190.854 77.1902 188.601 77.6758 186.973 78.034L185.047 78.4589C184.813 78.524 184.573 78.5646 184.33 78.5803C184.547 78.4698 184.778 78.3882 185.017 78.3375C185.46 78.204 186.116 78.0279 186.924 77.8154C188.54 77.4026 190.787 76.8866 193.29 76.4192C195.793 75.9517 198.083 75.6361 199.741 75.4539C200.568 75.3568 201.242 75.29 201.71 75.2597C201.949 75.2262 202.191 75.2181 202.433 75.2354Z" fill="#FF9A6C"/>
<path d="M194.742 66.3047C194.821 66.3047 195.046 66.7843 195.01 67.4581C194.973 68.132 194.706 68.6176 194.627 68.5812C194.548 68.5448 194.669 68.053 194.694 67.4399C194.718 66.8268 194.651 66.329 194.742 66.3047Z" fill="#FF9A6C"/>
<path d="M136.99 107.263C142.147 114.062 155.512 133.75 160.979 140.792C162.127 142.279 165.474 141.733 166.95 140.567C170.461 137.811 176.609 133.015 180.278 130.38C180.647 130.117 180.959 129.781 181.195 129.395C181.431 129.008 181.586 128.577 181.652 128.129C181.718 127.681 181.692 127.224 181.577 126.786C181.462 126.347 181.26 125.937 180.983 125.578L154.904 91.7345C154.619 91.3641 154.26 91.0569 153.849 90.8325C153.439 90.608 152.987 90.4712 152.521 90.4307C152.054 90.3902 151.585 90.4468 151.142 90.5971C150.699 90.7473 150.292 90.9879 149.947 91.3035L137.421 102.735C136.799 103.301 136.409 104.078 136.33 104.916C136.25 105.753 136.485 106.59 136.99 107.263Z" fill="#455A64"/>
<path d="M156.666 210.016L153.689 202.027L157.128 150.031C157.128 150.031 150.287 137.568 149.522 134.806C148.757 132.044 148.568 124.122 148.568 124.122L153.361 129.676C153.361 129.676 153.495 120.127 153.495 116.928C153.495 116.928 154.175 104.926 154.291 103.257C154.406 101.587 156.113 100.701 157.188 100.701C158.264 100.701 159.333 102.68 159.333 102.68L160.797 122.319C160.797 122.319 163.227 111.999 164.126 110.621C165.025 109.243 168.202 108.599 170.334 108.751H170.395C170.753 108.801 171.088 108.957 171.357 109.198C171.626 109.439 171.818 109.755 171.907 110.105C171.996 110.455 171.979 110.824 171.858 111.164C171.737 111.505 171.517 111.802 171.227 112.017L168.414 113.984L167.351 123.836C167.351 123.836 169.939 115.338 171.312 114.239C172.685 113.14 175.121 114.239 175.564 115.453C176.008 116.667 174.349 119.095 174.349 119.095L173.888 125.166C173.888 125.166 175.71 122.58 176.615 121.208C177.52 119.836 179.835 121.208 180.114 121.815C180.394 122.422 178.474 129.069 178.474 129.069L175.728 151.124L176.597 182.88" fill="#FFBF9D"/>
<path d="M176.597 182.849C176.597 182.849 176.597 182.667 176.597 182.303C176.597 181.939 176.566 181.393 176.536 180.688C176.493 179.262 176.426 177.161 176.341 174.436C176.183 168.972 175.953 161.044 175.661 151.1C176.463 144.58 177.38 137.18 178.383 129.045C178.741 127.831 179.087 126.568 179.409 125.293C179.573 124.656 179.731 124.013 179.865 123.363C179.932 123.035 179.992 122.707 180.035 122.38C180.053 122.236 180.053 122.092 180.035 121.949C179.953 121.821 179.853 121.706 179.737 121.609C179.232 121.184 178.613 120.918 177.957 120.844C177.643 120.805 177.325 120.883 177.064 121.062C176.822 121.285 176.617 121.546 176.457 121.833L174.027 125.324L173.741 125.743L173.778 125.239C173.918 123.351 174.076 121.263 174.234 119.168V119.132V119.101C174.66 118.466 175.013 117.783 175.284 117.068C175.42 116.719 175.492 116.349 175.497 115.975C175.483 115.612 175.326 115.269 175.06 115.022C174.514 114.481 173.805 114.135 173.043 114.038C172.673 113.962 172.288 113.994 171.936 114.131C171.583 114.268 171.278 114.503 171.056 114.809C170.625 115.487 170.257 116.202 169.957 116.946C169.647 117.693 169.349 118.452 169.064 119.229C168.499 120.771 167.977 122.349 167.479 123.946L167.187 123.885C167.521 120.789 167.885 117.438 168.25 114.038V113.893L168.311 113.856L170.971 111.993C171.192 111.865 171.382 111.69 171.527 111.48C171.672 111.27 171.769 111.03 171.81 110.779C171.847 110.529 171.829 110.275 171.757 110.033C171.684 109.792 171.559 109.57 171.391 109.382C171.213 109.2 170.997 109.059 170.759 108.969C170.521 108.879 170.266 108.842 170.012 108.86C169.468 108.845 168.924 108.869 168.384 108.933C167.293 109.043 166.232 109.347 165.249 109.831C164.77 110.061 164.376 110.438 164.125 110.906C163.888 111.408 163.685 111.925 163.518 112.454C163.178 113.516 162.868 114.603 162.576 115.696C161.989 117.881 161.434 120.091 160.912 122.325L160.675 123.314L160.596 122.301C160.402 119.654 160.189 116.837 159.988 113.953C159.701 110.153 159.419 106.389 159.144 102.662V102.729C158.817 102.099 158.366 101.542 157.82 101.09C157.285 100.641 156.544 100.853 155.924 101.144C155.296 101.434 154.802 101.953 154.546 102.595C154.434 102.921 154.378 103.264 154.382 103.609L154.315 104.69C154.149 107.555 153.983 110.388 153.817 113.189C153.744 114.591 153.628 115.987 153.592 117.371C153.555 118.755 153.592 120.139 153.549 121.518C153.521 124.261 153.493 126.969 153.464 129.64V130.041L153.203 129.737L148.459 124.213L148.714 124.11C148.787 126.574 148.908 129.009 149.139 131.395C149.227 132.572 149.414 133.739 149.698 134.885C150.094 135.979 150.552 137.049 151.071 138.09C153.088 142.255 155.208 146.201 157.255 149.971V150.007C155.627 173.992 154.382 192.374 153.732 202.002C154.71 204.68 155.445 206.677 155.937 208.012C156.174 208.674 156.356 209.172 156.477 209.506C156.599 209.84 156.647 210.01 156.647 210.01L156.453 209.518L155.888 208.031C155.384 206.701 154.637 204.71 153.628 202.039C154.236 192.411 155.451 174.023 156.994 150.038V150.104C154.94 146.334 152.814 142.395 150.785 138.218C150.257 137.166 149.792 136.084 149.394 134.976C149.088 133.817 148.885 132.632 148.787 131.437C148.55 129.045 148.428 126.611 148.355 124.152V123.739L148.629 124.055L153.422 129.61L153.154 129.707C153.183 127.028 153.211 124.316 153.239 121.572C153.239 120.2 153.254 118.82 153.282 117.432C153.312 116.042 153.428 114.646 153.501 113.243C153.667 110.435 153.833 107.602 153.999 104.744L154.06 103.67C154.061 103.294 154.123 102.921 154.242 102.565C154.531 101.849 155.08 101.268 155.779 100.938C156.121 100.769 156.488 100.656 156.866 100.604C157.069 100.576 157.276 100.59 157.474 100.647C157.663 100.707 157.841 100.797 158.002 100.914C158.587 101.394 159.071 101.986 159.424 102.656V102.686V102.723C159.703 106.442 159.984 110.204 160.268 114.008C160.48 116.867 160.693 119.708 160.875 122.355H160.566C161.096 120.121 161.653 117.908 162.236 115.714C162.528 114.621 162.844 113.535 163.184 112.46C163.349 111.915 163.552 111.381 163.791 110.864C164.07 110.335 164.511 109.91 165.049 109.649C166.063 109.142 167.163 108.827 168.293 108.721C168.849 108.652 169.409 108.625 169.969 108.642C170.263 108.622 170.559 108.666 170.834 108.771C171.11 108.875 171.36 109.038 171.567 109.249C171.87 109.58 172.051 110.005 172.079 110.453C172.108 110.901 171.983 111.346 171.725 111.713C171.56 111.95 171.354 112.156 171.117 112.32L168.457 114.178L168.517 114.069C168.153 117.474 167.788 120.825 167.448 123.915L167.157 123.855C167.655 122.236 168.185 120.66 168.748 119.126C169.034 118.349 169.356 117.584 169.653 116.831C169.961 116.067 170.34 115.334 170.783 114.639C170.906 114.462 171.053 114.302 171.22 114.166C171.396 114.04 171.588 113.938 171.791 113.862C172.195 113.733 172.623 113.695 173.043 113.753C173.871 113.861 174.641 114.236 175.236 114.822C175.545 115.126 175.728 115.536 175.746 115.969C175.741 116.384 175.663 116.795 175.515 117.183C175.236 117.921 174.871 118.624 174.428 119.277V119.211C174.264 121.329 174.106 123.418 173.966 125.281L173.717 125.19L176.147 121.712L176.445 121.281C176.55 121.122 176.681 120.982 176.833 120.868C177.146 120.653 177.526 120.558 177.903 120.601C178.615 120.684 179.287 120.975 179.834 121.439C179.982 121.556 180.105 121.7 180.199 121.864C180.235 122.052 180.235 122.246 180.199 122.434C180.156 122.774 180.096 123.108 180.029 123.436C179.889 124.098 179.731 124.741 179.567 125.385C179.239 126.659 178.887 127.91 178.534 129.136C177.514 137.271 176.584 144.671 175.77 151.191C176.019 161.141 176.22 169.075 176.378 174.533C176.439 177.252 176.487 179.353 176.518 180.785C176.518 181.49 176.518 182.03 176.548 182.4C176.578 182.771 176.597 182.849 176.597 182.849Z" fill="#FF9A6C"/>
<path d="M153.69 140.793C153.573 140.08 153.514 139.359 153.513 138.637C153.447 137.302 153.38 135.462 153.325 133.423C153.27 131.383 153.234 129.544 153.222 128.208C153.188 127.487 153.206 126.765 153.276 126.047C153.384 126.76 153.441 127.48 153.447 128.202C153.513 129.538 153.58 131.377 153.641 133.417C153.702 135.456 153.732 137.296 153.738 138.631C153.772 139.352 153.756 140.074 153.69 140.793Z" fill="#FF9A6C"/>
<path d="M183.862 119.484C183.678 119.623 183.473 119.732 183.255 119.806C182.69 120.056 182.099 120.241 181.493 120.359C180.589 120.539 179.663 120.58 178.747 120.48C178.462 120.445 178.19 120.343 177.951 120.182C177.824 120.088 177.719 119.967 177.645 119.827C177.57 119.688 177.528 119.533 177.52 119.375C177.494 118.789 177.517 118.203 177.587 117.621C177.652 117.021 177.874 116.45 178.231 115.963C178.402 115.728 178.62 115.531 178.87 115.383C179.121 115.236 179.4 115.142 179.689 115.107C180.615 115.059 181.542 115.193 182.416 115.502C182.997 115.705 183.55 115.98 184.063 116.322C184.262 116.429 184.443 116.568 184.597 116.734C183.871 116.336 183.111 116.005 182.325 115.745C181.479 115.481 180.592 115.374 179.707 115.429C179.46 115.461 179.222 115.543 179.007 115.67C178.793 115.798 178.608 115.968 178.462 116.17C178.142 116.617 177.945 117.14 177.891 117.687C177.825 118.245 177.8 118.807 177.818 119.369C177.818 119.891 178.298 120.14 178.784 120.207C179.668 120.318 180.564 120.301 181.444 120.158C182.265 119.989 183.073 119.764 183.862 119.484Z" fill="#263238"/>
<path d="M253.545 132.712C252.999 132.784 252.445 132.784 251.899 132.712C249.243 132.533 246.657 131.79 244.312 130.533C243.814 130.299 243.35 129.999 242.933 129.641C243.439 129.84 243.932 130.071 244.409 130.333C245.585 130.891 246.804 131.356 248.054 131.723C249.31 132.082 250.594 132.338 251.893 132.488C252.447 132.53 252.999 132.605 253.545 132.712Z" fill="#FF9A6C"/>
</svg>
