<svg width="40" height="41" viewBox="0 0 40 41" fill="none" xmlns="http://www.w3.org/2000/svg">
<path d="M36.453 2.00781H3.5499C2.4229 2.00781 1.50928 2.92143 1.50928 4.04844V36.9516C1.50928 38.0786 2.4229 38.9922 3.5499 38.9922H36.453C37.58 38.9922 38.4937 38.0786 38.4937 36.9516V4.04844C38.4937 2.92143 37.58 2.00781 36.453 2.00781Z" fill="#3D5A98"/>
<path d="M27.0251 38.9911V24.6693H31.8313L32.5501 19.088H27.0251V15.5255C27.0251 13.9099 27.4751 12.8068 29.7907 12.8068H32.747V7.80677C31.3154 7.65785 29.8768 7.58691 28.4376 7.59427C24.1813 7.59427 21.2501 10.188 21.2501 14.9724V19.088H16.4438V24.6693H21.2501V38.9911H27.0251Z" fill="white"/>
</svg>
