<svg width="122" height="37" viewBox="0 0 122 37" fill="none" xmlns="http://www.w3.org/2000/svg">
<path fill-rule="evenodd" clip-rule="evenodd" d="M60.918 28.2288V20.0971H52.8717V28.2288H48.3794V8.07031H52.8717V16.1448H60.918V8.07031H65.4388V28.2288H60.918Z" fill="white"/>
<path fill-rule="evenodd" clip-rule="evenodd" d="M75.605 23.9631V20.0957H83.1098V16.1437H75.605V12.3064H83.8779V8.07031H75.4356C73.0469 8.07031 71.1118 10.0054 71.1118 12.3913V23.9056C71.1118 26.2912 73.0469 28.2265 75.4356 28.2265H83.9053V23.9631H75.605Z" fill="white"/>
<path fill-rule="evenodd" clip-rule="evenodd" d="M94.0708 23.936V8.07031H89.5776V23.9056C89.5776 26.2912 91.5127 28.2265 93.9017 28.2265H102.77V23.936H94.0708Z" fill="white"/>
<path fill-rule="evenodd" clip-rule="evenodd" d="M114.635 17.1117C116.341 17.1117 117.507 16.1166 117.507 14.5527C117.507 12.9325 116.341 11.9656 114.635 11.9656H112.019V17.1117H114.635ZM111.991 20.9785V28.2288H107.499V8.07031H115.09C119.184 8.07031 121.999 10.771 121.999 14.5243C121.999 18.3342 119.184 20.9785 115.09 20.9785H111.991Z" fill="white"/>
<path fill-rule="evenodd" clip-rule="evenodd" d="M8.06445 6.059V14.1223H14.1117V6.059H22.1751V0.0117188H14.1117C10.7735 0.0117188 8.06445 2.72079 8.06445 6.059Z" fill="#E26336"/>
<path fill-rule="evenodd" clip-rule="evenodd" d="M22.1743 8.07422V14.1218H30.2376V22.1851H36.2849V14.1218C36.2849 10.7836 33.5758 8.07422 30.2376 8.07422H22.1743Z" fill="#F6BF25"/>
<path fill-rule="evenodd" clip-rule="evenodd" d="M14.1118 30.2508V36.2984H22.1751C25.5133 36.2984 28.2227 33.5887 28.2227 30.2508V22.1875H22.1751V30.2508H14.1118Z" fill="#3BAD6B"/>
<path fill-rule="evenodd" clip-rule="evenodd" d="M0 14.1211V22.1844C0 25.5226 2.70936 28.232 6.04756 28.232H14.1109V22.1844H6.04756V14.1211H0Z" fill="#DA2750"/>
</svg>
