<svg width="409" height="410" viewBox="0 0 409 410" fill="none" xmlns="http://www.w3.org/2000/svg">
<path d="M354.701 90.7686C353.446 88.6746 352.138 86.6214 350.774 84.6091C332.59 57.8932 302.324 39.6191 272.909 31.3246C260.086 27.7584 246.882 25.7373 233.579 25.3041C146.945 22.1548 115.117 93.5826 87.2065 112.012C59.2964 130.442 16.4577 161.91 21.832 227.972C25.922 278.213 54.4947 326.263 106.699 348.12C112.597 350.595 118.65 352.685 124.818 354.377C137.311 357.759 150.144 359.732 163.076 360.259C202.545 362.017 234.594 352.496 265.94 328.545C273.228 322.974 280.475 316.692 289.931 316.005C296.811 315.506 303.322 317.968 296.14 324.618C287.698 332.422 297.441 347.776 318.872 337.109C354.676 319.293 369.4 280.847 376.337 241.755C384.852 193.763 380.729 134.098 354.701 90.7686Z" fill="#92E3A9"/>
<path opacity="0.7" d="M354.701 90.7686C353.446 88.6746 352.138 86.6214 350.774 84.6091C332.59 57.8932 302.324 39.6191 272.909 31.3246C260.086 27.7584 246.882 25.7373 233.579 25.3041C146.945 22.1548 115.117 93.5826 87.2065 112.012C59.2964 130.442 16.4577 161.91 21.832 227.972C25.922 278.213 54.4947 326.263 106.699 348.12C112.597 350.595 118.65 352.685 124.818 354.377C137.311 357.759 150.144 359.732 163.076 360.259C202.545 362.017 234.594 352.496 265.94 328.545C273.228 322.974 280.475 316.692 289.931 316.005C296.811 315.506 303.322 317.968 296.14 324.618C287.698 332.422 297.441 347.776 318.872 337.109C354.676 319.293 369.4 280.847 376.337 241.755C384.852 193.763 380.729 134.098 354.701 90.7686Z" fill="#AEDEBC"/>
<path d="M122.651 314.68C120.492 315.359 115.461 314.68 115.461 314.68C115.461 314.68 116.909 311.498 117.023 311.31C118.381 309.118 122.299 305.682 125.105 306.402C125.567 306.531 125.997 306.756 126.366 307.062C126.735 307.367 127.036 307.747 127.249 308.177C127.462 308.607 127.582 309.077 127.602 309.556C127.621 310.035 127.54 310.513 127.363 310.958C126.668 312.872 124.492 314.108 122.651 314.68Z" fill="#1D3C28"/>
<path d="M75.7954 313.27C75.7463 313.27 75.2473 309.827 75.2391 309.598C75.1655 307.021 76.5398 301.998 79.2637 301.033C79.7202 300.885 80.2028 300.835 80.6799 300.887C81.157 300.938 81.6179 301.09 82.0324 301.331C82.447 301.573 82.8059 301.899 83.0858 302.289C83.3656 302.679 83.56 303.123 83.6564 303.593C84.139 305.573 83.002 307.806 81.7913 309.319C80.3598 311.054 75.7954 313.27 75.7954 313.27Z" fill="#1D3C28"/>
<path d="M76.6711 350.401C78.3561 350.614 81.6936 349.665 82.6261 349.387C82.7815 350.826 82.9615 352.241 83.2151 353.632C83.3296 354.229 83.4114 354.851 83.5586 355.415C83.7059 355.98 83.8367 356.56 83.9676 357.125C84.2866 358.278 84.5729 359.35 84.9001 360.397C85.0556 360.945 85.2192 361.444 85.3828 361.967C84.9819 361.149 84.3275 359.841 84.2539 359.726C83.0106 357.828 79.5013 354.892 77.0555 355.562C76.6525 355.684 76.2796 355.889 75.961 356.165C75.6424 356.44 75.3853 356.779 75.2063 357.16C75.0274 357.541 74.9306 357.956 74.9222 358.377C74.9138 358.798 74.9941 359.216 75.1578 359.603C75.804 361.239 77.7508 362.319 79.3786 362.785C81.1701 363.301 85.1046 362.736 85.5954 362.663C86.0044 363.939 86.4135 365.182 86.8061 366.336C87.0679 367.096 87.3214 367.808 87.5668 368.503H89.2028C88.8756 367.685 88.5402 366.777 88.1885 365.828C87.8368 364.88 87.4196 363.693 87.0269 362.556C87.4687 362.368 90.8879 360.92 92.2621 359.587C93.3506 360.262 94.4788 360.872 95.6405 361.411C95.2642 362.704 94.9206 363.963 94.618 365.141C94.3153 366.319 94.0372 367.44 93.8 368.503H95.436C95.6405 367.546 95.8613 366.565 96.1067 365.501C96.3521 364.438 96.6466 363.293 96.9247 362.131C97.4074 362.221 101.326 362.949 103.133 362.507C104.769 362.106 106.765 361.133 107.469 359.489C107.644 359.11 107.738 358.698 107.745 358.28C107.752 357.862 107.672 357.448 107.509 357.063C107.347 356.678 107.106 356.331 106.802 356.044C106.497 355.758 106.137 355.538 105.743 355.399C103.289 354.638 99.6978 357.428 98.3808 359.276C98.299 359.399 97.4646 360.912 97.0556 361.681C97.2356 360.978 97.4237 360.282 97.6282 359.554C97.9145 358.507 98.2499 357.403 98.5771 356.34L99.1415 354.704C99.3215 354.131 99.5669 353.616 99.7796 353.068C100.107 352.25 100.483 351.432 100.859 350.614C101.906 350.965 105.007 351.963 106.643 351.824C108.279 351.685 110.438 351.006 111.387 349.501C111.623 349.151 111.784 348.756 111.857 348.34C111.931 347.925 111.916 347.498 111.815 347.089C111.713 346.679 111.526 346.296 111.266 345.963C111.007 345.63 110.68 345.356 110.307 345.158C108.025 344.037 104.025 346.254 102.446 347.881C102.389 347.931 102.095 348.307 101.743 348.765C102.135 347.947 102.561 347.194 102.945 346.417C104.14 344.209 105.399 342 106.708 339.775L107.526 338.384C108.409 338.687 111.763 339.791 113.473 339.644C115.183 339.497 117.268 338.826 118.217 337.321C118.454 336.972 118.614 336.577 118.687 336.162C118.761 335.747 118.746 335.321 118.644 334.913C118.543 334.504 118.356 334.121 118.096 333.789C117.837 333.457 117.51 333.183 117.138 332.986C114.855 331.865 110.855 334.074 109.277 335.701C109.219 335.759 108.859 336.217 108.459 336.724C109.137 335.505 109.8 334.27 110.422 333.051C111.495 330.934 112.427 328.748 113.211 326.507C113.522 326.622 117.424 328.004 119.322 327.832C121.015 327.685 123.117 327.014 124.074 325.509C124.31 325.16 124.47 324.764 124.543 324.349C124.616 323.934 124.601 323.508 124.498 323.099C124.395 322.69 124.208 322.307 123.947 321.975C123.687 321.644 123.359 321.37 122.986 321.174C120.712 320.053 116.704 322.262 115.125 323.89C115.011 324.004 113.743 325.648 113.309 326.254V326.18C114.03 323.966 114.547 321.69 114.855 319.382C115.148 317.327 115.317 315.257 115.362 313.182C115.428 311.251 115.362 309.493 115.305 307.93C115.264 307.112 115.207 306.294 115.15 305.591H115.191C115.191 305.591 116.254 302.703 116.295 302.515C116.794 300.307 116.459 295.742 114.275 294.442C113.906 294.238 113.498 294.113 113.078 294.077C112.658 294.041 112.236 294.094 111.838 294.232C111.439 294.37 111.075 294.591 110.767 294.879C110.46 295.167 110.217 295.517 110.054 295.906C109.301 297.542 109.898 299.652 110.7 301.149C111.502 302.646 114.324 304.912 115.027 305.46C115.076 306.213 115.117 307.014 115.142 307.914C115.142 309.476 115.191 311.235 115.084 313.157C115.084 313.665 115.011 314.213 114.97 314.744C114.847 313.836 114.667 312.585 114.634 312.47C114.062 310.278 111.657 306.376 109.129 306.237C108.704 306.224 108.282 306.301 107.889 306.463C107.496 306.625 107.142 306.869 106.851 307.179C106.559 307.488 106.337 307.856 106.198 308.257C106.059 308.659 106.007 309.086 106.045 309.509C106.127 311.301 107.641 312.912 109.039 313.869C110.438 314.826 114.111 315.562 114.904 315.701C114.798 316.879 114.659 318.09 114.446 319.341C114.103 321.616 113.555 323.856 112.81 326.033H112.671C112.671 325.215 112.598 323.391 112.581 323.243C112.246 320.994 110.291 316.855 107.788 316.438C107.37 316.38 106.945 316.411 106.54 316.529C106.135 316.646 105.76 316.848 105.438 317.12C105.116 317.393 104.855 317.73 104.672 318.11C104.49 318.489 104.389 318.904 104.377 319.325C104.254 321.117 105.587 322.875 106.831 323.988C108.311 325.256 112.442 326.442 112.598 326.499C111.788 328.639 110.84 330.724 109.759 332.74C108.941 334.237 108.123 335.726 107.223 337.207C107.223 336.609 107.15 334.254 107.125 334.082C106.798 331.84 104.843 327.701 102.34 327.284C101.928 327.235 101.51 327.272 101.112 327.393C100.715 327.513 100.347 327.715 100.031 327.985C99.7152 328.254 99.4586 328.586 99.2774 328.96C99.0962 329.333 98.9942 329.741 98.9779 330.155C98.8634 331.939 100.189 333.706 101.473 334.81C102.913 336.053 106.872 337.215 107.199 337.313C106.798 337.984 106.381 338.663 105.988 339.333C104.663 341.526 103.322 343.71 102.07 345.918C101.636 346.679 101.252 347.448 100.827 348.217C100.827 347.317 100.761 345.681 100.737 345.542C100.409 343.301 98.4544 339.162 95.9513 338.736C95.5333 338.679 95.1078 338.71 94.7024 338.827C94.2971 338.945 93.921 339.146 93.5986 339.419C93.2762 339.691 93.0146 340.028 92.8309 340.408C92.6472 340.788 92.5454 341.202 92.5321 341.624C92.4176 343.415 93.7427 345.174 94.9861 346.286C96.2295 347.399 99.5751 348.438 100.508 348.74C99.845 350.025 99.2151 351.309 98.6589 352.601C98.4217 353.166 98.1518 353.73 97.9636 354.286C97.7755 354.843 97.5628 355.391 97.3583 355.922C96.9902 357.059 96.6385 358.115 96.3194 359.194C96.1558 359.734 96.0168 360.241 95.8614 360.773C95.9841 359.857 96.1558 358.409 96.1558 358.278C96.1558 356.004 94.8634 351.62 92.4503 350.826C92.0464 350.706 91.6217 350.671 91.2037 350.726C90.7857 350.78 90.3839 350.922 90.0243 351.142C89.6647 351.361 89.3554 351.655 89.1167 352.002C88.8779 352.349 88.7149 352.743 88.6384 353.158C88.591 353.375 88.5637 353.597 88.5566 353.82C87.4635 355.489 86.8132 357.409 86.667 359.399C86.667 359.538 86.7979 361.264 86.8879 362.139C86.6507 361.452 86.4216 360.765 86.1926 360.045C85.849 359.014 85.53 357.91 85.211 356.839L84.7693 355.145C84.6057 354.573 84.5157 354 84.393 353.428C84.2212 352.61 84.0821 351.685 83.9513 350.802C85.0228 350.524 88.164 349.64 89.4482 348.626C90.7325 347.612 92.164 345.861 92.1231 344.07C92.1271 343.65 92.0431 343.235 91.8767 342.85C91.7103 342.465 91.465 342.119 91.1567 341.835C90.8484 341.55 90.484 341.333 90.0869 341.199C89.6898 341.064 89.2688 341.013 88.8511 341.051C86.3317 341.362 84.213 345.419 83.7877 347.652C83.7877 347.726 83.7386 348.201 83.6977 348.773C83.5913 347.906 83.485 347.039 83.4032 346.155C83.1823 343.652 83.0351 341.1 82.8797 338.54C82.8797 338.008 82.8061 337.468 82.7733 336.904C83.6731 336.675 87.0842 335.751 88.4257 334.679C89.7672 333.607 91.1497 331.914 91.1088 330.123C91.1115 329.704 91.0267 329.289 90.8598 328.904C90.693 328.52 90.4477 328.175 90.1397 327.891C89.8317 327.606 89.4678 327.39 89.0712 327.254C88.6747 327.119 88.2542 327.068 87.8368 327.104C85.3173 327.423 83.1987 331.481 82.7733 333.706C82.7733 333.787 82.7161 334.36 82.667 335.006C82.5607 333.616 82.438 332.225 82.2744 330.859C81.997 328.507 81.5653 326.176 80.9819 323.881C81.3009 323.8 85.3173 322.793 86.8061 321.607C88.1313 320.552 89.53 318.842 89.4891 317.051C89.4919 316.632 89.4071 316.217 89.2402 315.833C89.0733 315.448 88.828 315.103 88.5201 314.819C88.2121 314.535 87.8481 314.318 87.4516 314.183C87.055 314.047 86.6346 313.996 86.2171 314.033C83.6977 314.352 81.5791 318.409 81.1537 320.634C81.1537 320.797 80.9737 322.867 80.941 323.611C80.9448 323.584 80.9448 323.557 80.941 323.53C80.323 321.278 79.5016 319.088 78.487 316.986C77.5919 315.111 76.5895 313.289 75.485 311.53C74.4706 309.894 73.4481 308.446 72.532 307.178C72.033 306.491 71.5667 305.877 71.1168 305.313H71.1659C71.1659 305.313 70.4543 302.327 70.3479 302.147C69.5299 300.028 66.7487 296.421 64.2129 296.527C63.7923 296.56 63.3833 296.682 63.0125 296.883C62.6417 297.084 62.3173 297.361 62.0605 297.696C61.8036 298.031 61.62 298.416 61.5216 298.826C61.4231 299.236 61.412 299.663 61.489 300.078C61.7589 301.844 63.4358 303.284 64.9246 304.094C66.4133 304.904 70.0289 305.231 70.9123 305.296C71.3704 305.902 71.8449 306.548 72.352 307.276C73.2355 308.56 74.2252 310.016 75.1987 311.669C75.4522 312.11 75.714 312.601 75.9758 313.067C75.3704 312.372 74.5361 311.431 74.4379 311.35C72.7528 309.836 68.5974 307.906 66.4133 309.19C66.0532 309.41 65.7434 309.704 65.504 310.051C65.2647 310.399 65.1011 310.793 65.024 311.208C64.9468 311.623 64.9578 312.05 65.0563 312.46C65.1547 312.871 65.3384 313.256 65.5953 313.591C66.6506 315.039 68.8019 315.546 70.5033 315.579C72.2048 315.611 75.6649 314.188 76.4093 313.877C76.9737 314.916 77.5218 315.996 78.0453 317.149C79.0028 319.258 79.7694 321.448 80.3357 323.693L80.2048 323.75C79.7222 323.047 78.6833 321.583 78.5688 321.476C77.0555 319.783 73.1455 317.386 70.8224 318.442C70.4426 318.625 70.1055 318.886 69.8331 319.208C69.5606 319.53 69.3589 319.905 69.2409 320.31C69.1229 320.715 69.0913 321.14 69.1481 321.558C69.205 321.976 69.349 322.377 69.5708 322.736C70.4543 324.29 72.5402 325.035 74.2171 325.247C76.1557 325.493 80.2539 324.209 80.4093 324.159C80.9287 326.404 81.3003 328.68 81.5218 330.973C81.6854 332.667 81.7836 334.376 81.8654 336.102C81.5463 335.595 80.1803 333.648 80.0658 333.55C78.5525 331.857 74.6424 329.46 72.3193 330.515C71.9395 330.699 71.6025 330.96 71.33 331.282C71.0576 331.604 70.8558 331.979 70.7378 332.384C70.6198 332.789 70.5882 333.214 70.6451 333.632C70.7019 334.05 70.8459 334.451 71.0678 334.81C71.9512 336.364 74.0371 337.108 75.714 337.321C77.6036 337.567 81.5463 336.348 81.8735 336.241C81.8735 337.059 81.9553 337.804 81.9799 338.589C82.0862 341.149 82.1762 343.718 82.3398 346.245C82.3971 347.129 82.487 347.988 82.577 348.855C82.0699 348.111 81.121 346.777 81.0228 346.671C79.5095 344.978 75.5995 342.581 73.2764 343.644C72.8959 343.826 72.5581 344.085 72.2849 344.407C72.0118 344.728 71.8096 345.103 71.6914 345.507C71.5733 345.912 71.5419 346.337 71.5994 346.755C71.6568 347.172 71.8018 347.573 72.0248 347.931C72.9083 349.444 74.9942 350.188 76.6711 350.401Z" fill="#1D3C28"/>
<path d="M245.122 107.477C242.941 106.331 240.901 104.259 239.003 101.26C237.032 98.0701 236.034 94.3743 236.132 90.6258C236.132 86.6775 237.185 83.7136 239.29 81.7341C241.395 79.7545 244.487 78.2549 248.566 77.2351L263.478 73.6277C269.858 71.9917 273.046 68.9324 273.04 64.4498C273.04 62.0285 271.862 59.9235 269.507 58.1348C267.151 56.3461 263.102 55.4545 257.359 55.4599C252.381 55.427 247.423 56.1018 242.635 57.464C238.739 58.506 235.006 60.0835 231.543 62.1512C229.358 60.4797 227.481 58.4395 225.997 56.1225C224.413 53.5707 223.613 50.6095 223.699 47.6071C223.659 44.4769 224.676 41.4247 226.586 38.9445C228.703 36.2994 231.424 34.2011 234.521 32.8259C238.355 31.0961 242.409 29.9042 246.57 29.2839C251.662 28.4883 256.811 28.1053 261.965 28.1387C276.999 28.1169 288.383 31.4462 296.116 38.1265C303.849 44.8068 307.704 53.5731 307.683 64.4252C307.683 84.8261 293.275 97.8951 264.459 103.632L245.122 107.477ZM238.807 132.532C238.807 127.308 240.443 123.005 243.715 119.624C246.987 116.243 251.483 114.552 257.204 114.552C262.935 114.552 267.429 116.243 270.684 119.624C273.94 123.005 275.576 127.308 275.592 132.532C275.592 137.767 273.956 142.07 270.684 145.44C267.412 148.81 262.919 150.501 257.204 150.512C251.461 150.512 246.965 148.821 243.715 145.44C240.465 142.059 238.829 137.756 238.807 132.532Z" fill="#1D3C28"/>
<path d="M257.171 150.922C251.347 150.922 246.708 149.171 243.387 145.727C240.066 142.284 238.398 137.85 238.398 132.533C238.398 127.216 240.074 122.782 243.387 119.339C246.7 115.895 251.347 114.144 257.171 114.144C262.995 114.144 267.633 115.895 270.946 119.339C274.259 122.782 275.936 127.224 275.936 132.533C275.936 137.842 274.259 142.292 270.946 145.727C267.633 149.163 262.995 150.922 257.171 150.922ZM257.171 114.93C251.576 114.93 247.134 116.566 243.976 119.838C240.819 123.11 239.216 127.371 239.216 132.459C239.216 137.547 240.852 141.801 243.976 145.089C247.101 148.378 251.576 149.997 257.171 149.997C262.766 149.997 267.199 148.361 270.357 145.089C273.514 141.817 275.118 137.555 275.118 132.459C275.118 127.363 273.522 123.2 270.357 119.928C267.191 116.656 262.766 114.962 257.171 114.962V114.93ZM245.122 107.854C245.053 107.853 244.986 107.836 244.925 107.805C242.708 106.635 240.598 104.533 238.651 101.449C236.653 98.1961 235.636 94.4354 235.723 90.6186C235.723 86.5695 236.827 83.4775 238.995 81.4243C241.162 79.3711 244.328 77.866 248.459 76.8353L263.396 73.228C269.612 71.592 272.639 68.7371 272.639 64.4508C272.639 62.1768 271.51 60.1563 269.269 58.4631C267.028 56.7698 262.987 55.87 257.367 55.87C252.428 55.8401 247.509 56.5093 242.757 57.8577C238.901 58.8937 235.204 60.4543 231.772 62.4958C231.701 62.5419 231.619 62.5665 231.535 62.5665C231.45 62.5665 231.368 62.5419 231.297 62.4958C229.08 60.7929 227.174 58.7202 225.661 56.369C224.038 53.7445 223.222 50.7009 223.314 47.6164C223.262 44.3859 224.302 41.2326 226.267 38.6675C228.416 35.9647 231.182 33.8161 234.332 32.4016C238.2 30.6572 242.291 29.4543 246.488 28.8269C251.602 28.0288 256.772 27.6431 261.948 27.6735C277.024 27.6735 288.598 31.0846 296.361 37.8167C304.124 44.5489 308.067 53.5142 308.067 64.4263C308.067 84.9499 293.416 98.2751 264.516 104.034L245.195 107.854H245.122ZM257.392 55.0193C263.191 55.0193 267.363 55.9436 269.784 57.7759C272.206 59.6083 273.482 61.8659 273.482 64.4181C273.482 69.0643 270.169 72.2873 263.616 73.9887L248.672 77.6615C244.68 78.6595 241.612 80.1155 239.575 82.0542C237.539 83.9928 236.549 86.8313 236.549 90.6514C236.46 94.3152 237.435 97.9264 239.355 101.048C241.179 103.911 243.142 105.956 245.195 107.052L264.369 103.257C292.827 97.588 307.257 84.5327 307.257 64.4508C307.257 53.8168 303.412 45.0397 295.805 38.4548C288.197 31.8699 276.803 28.5161 261.931 28.5161C256.799 28.4829 251.673 28.8659 246.602 29.6613C242.48 30.2753 238.461 31.4534 234.659 33.1623C231.624 34.5143 228.957 36.573 226.88 39.1664C225.037 41.5924 224.068 44.5703 224.132 47.6164C224.049 50.5375 224.825 53.4187 226.365 55.9027C227.775 58.09 229.542 60.0255 231.592 61.6287C235.024 59.6239 238.707 58.0835 242.545 57.0479C247.364 55.6868 252.351 55.0149 257.359 55.052L257.392 55.0193Z" fill="#1E2028"/>
<path d="M177.579 237.652L179.199 368.647H243.273L238.005 239.272L177.579 237.652Z" fill="#1E2028"/>
<path d="M243.273 369.055H179.199C179.091 369.055 178.987 369.012 178.91 368.935C178.833 368.859 178.79 368.755 178.79 368.646L177.154 237.652C177.158 237.542 177.201 237.437 177.277 237.357C177.317 237.318 177.364 237.288 177.416 237.268C177.468 237.248 177.524 237.24 177.58 237.243L238.005 238.879C238.109 238.883 238.207 238.925 238.282 238.998C238.356 239.07 238.4 239.168 238.406 239.271L243.682 368.597C243.686 368.652 243.677 368.706 243.657 368.757C243.638 368.808 243.607 368.854 243.568 368.892C243.534 368.939 243.49 368.978 243.439 369.007C243.388 369.035 243.331 369.052 243.273 369.055ZM179.6 368.237H242.848L237.613 239.672L177.989 238.036L179.6 368.237Z" fill="#1E2028"/>
<path d="M177.579 190.855L179.199 321.85H243.273L238.005 192.475L177.579 190.855Z" fill="white"/>
<path d="M243.273 322.259H179.199C179.091 322.259 178.987 322.216 178.91 322.139C178.833 322.062 178.79 321.958 178.79 321.85L177.154 190.863C177.155 190.753 177.199 190.647 177.277 190.569C177.315 190.527 177.362 190.494 177.414 190.473C177.467 190.452 177.523 190.442 177.58 190.446L238.005 192.082C238.109 192.082 238.208 192.122 238.283 192.194C238.358 192.265 238.402 192.363 238.406 192.467L243.674 321.841C243.678 321.897 243.669 321.953 243.649 322.005C243.63 322.057 243.599 322.105 243.56 322.144C243.482 322.217 243.38 322.258 243.273 322.259ZM179.6 321.441H242.848L237.613 192.876L177.989 191.24L179.6 321.441Z" fill="#1E2028"/>
<path d="M199.87 204.983L206.545 216.108L194.872 300.067L212.475 317.679L223.968 295.625L210.807 216.664L217.482 207.584L210.071 195.715L199.87 204.983Z" fill="#1E2028"/>
<path d="M212.475 318.085C212.422 318.086 212.368 318.076 212.319 318.054C212.27 318.033 212.225 318.002 212.189 317.963L194.577 300.359C194.533 300.313 194.5 300.258 194.48 300.197C194.46 300.136 194.454 300.071 194.463 300.008L206.136 216.187L199.543 205.193C199.492 205.113 199.471 205.017 199.484 204.922C199.498 204.828 199.545 204.741 199.616 204.678L209.809 195.41C209.855 195.372 209.908 195.343 209.966 195.326C210.024 195.309 210.084 195.305 210.144 195.312C210.203 195.32 210.259 195.341 210.308 195.374C210.358 195.406 210.399 195.449 210.43 195.5L217.841 207.361C217.887 207.429 217.911 207.508 217.911 207.59C217.911 207.672 217.887 207.751 217.841 207.819L211.297 216.76L224.426 295.55C224.441 295.639 224.427 295.731 224.385 295.811L212.933 317.897C212.903 317.954 212.86 318.003 212.807 318.04C212.755 318.077 212.694 318.101 212.631 318.11L212.475 318.085ZM195.297 299.926L212.361 316.989L223.535 295.55L210.397 216.727C210.381 216.618 210.407 216.506 210.471 216.416L217.015 207.557L210.005 196.351L200.41 205.062L206.954 215.893C207.001 215.975 207.021 216.069 207.011 216.163L195.297 299.926Z" fill="#1E2028"/>
<path d="M206.545 216.109L206.291 217.949L213.735 212.682L217.482 207.585L213.907 201.859L202.741 209.761L206.545 216.109Z" fill="#92E3A9"/>
<path d="M206.291 218.355C206.215 218.353 206.142 218.33 206.078 218.289C206.01 218.249 205.955 218.189 205.92 218.118C205.886 218.047 205.872 217.967 205.882 217.888L206.119 216.187L202.389 209.97C202.333 209.882 202.313 209.775 202.335 209.673C202.356 209.57 202.417 209.48 202.503 209.422L213.669 201.528C213.762 201.463 213.876 201.437 213.988 201.455C214.042 201.467 214.093 201.49 214.138 201.522C214.183 201.554 214.221 201.595 214.25 201.643L217.825 207.369C217.87 207.437 217.895 207.516 217.895 207.598C217.895 207.68 217.87 207.759 217.825 207.827L214.086 212.923C214.058 212.957 214.025 212.988 213.988 213.013L206.544 218.281C206.47 218.331 206.381 218.357 206.291 218.355ZM203.281 209.905L206.896 215.925C206.943 216.007 206.963 216.101 206.953 216.195L206.823 217.095L213.448 212.416L216.99 207.59L213.792 202.477L203.281 209.905Z" fill="#1E2028"/>
<path d="M202.684 243.892L214.013 235.875L212.418 226.305L204.328 232.023L202.684 243.892Z" fill="#92E3A9"/>
<path d="M202.684 244.261C202.609 244.263 202.535 244.243 202.471 244.204C202.404 244.163 202.35 244.103 202.315 244.032C202.28 243.961 202.266 243.882 202.275 243.803L203.911 231.934C203.919 231.878 203.938 231.825 203.968 231.777C203.997 231.729 204.037 231.688 204.083 231.656L212.165 225.93C212.221 225.89 212.287 225.865 212.355 225.858C212.424 225.85 212.494 225.861 212.557 225.889C212.621 225.916 212.676 225.959 212.719 226.013C212.762 226.068 212.791 226.132 212.803 226.2L214.398 235.77C214.41 235.846 214.401 235.923 214.372 235.994C214.343 236.064 214.295 236.126 214.234 236.171L202.921 244.261C202.844 244.284 202.761 244.284 202.684 244.261ZM204.713 232.228L203.216 242.977L213.563 235.615L212.124 226.944L204.713 232.228Z" fill="#1E2028"/>
<path d="M212.803 317.05L221.629 300.109L205.98 311.185L212.246 317.451L212.803 317.05Z" fill="#92E3A9"/>
<path d="M212.247 317.881C212.136 317.88 212.03 317.836 211.952 317.758L205.695 311.492C205.651 311.45 205.617 311.399 205.596 311.343C205.575 311.286 205.566 311.225 205.572 311.165C205.577 311.106 205.595 311.049 205.625 310.999C205.655 310.948 205.695 310.904 205.744 310.87L221.392 299.803C221.464 299.746 221.554 299.715 221.646 299.715C221.738 299.715 221.827 299.746 221.899 299.803C221.968 299.863 222.014 299.943 222.03 300.033C222.046 300.122 222.032 300.214 221.989 300.294L213.171 317.235C213.139 317.293 213.094 317.343 213.04 317.382L212.484 317.774C212.42 317.837 212.336 317.875 212.247 317.881ZM206.611 311.247L212.288 316.924L212.484 316.785L220.484 301.439L206.611 311.247Z" fill="#1E2028"/>
<path d="M215.902 247.23L200.72 257.971L199.076 269.832L217.498 256.801L215.902 247.23Z" fill="#92E3A9"/>
<path d="M199.077 270.242C199.002 270.243 198.928 270.223 198.864 270.184C198.795 270.143 198.739 270.082 198.704 270.01C198.669 269.937 198.657 269.855 198.668 269.775L200.304 257.914C200.32 257.804 200.379 257.704 200.468 257.636L215.65 246.904C215.706 246.863 215.772 246.836 215.841 246.827C215.911 246.819 215.981 246.828 216.046 246.854C216.111 246.88 216.168 246.923 216.212 246.977C216.255 247.032 216.284 247.097 216.296 247.166L217.883 256.736C217.899 256.812 217.892 256.891 217.863 256.962C217.834 257.034 217.784 257.095 217.719 257.137L199.298 270.168C199.233 270.213 199.156 270.238 199.077 270.242ZM201.106 258.168L199.592 268.957L217.04 256.614L215.593 247.943L201.106 258.168Z" fill="#1E2028"/>
<path d="M220.148 272.695L196.336 289.538L194.872 300.066L195.576 300.769L221.743 282.266L220.148 272.695Z" fill="#92E3A9"/>
<path d="M195.575 301.181C195.521 301.182 195.467 301.173 195.417 301.153C195.366 301.134 195.32 301.104 195.281 301.066L194.577 300.363C194.533 300.317 194.5 300.261 194.48 300.2C194.46 300.139 194.454 300.075 194.463 300.011L195.927 289.484C195.947 289.372 196.008 289.273 196.099 289.205L219.911 272.363C219.968 272.323 220.033 272.299 220.102 272.291C220.171 272.284 220.241 272.294 220.304 272.321C220.368 272.348 220.424 272.391 220.467 272.446C220.51 272.5 220.538 272.564 220.549 272.633L222.144 282.203C222.154 282.279 222.145 282.355 222.116 282.426C222.087 282.496 222.04 282.558 221.98 282.604L195.804 301.107C195.737 301.153 195.657 301.179 195.575 301.181ZM195.305 299.929L195.616 300.24L221.293 282.081L219.854 273.41L196.712 289.77L195.305 299.929Z" fill="#1E2028"/>
<path d="M209.325 199.609L193.015 217.221L187.452 194.423L189.194 187.438L209.325 199.609Z" fill="white"/>
<path d="M193.047 217.626H192.941C192.87 217.608 192.805 217.571 192.753 217.519C192.702 217.468 192.665 217.403 192.646 217.332L187.092 194.534C187.076 194.47 187.076 194.402 187.092 194.338L188.835 187.352C188.851 187.291 188.881 187.234 188.922 187.186C188.963 187.138 189.014 187.1 189.072 187.074C189.129 187.046 189.192 187.031 189.256 187.031C189.32 187.031 189.383 187.046 189.44 187.074L209.538 199.27C209.591 199.302 209.636 199.344 209.67 199.395C209.704 199.446 209.726 199.504 209.735 199.565C209.742 199.625 209.737 199.686 209.718 199.744C209.7 199.802 209.669 199.856 209.628 199.9L193.317 217.512C193.244 217.581 193.148 217.621 193.047 217.626ZM187.91 194.42L193.268 216.383L208.72 199.696L189.497 188.072L187.91 194.42Z" fill="#1E2028"/>
<path d="M209.326 199.606L221.743 215.916L227.674 193.495L225.637 188.301L209.326 199.606Z" fill="white"/>
<path d="M221.743 216.326C221.68 216.325 221.619 216.311 221.562 216.284C221.506 216.257 221.456 216.219 221.416 216.171L208.999 199.811C208.964 199.768 208.94 199.717 208.927 199.664C208.914 199.61 208.914 199.554 208.925 199.5C208.933 199.445 208.952 199.393 208.982 199.347C209.012 199.3 209.051 199.26 209.097 199.23L225.399 187.925C225.452 187.89 225.511 187.867 225.573 187.857C225.635 187.847 225.699 187.851 225.759 187.868C225.817 187.889 225.87 187.922 225.915 187.964C225.96 188.006 225.996 188.057 226.021 188.113L228.058 193.299C228.082 193.382 228.082 193.47 228.058 193.553L222.127 215.983C222.109 216.058 222.069 216.126 222.012 216.178C221.956 216.23 221.885 216.265 221.808 216.277L221.743 216.326ZM209.915 199.704L221.563 215.009L227.248 193.545L225.449 188.964L209.915 199.704Z" fill="#1E2028"/>
<path d="M92.9246 187.223C92.9246 187.223 87.3622 175.901 84.581 172.196C81.7998 168.49 79.0104 166.257 75.8611 165.701C72.7118 165.145 70.4787 165.333 68.0656 164.4C65.6525 163.468 60.8263 162.175 59.5339 160.507C58.2414 158.838 55.8201 159.95 56.9326 162.732C58.0451 165.513 61.947 167.37 61.947 167.37L65.0963 168.85C65.0963 168.85 54.8958 170.339 54.1514 170.895C53.407 171.452 44.499 172.196 44.499 172.196C44.499 172.196 48.4009 179.059 53.9633 182.216C59.5257 185.374 76.9736 182.773 76.9736 182.773L82.1679 193.718L92.9246 187.223Z" fill="white"/>
<path d="M82.1682 194.127H82.0455C81.9915 194.109 81.9418 194.08 81.8995 194.042C81.8573 194.004 81.8234 193.958 81.8001 193.906L76.7285 183.272C74.2745 183.616 59.0515 185.62 53.7673 182.626C48.164 179.395 44.3112 172.679 44.1721 172.393C44.1399 172.332 44.123 172.265 44.123 172.196C44.123 172.128 44.1399 172.06 44.1721 172C44.204 171.94 44.2508 171.888 44.3081 171.851C44.3654 171.814 44.4312 171.792 44.4993 171.787C48.7447 171.436 53.4401 170.879 53.9472 170.568C54.5934 170.078 60.4912 169.129 63.7632 168.646L61.8327 167.738C61.6691 167.665 57.7427 165.783 56.6221 162.887C55.9104 161.104 56.5239 159.975 57.2683 159.55C57.7195 159.322 58.2387 159.267 58.7274 159.397C59.2161 159.527 59.64 159.832 59.9186 160.253C60.8511 161.456 64.0086 162.544 66.3481 163.337C67.0679 163.583 67.7387 163.812 68.2786 164.016C69.7055 164.518 71.1946 164.82 72.704 164.916C73.7019 165.014 74.7408 165.121 75.9269 165.333C79.068 165.881 81.9146 168 84.9249 171.984C87.6979 175.681 93.1049 186.609 93.3094 187.076C93.3549 187.168 93.3642 187.273 93.3354 187.372C93.3066 187.47 93.2418 187.554 93.154 187.607L82.3973 194.102C82.324 194.129 82.2454 194.137 82.1682 194.127ZM76.9739 182.364C77.0508 182.363 77.1264 182.384 77.1916 182.424C77.2569 182.465 77.3091 182.524 77.342 182.593L82.34 193.129L92.4341 187.067C91.4852 185.162 86.7081 175.722 84.2541 172.442C81.3911 168.63 78.7081 166.617 75.7878 166.102C74.6263 165.898 73.6038 165.799 72.6222 165.701C71.0114 165.616 69.4202 165.308 67.8941 164.785C67.3624 164.581 66.708 164.352 65.9964 164.114C63.4442 163.239 60.2704 162.151 59.1824 160.761C59.0235 160.497 58.774 160.3 58.4805 160.206C58.1869 160.113 57.8694 160.13 57.5873 160.253C57.1211 160.523 56.7693 161.284 57.2928 162.577C58.3317 165.186 62.0536 166.986 62.0945 167.002L65.2438 168.483C65.3236 168.521 65.3893 168.584 65.4318 168.661C65.4744 168.739 65.4916 168.828 65.481 168.916C65.4663 169.003 65.4244 169.083 65.3611 169.145C65.2979 169.207 65.2167 169.247 65.1293 169.26C60.3113 169.963 54.9043 170.896 54.3644 171.223C53.6609 171.755 47.8204 172.319 45.1701 172.548C46.2253 174.184 49.6527 179.313 54.1681 181.857C59.5505 184.908 76.7367 182.389 76.9085 182.364H76.9739Z" fill="#1E2028"/>
<path d="M40.9894 170.366C40.9894 170.366 38.1264 164.272 38.3636 162.955C38.6008 161.638 41.1121 162.48 41.9464 164.272C42.7808 166.063 45.652 170.366 45.652 170.366H40.9894Z" fill="white"/>
<path d="M45.6521 170.773H40.9895C40.9122 170.771 40.8368 170.748 40.7718 170.707C40.7068 170.665 40.6547 170.606 40.6214 170.536C40.1306 169.497 37.7093 164.254 37.9629 162.879C38.0011 162.625 38.1247 162.39 38.3134 162.215C38.5021 162.04 38.7448 161.933 39.0017 161.914C39.7051 161.927 40.3905 162.139 40.9783 162.526C41.5661 162.912 42.0323 163.457 42.3228 164.098C43.1408 165.849 45.9629 170.102 45.9956 170.143C46.0346 170.206 46.0564 170.277 46.0588 170.351C46.0611 170.424 46.044 170.497 46.0091 170.562C45.9742 170.627 45.9228 170.681 45.8601 170.72C45.7974 170.758 45.7257 170.779 45.6521 170.781V170.773ZM41.2512 169.955H44.8914C43.6946 168.174 42.5888 166.334 41.5785 164.442C41.3619 163.961 41.0196 163.548 40.5877 163.245C40.1558 162.943 39.6502 162.763 39.1245 162.724C38.8627 162.724 38.8054 162.887 38.7809 163.027C38.6173 163.861 40.1715 167.616 41.2512 169.955Z" fill="#1E2028"/>
<path d="M35.9102 167.46C35.9102 167.46 40.3601 176.925 43.3294 179.518C46.2988 182.111 52.2374 182.307 52.2374 182.307C52.2374 182.307 45.1863 174.88 43.7057 172.098C42.2251 169.317 36.81 162.634 35.9102 167.46Z" fill="white"/>
<path d="M52.2372 182.716C51.9918 182.716 46.1185 182.495 43.0756 179.828C40.0326 177.161 35.7136 168.024 35.5582 167.632C35.5301 167.552 35.5301 167.466 35.5582 167.386C35.7872 166.168 36.3189 165.489 37.1287 165.366C39.4355 165.014 43.0101 169.84 44.1144 171.91C45.5541 174.609 52.5153 181.947 52.5807 182.02C52.6336 182.079 52.6686 182.152 52.6816 182.23C52.6946 182.308 52.6851 182.389 52.6542 182.462C52.6233 182.534 52.5723 182.597 52.5072 182.642C52.442 182.687 52.3654 182.713 52.2863 182.716H52.2372ZM36.3353 167.411C36.867 168.523 40.9079 176.859 43.5991 179.215C45.6932 181.047 49.4151 181.669 51.2147 181.816C49.366 179.836 44.5643 174.585 43.3373 172.294C42.1103 170.004 38.8302 165.922 37.2023 166.176C36.8097 166.241 36.507 166.65 36.3353 167.411Z" fill="#1E2028"/>
<path d="M39.4922 168.294C39.4922 168.294 43.9421 177.758 46.9114 180.36C49.8808 182.961 55.8195 183.141 55.8195 183.141C55.8195 183.141 48.7683 175.721 47.2877 172.932C45.8071 170.143 40.4165 163.476 39.4922 168.294Z" fill="white"/>
<path d="M55.8202 183.548C55.5748 183.548 49.7097 183.327 46.6586 180.661C43.6074 177.994 39.2966 168.857 39.1412 168.472C39.1131 168.39 39.1131 168.301 39.1412 168.219C39.3756 167.003 39.8992 166.332 40.7117 166.207C43.0267 165.847 46.5931 170.673 47.6974 172.751C49.1371 175.45 56.0983 182.787 56.1637 182.869C56.2199 182.926 56.2578 182.999 56.2723 183.078C56.2869 183.156 56.2776 183.238 56.2455 183.311C56.2084 183.39 56.1474 183.456 56.0711 183.498C55.9947 183.541 55.907 183.558 55.8202 183.548ZM39.9183 168.243C40.45 169.356 44.4909 177.691 47.1821 180.047C49.2844 181.879 52.9981 182.501 54.8059 182.648C52.949 180.669 48.1473 175.425 46.9285 173.127C45.7097 170.828 42.4132 166.771 40.7853 167.016C40.3763 167.074 40.0819 167.491 39.9183 168.243Z" fill="#1E2028"/>
<path d="M79.7545 177.948C79.7545 177.948 78.822 176.459 75.6645 174.422C72.507 172.386 55.8116 177.572 55.8116 177.572C55.8116 177.572 48.2042 168.116 47.0917 167.183C45.9793 166.251 43.9343 165.702 43.5662 167.559C43.1981 169.416 48.2042 177.375 49.5048 178.692C50.8055 180.009 55.8116 183.142 55.8116 183.142C58.8547 184.189 62.0586 184.69 65.2759 184.623C69.2176 184.339 73.1281 183.721 76.9651 182.774" fill="white"/>
<path d="M64.4914 185.048C61.4893 185.018 58.5117 184.505 55.6733 183.526L55.6242 183.485C55.4197 183.354 50.5608 180.295 49.252 178.978C48.0986 177.825 42.7653 169.628 43.1988 167.477C43.2386 167.154 43.3664 166.848 43.5684 166.593C43.7704 166.337 44.0387 166.142 44.344 166.029C44.8798 165.915 45.435 165.93 45.964 166.072C46.493 166.214 46.9807 166.48 47.387 166.847C48.434 167.722 54.8226 175.624 55.9923 177.08C58.6345 176.262 72.8268 172.05 75.9188 174.054C79.0109 176.058 80.0824 177.645 80.1233 177.702C80.153 177.747 80.1732 177.798 80.1827 177.852C80.1922 177.905 80.1908 177.96 80.1785 178.012C80.1663 178.065 80.1435 178.115 80.1115 178.158C80.0795 178.202 80.039 178.239 79.9925 178.267C79.9478 178.296 79.8976 178.316 79.8449 178.325C79.7922 178.335 79.7382 178.333 79.6861 178.321C79.634 178.309 79.585 178.286 79.542 178.254C79.499 178.222 79.463 178.182 79.4362 178.136C78.3302 176.765 76.9795 175.611 75.4526 174.733C72.9986 173.138 60.5322 176.5 55.9433 177.931C55.865 177.956 55.781 177.957 55.7022 177.934C55.6234 177.91 55.5535 177.864 55.5015 177.8C52.8839 174.528 47.6978 168.181 46.8389 167.469C46.5416 167.189 46.1846 166.981 45.795 166.859C45.4054 166.737 44.9932 166.705 44.5894 166.765C44.4229 166.834 44.278 166.946 44.17 167.09C44.062 167.234 43.9949 167.404 43.9759 167.583C43.6651 169.121 48.3849 176.925 49.8001 178.34C50.9944 179.534 55.5261 182.43 56.0005 182.716C58.9851 183.722 62.1196 184.209 65.2685 184.156C69.1861 183.888 73.0744 183.291 76.8922 182.373C77.0007 182.347 77.1151 182.365 77.2102 182.423C77.3053 182.482 77.3734 182.575 77.3994 182.684C77.4254 182.792 77.4073 182.907 77.349 183.002C77.2907 183.097 77.197 183.165 77.0886 183.191C73.2245 184.144 69.2868 184.767 65.3175 185.056C65.0231 185.048 64.7531 185.048 64.4914 185.048Z" fill="#1E2028"/>
<path d="M99.4035 196.933L92.7204 185.113L76.5322 194.88L80.6386 204.909L99.4035 196.933Z" fill="white"/>
<path d="M80.6381 205.318C80.5866 205.326 80.5342 205.326 80.4827 205.318C80.3832 205.276 80.3041 205.197 80.2618 205.098L76.1718 195.069C76.1364 194.978 76.1342 194.877 76.1656 194.784C76.197 194.691 76.26 194.613 76.3436 194.562L92.5318 184.795C92.5822 184.773 92.6365 184.762 92.6913 184.762C92.7462 184.762 92.8005 184.773 92.8508 184.795C92.9564 184.823 93.0472 184.89 93.1044 184.983L99.7957 196.738C99.8177 196.789 99.8291 196.845 99.8291 196.901C99.8291 196.957 99.8177 197.013 99.7957 197.065C99.7775 197.12 99.7476 197.17 99.7081 197.213C99.6685 197.255 99.6203 197.288 99.5666 197.31L80.8017 205.286C80.7492 205.305 80.694 205.316 80.6381 205.318ZM77.0389 195.053L80.859 204.37L98.855 196.738L92.6054 185.678L77.0389 195.053Z" fill="#1E2028"/>
<path d="M187.452 194.422L181.146 368.656H135.395L144.646 244.5C144.646 244.5 119.714 271.748 116.884 273.286C114.053 274.824 110.462 269.948 110.462 269.948L76.7852 203.878L96.8343 192.827L118.92 228.819L122.258 226.504L124.826 227.789C124.826 227.789 147.73 187.437 149.505 186.406C151.28 185.375 159.788 185.891 159.788 185.891L181.874 187.69L189.358 186.054L187.452 194.422Z" fill="#3BAD6B"/>
<path d="M181.146 369.056H135.395C135.339 369.056 135.283 369.044 135.231 369.022C135.178 368.999 135.132 368.966 135.093 368.925C135.051 368.882 135.018 368.831 134.997 368.774C134.976 368.718 134.967 368.658 134.97 368.598L144.132 245.62C139.78 250.364 119.665 272.205 117.064 273.62C113.964 275.313 110.266 270.348 110.111 270.16L76.4175 204.065C76.3705 203.969 76.3621 203.859 76.3941 203.757C76.4261 203.655 76.4959 203.569 76.5893 203.517L96.6385 192.466C96.7306 192.416 96.8381 192.403 96.9397 192.429C97.0412 192.454 97.1293 192.517 97.1866 192.605L119.06 228.229L122.054 226.16C122.116 226.124 122.186 226.105 122.258 226.105C122.33 226.105 122.401 226.124 122.463 226.16L124.688 227.272C127.788 221.808 147.526 187.1 149.326 186.078C151.125 185.055 158.954 185.456 159.837 185.505L181.923 187.305L189.342 185.669C189.409 185.653 189.479 185.654 189.544 185.673C189.61 185.691 189.67 185.727 189.719 185.775C189.767 185.825 189.802 185.886 189.821 185.954C189.839 186.021 189.841 186.092 189.825 186.159L187.895 194.478L181.596 368.655C181.594 368.711 181.581 368.767 181.557 368.818C181.533 368.869 181.499 368.914 181.457 368.952C181.415 368.989 181.365 369.018 181.312 369.036C181.259 369.053 181.202 369.06 181.146 369.056ZM135.837 368.238H180.778L187.068 194.405C187.065 194.378 187.065 194.35 187.068 194.323L188.86 186.593L182.013 188.082H181.89L159.804 186.282C157.49 186.143 151.15 185.947 149.759 186.74C148.385 187.673 134.34 211.91 125.219 227.976C125.168 228.067 125.083 228.135 124.982 228.165C124.882 228.196 124.773 228.186 124.68 228.139L122.324 226.961L119.183 229.137C119.137 229.17 119.085 229.192 119.03 229.204C118.975 229.215 118.918 229.215 118.864 229.203C118.809 229.191 118.758 229.168 118.713 229.135C118.668 229.103 118.63 229.062 118.602 229.014L96.6876 193.366L77.3337 204.041L110.823 269.751C110.823 269.751 114.209 274.274 116.688 272.916C118.88 271.722 135.739 253.62 144.344 244.213C144.402 244.15 144.478 244.106 144.562 244.089C144.645 244.071 144.732 244.08 144.811 244.115C144.888 244.15 144.954 244.208 144.997 244.281C145.041 244.354 145.062 244.439 145.056 244.524L135.837 368.238Z" fill="#1E2028"/>
<path d="M144.901 240.631L146.496 224.762L134.594 255.028L144.647 244.492L144.901 240.631Z" fill="#1E2028"/>
<path d="M134.593 255.437C134.514 255.436 134.438 255.414 134.372 255.371C134.292 255.321 134.232 255.244 134.203 255.155C134.173 255.065 134.175 254.968 134.208 254.88L146.118 224.614C146.155 224.523 146.222 224.447 146.309 224.401C146.396 224.354 146.497 224.34 146.593 224.361C146.689 224.384 146.774 224.442 146.832 224.523C146.889 224.604 146.914 224.704 146.904 224.802L145.268 240.672L145.014 244.516C145.007 244.612 144.966 244.701 144.9 244.77L134.887 255.306C134.85 255.347 134.805 255.38 134.754 255.403C134.703 255.425 134.648 255.437 134.593 255.437ZM145.791 227.625L135.738 253.261L144.245 244.336L144.491 240.631L145.791 227.625Z" fill="#1E2028"/>
<path d="M143.616 229.734C143.518 229.733 143.423 229.697 143.35 229.632C143.276 229.568 143.228 229.479 143.215 229.382C142.953 227.59 141.227 203.394 141.153 202.388C141.15 202.334 141.156 202.28 141.174 202.229C141.191 202.178 141.218 202.131 141.253 202.09C141.324 202.008 141.425 201.958 141.534 201.95C141.642 201.943 141.749 201.978 141.831 202.05C141.913 202.121 141.964 202.222 141.971 202.331C141.971 202.584 143.771 227.525 144.025 229.325C144.038 229.432 144.009 229.54 143.943 229.626C143.877 229.712 143.78 229.768 143.673 229.783L143.616 229.734Z" fill="#1E2028"/>
<path d="M141.563 238.986C141.465 238.988 141.37 238.954 141.295 238.891C141.22 238.828 141.17 238.74 141.154 238.643L138.332 220.647C138.323 220.594 138.324 220.54 138.336 220.488C138.348 220.436 138.37 220.386 138.402 220.343C138.433 220.299 138.473 220.263 138.518 220.235C138.564 220.207 138.615 220.188 138.668 220.181C138.776 220.164 138.887 220.191 138.975 220.255C139.064 220.319 139.124 220.416 139.142 220.524L141.964 238.52C141.974 238.573 141.972 238.627 141.96 238.679C141.948 238.731 141.926 238.781 141.895 238.824C141.864 238.867 141.824 238.904 141.778 238.932C141.733 238.96 141.682 238.978 141.629 238.986H141.563Z" fill="#1E2028"/>
<path d="M112.001 245.155C111.942 245.17 111.88 245.17 111.821 245.155C111.725 245.107 111.652 245.024 111.617 244.923C111.581 244.822 111.587 244.711 111.632 244.615L118.316 230.709C118.336 230.656 118.367 230.609 118.407 230.569C118.447 230.529 118.494 230.498 118.546 230.478C118.598 230.457 118.654 230.447 118.711 230.449C118.767 230.451 118.822 230.465 118.873 230.489C118.923 230.513 118.968 230.548 119.005 230.59C119.042 230.633 119.07 230.682 119.086 230.736C119.103 230.789 119.109 230.846 119.103 230.902C119.097 230.958 119.079 231.012 119.052 231.06L112.369 244.966C112.331 245.029 112.276 245.08 112.211 245.113C112.146 245.146 112.073 245.161 112.001 245.155Z" fill="#1E2028"/>
<path d="M119.198 240.785C119.136 240.784 119.075 240.77 119.018 240.744C118.922 240.695 118.849 240.61 118.814 240.508C118.779 240.406 118.784 240.294 118.83 240.196L124.229 229.398C124.252 229.35 124.285 229.307 124.326 229.271C124.366 229.236 124.414 229.209 124.465 229.192C124.516 229.175 124.57 229.169 124.624 229.173C124.677 229.178 124.729 229.193 124.777 229.218C124.825 229.242 124.869 229.275 124.904 229.315C124.94 229.355 124.967 229.402 124.985 229.453C125.002 229.504 125.01 229.558 125.006 229.612C125.003 229.665 124.989 229.718 124.965 229.766L119.566 240.556C119.533 240.625 119.48 240.683 119.415 240.723C119.35 240.764 119.275 240.785 119.198 240.785Z" fill="#1E2028"/>
<path d="M179.093 274.97C179.008 274.972 178.925 274.947 178.856 274.898C178.787 274.85 178.735 274.78 178.709 274.7C174.758 263.649 171.78 246.528 169.972 234.102C169.958 233.996 169.986 233.889 170.051 233.803C170.115 233.718 170.21 233.66 170.316 233.644C170.423 233.63 170.531 233.658 170.618 233.722C170.705 233.786 170.764 233.881 170.782 233.988C172.582 246.372 175.551 263.436 179.477 274.43C179.495 274.48 179.503 274.534 179.5 274.587C179.497 274.641 179.483 274.693 179.459 274.741C179.436 274.789 179.403 274.832 179.362 274.867C179.322 274.902 179.275 274.929 179.224 274.945C179.182 274.961 179.138 274.969 179.093 274.97Z" fill="#1E2028"/>
<path d="M169.571 228.637C169.473 228.636 169.377 228.601 169.302 228.536C169.227 228.472 169.178 228.383 169.162 228.285C168.672 224.555 168.402 222.191 168.402 222.175C168.394 222.098 168.407 222.021 168.44 221.952C168.474 221.883 168.525 221.824 168.59 221.782L177.98 215.672L166.43 213.79C166.358 213.78 166.291 213.75 166.234 213.704C166.178 213.658 166.136 213.597 166.111 213.529C166.087 213.46 166.081 213.386 166.094 213.314C166.106 213.243 166.138 213.175 166.185 213.12C166.185 213.12 168.77 210.011 171.297 206.216C173.825 202.42 182.005 189.856 182.087 189.774C182.147 189.682 182.241 189.618 182.348 189.595C182.455 189.572 182.567 189.592 182.659 189.651C182.749 189.711 182.811 189.804 182.833 189.91C182.854 190.016 182.833 190.125 182.774 190.216C182.692 190.346 174.52 202.862 171.976 206.674C170.054 209.553 168.115 212.032 167.256 213.095L179.142 215.042C179.224 215.055 179.299 215.092 179.359 215.149C179.419 215.206 179.46 215.28 179.477 215.361C179.493 215.442 179.484 215.525 179.452 215.601C179.42 215.676 179.366 215.741 179.297 215.786L169.228 222.33C169.31 223.026 169.555 225.152 169.956 228.179C169.97 228.286 169.941 228.395 169.875 228.481C169.809 228.567 169.711 228.623 169.604 228.637H169.571Z" fill="#1E2028"/>
<path d="M322.07 187.223C322.07 187.223 327.633 175.901 330.422 172.196C333.211 168.49 335.984 166.257 339.142 165.701C342.299 165.145 344.516 165.333 346.929 164.4C349.342 163.468 354.169 162.175 355.469 160.507C356.77 158.838 359.175 159.95 358.062 162.732C356.95 165.513 353.056 167.37 353.056 167.37L349.899 168.85C349.899 168.85 360.107 170.339 360.844 170.895C361.58 171.452 370.496 172.196 370.496 172.196C370.496 172.196 366.594 179.059 361.032 182.216C355.469 185.374 338.029 182.773 338.029 182.773L332.835 193.718L322.07 187.223Z" fill="white"/>
<path d="M332.827 194.129C332.755 194.127 332.685 194.107 332.622 194.072L321.858 187.577C321.771 187.523 321.708 187.439 321.679 187.341C321.65 187.243 321.658 187.138 321.702 187.045C321.931 186.579 327.322 175.651 330.095 171.953C333.081 167.97 335.935 165.851 339.093 165.303C340.279 165.09 341.318 164.984 342.316 164.886C343.846 164.807 345.357 164.516 346.807 164.019C347.355 163.814 348.017 163.585 348.737 163.34C351.06 162.522 354.234 161.458 355.167 160.256C355.444 159.833 355.868 159.527 356.357 159.397C356.846 159.267 357.366 159.322 357.817 159.552C358.561 159.978 359.183 161.107 358.471 162.89C357.31 165.786 353.416 167.667 353.252 167.741L351.322 168.649C354.528 169.131 360.459 170.08 361.138 170.571C361.637 170.882 366.332 171.438 370.578 171.79C370.646 171.794 370.712 171.816 370.77 171.853C370.828 171.891 370.875 171.942 370.907 172.003C370.939 172.064 370.955 172.132 370.953 172.2C370.951 172.269 370.932 172.336 370.897 172.395C370.741 172.681 366.88 179.397 361.285 182.571C356.001 185.565 340.737 183.561 338.316 183.217L333.252 193.851C333.227 193.903 333.192 193.95 333.148 193.988C333.105 194.026 333.054 194.054 332.999 194.072L332.827 194.129ZM322.602 187.07L332.655 193.131L337.653 182.595C337.692 182.516 337.755 182.452 337.833 182.411C337.911 182.369 337.999 182.354 338.087 182.366C338.258 182.366 355.453 184.91 360.827 181.859C365.318 179.315 368.753 174.227 369.825 172.55C367.199 172.321 361.334 171.732 360.623 171.225C360.099 170.89 354.684 169.966 349.866 169.262C349.779 169.25 349.698 169.21 349.636 169.148C349.574 169.086 349.534 169.005 349.522 168.918C349.509 168.831 349.523 168.742 349.565 168.664C349.606 168.585 349.671 168.523 349.751 168.485L352.901 167.004C352.942 167.004 356.672 165.18 357.71 162.579C358.226 161.287 357.874 160.526 357.416 160.256C357.129 160.122 356.803 160.1 356.5 160.194C356.198 160.288 355.941 160.491 355.78 160.763C354.7 162.154 351.518 163.217 348.966 164.117C348.263 164.354 347.608 164.583 347.068 164.788C345.55 165.308 343.967 165.616 342.365 165.704C341.383 165.802 340.361 165.9 339.199 166.105C336.287 166.62 333.596 168.632 330.741 172.444C328.287 175.724 323.551 185.164 322.602 187.07Z" fill="#1E2028"/>
<path d="M374.006 170.366C374.006 170.366 376.869 164.272 376.632 162.955C376.395 161.638 373.884 162.48 373.049 164.272C372.215 166.063 369.344 170.366 369.344 170.366H374.006Z" fill="white"/>
<path d="M374.006 170.773H369.343C369.269 170.771 369.197 170.749 369.134 170.71C369.071 170.672 369.019 170.617 368.983 170.552C368.943 170.49 368.922 170.418 368.922 170.344C368.922 170.27 368.943 170.197 368.983 170.135C368.983 170.135 371.838 165.84 372.656 164.09C372.942 163.456 373.4 162.916 373.979 162.531C374.558 162.147 375.233 161.933 375.928 161.914C376.185 161.933 376.428 162.04 376.617 162.215C376.805 162.39 376.929 162.625 376.967 162.879C377.221 164.254 374.799 169.497 374.309 170.536C374.281 170.597 374.239 170.65 374.186 170.691C374.133 170.733 374.072 170.761 374.006 170.773ZM370.104 169.955H373.744C374.832 167.616 376.378 163.861 376.198 163.027C376.198 162.887 376.116 162.757 375.855 162.724C375.329 162.764 374.824 162.944 374.392 163.246C373.96 163.549 373.618 163.961 373.401 164.442C372.396 166.334 371.295 168.174 370.104 169.955Z" fill="#1E2028"/>
<path d="M379.085 167.46C379.085 167.46 374.635 176.925 371.666 179.518C368.696 182.111 362.758 182.307 362.758 182.307C362.758 182.307 369.809 174.88 371.298 172.098C372.786 169.317 378.161 162.634 379.085 167.46Z" fill="white"/>
<path d="M362.758 182.716C362.68 182.715 362.603 182.691 362.538 182.648C362.473 182.604 362.421 182.543 362.39 182.471C362.357 182.397 362.347 182.315 362.36 182.235C362.373 182.155 362.409 182.081 362.464 182.021C362.537 181.948 369.498 174.61 370.938 171.911C372.042 169.841 375.617 165.007 377.924 165.367C378.742 165.489 379.257 166.185 379.486 167.387C379.511 167.467 379.511 167.553 379.486 167.633C379.298 168.025 374.963 177.203 371.961 179.829C368.959 182.455 363.044 182.708 362.799 182.716H362.758ZM377.654 166.168C376.018 166.168 372.82 170.119 371.658 172.295C370.496 174.471 365.629 179.837 363.781 181.817C365.58 181.637 369.302 181.048 371.396 179.215C374.087 176.86 378.128 168.524 378.66 167.412C378.496 166.651 378.202 166.242 377.801 166.177L377.654 166.168Z" fill="#1E2028"/>
<path d="M375.503 168.294C375.503 168.294 371.053 177.758 368.084 180.36C365.114 182.961 359.176 183.141 359.176 183.141C359.176 183.141 366.227 175.721 367.716 172.932C369.204 170.143 374.579 163.476 375.503 168.294Z" fill="white"/>
<path d="M359.175 183.548C359.097 183.546 359.02 183.523 358.955 183.479C358.89 183.436 358.838 183.374 358.807 183.302C358.772 183.23 358.76 183.149 358.773 183.07C358.786 182.99 358.824 182.917 358.881 182.861C358.954 182.779 365.907 175.441 367.347 172.742C368.451 170.672 372.009 165.846 374.333 166.198C375.151 166.321 375.674 167.016 375.903 168.21C375.931 168.292 375.931 168.382 375.903 168.464C375.723 168.848 371.38 178.034 368.386 180.652C365.392 183.27 359.47 183.531 359.224 183.54L359.175 183.548ZM374.071 167C372.394 167 369.228 170.951 368.075 173.126C366.848 175.425 362.046 180.668 360.198 182.648C361.997 182.468 365.719 181.879 367.813 180.047C370.504 177.691 374.545 169.355 375.077 168.243C374.913 167.49 374.619 167.073 374.21 167.016L374.071 167Z" fill="#1E2028"/>
<path d="M335.24 177.948C335.24 177.948 336.173 176.459 339.33 174.422C342.488 172.386 359.183 177.572 359.183 177.572C359.183 177.572 366.791 168.116 367.903 167.183C369.015 166.251 371.06 165.702 371.429 167.559C371.797 169.416 366.791 177.375 365.49 178.692C364.189 180.009 359.183 183.142 359.183 183.142C356.14 184.189 352.936 184.69 349.719 184.623C345.78 184.339 341.872 183.721 338.038 182.774" fill="white"/>
<path d="M350.513 185.047C350.243 185.047 349.973 185.047 349.695 185.047C345.726 184.759 341.788 184.136 337.924 183.182C337.815 183.156 337.722 183.088 337.664 182.993C337.605 182.898 337.587 182.783 337.613 182.675C337.639 182.566 337.707 182.473 337.802 182.414C337.897 182.356 338.012 182.338 338.12 182.364C341.928 183.302 345.808 183.918 349.72 184.205C352.869 184.262 356.004 183.775 358.987 182.765C359.446 182.47 363.994 179.583 365.188 178.389C366.603 176.973 371.323 169.17 371.012 167.632C370.995 167.452 370.928 167.281 370.82 167.137C370.712 166.992 370.566 166.881 370.399 166.814C369.995 166.754 369.583 166.786 369.193 166.908C368.804 167.03 368.447 167.238 368.149 167.517C367.331 168.229 362.112 174.585 359.486 177.849C359.434 177.912 359.365 177.959 359.286 177.982C359.207 178.006 359.123 178.005 359.045 177.98C354.456 176.556 341.998 173.194 339.535 174.781C336.525 176.728 335.593 178.168 335.584 178.176C335.527 178.268 335.435 178.334 335.329 178.358C335.224 178.383 335.112 178.364 335.02 178.307C334.928 178.249 334.862 178.157 334.838 178.052C334.813 177.946 334.832 177.835 334.889 177.742C334.889 177.685 335.904 176.164 339.094 174.094C342.284 172.025 356.378 176.303 359.028 177.121C360.198 175.665 366.579 167.763 367.626 166.887C368.033 166.522 368.521 166.258 369.05 166.116C369.578 165.974 370.133 165.958 370.669 166.069C370.975 166.181 371.244 166.375 371.446 166.631C371.649 166.887 371.776 167.194 371.814 167.517C372.247 169.669 366.906 177.865 365.769 179.018C364.452 180.335 359.593 183.395 359.388 183.526L359.315 183.566C356.48 184.531 353.507 185.031 350.513 185.047Z" fill="#1E2028"/>
<path d="M315.592 196.933L322.275 185.113L338.471 194.88L334.357 204.909L315.592 196.933Z" fill="white"/>
<path d="M334.358 205.316C334.304 205.324 334.248 205.324 334.194 205.316L315.429 197.341C315.376 197.32 315.328 197.287 315.29 197.244C315.251 197.202 315.224 197.151 315.208 197.095C315.184 197.044 315.172 196.988 315.172 196.932C315.172 196.875 315.184 196.819 315.208 196.768L321.891 184.94C321.949 184.847 322.04 184.78 322.145 184.752C322.195 184.73 322.25 184.719 322.305 184.719C322.359 184.719 322.414 184.73 322.464 184.752L338.652 194.527C338.734 194.579 338.796 194.658 338.826 194.751C338.856 194.844 338.852 194.944 338.816 195.034L334.726 205.063C334.684 205.162 334.604 205.241 334.505 205.284C334.458 205.302 334.408 205.313 334.358 205.316ZM316.174 196.736L334.17 204.367L337.99 195.05L322.448 185.676L316.174 196.736Z" fill="#1E2028"/>
<path d="M227.543 194.422L233.85 368.656H279.609L270.349 244.492C270.349 244.492 295.282 271.74 298.112 273.277C300.942 274.815 304.541 269.94 304.541 269.94L338.21 203.878L318.202 192.827L296.116 228.819L292.77 226.504L290.202 227.789C290.202 227.789 267.298 187.437 265.523 186.406C263.748 185.375 255.241 185.891 255.241 185.891L233.155 187.69L224.975 186.054L227.543 194.422Z" fill="#3BAD6B"/>
<path d="M279.609 369.055H233.85C233.743 369.053 233.642 369.011 233.566 368.936C233.49 368.862 233.445 368.761 233.441 368.654L227.134 194.486L224.484 186.183C224.463 186.114 224.46 186.041 224.476 185.971C224.492 185.901 224.525 185.836 224.574 185.782C224.621 185.729 224.681 185.689 224.749 185.666C224.816 185.643 224.888 185.638 224.958 185.651L233.138 187.287L255.183 185.488C256.075 185.439 263.854 184.997 265.703 186.06C267.551 187.124 287.241 221.791 290.341 227.255L292.566 226.142C292.63 226.107 292.701 226.088 292.774 226.088C292.848 226.088 292.919 226.107 292.983 226.142L295.969 228.212L317.85 192.588C317.906 192.501 317.993 192.438 318.093 192.412C318.193 192.387 318.299 192.4 318.39 192.449L338.439 203.5C338.533 203.552 338.603 203.638 338.635 203.74C338.667 203.842 338.658 203.952 338.611 204.048L304.934 270.11C304.746 270.372 301.057 275.321 297.948 273.619C295.355 272.204 275.241 250.363 270.881 245.619L280.018 368.597C280.021 368.654 280.013 368.711 279.993 368.765C279.974 368.818 279.943 368.867 279.903 368.908C279.868 368.952 279.823 368.989 279.772 369.014C279.721 369.039 279.666 369.053 279.609 369.055ZM234.242 368.237H279.167L269.94 244.523C269.934 244.437 269.955 244.351 270 244.277C270.046 244.204 270.113 244.147 270.194 244.114C270.27 244.079 270.356 244.069 270.439 244.087C270.521 244.105 270.596 244.149 270.652 244.212C279.265 253.619 296.116 271.721 298.308 272.891C300.762 274.249 304.173 269.717 304.214 269.668L337.67 204.016L318.308 193.341L296.402 228.997C296.374 229.045 296.337 229.087 296.292 229.119C296.246 229.152 296.195 229.174 296.141 229.185C296.086 229.197 296.029 229.198 295.974 229.187C295.919 229.175 295.867 229.153 295.822 229.12L292.68 226.944L290.325 228.122C290.232 228.169 290.125 228.178 290.026 228.147C289.927 228.117 289.843 228.049 289.793 227.958C280.68 211.893 266.635 187.656 265.253 186.723C263.87 185.905 257.531 186.126 255.2 186.265L233.114 188.065H232.999L225.474 186.576L227.928 194.281C227.932 194.317 227.932 194.352 227.928 194.388L234.242 368.237Z" fill="#1E2028"/>
<path d="M270.348 244.493L270.037 231.953L279.959 254.285L270.348 244.493Z" fill="#1E2028"/>
<path d="M279.96 254.691C279.907 254.692 279.853 254.681 279.804 254.66C279.755 254.639 279.71 254.608 279.674 254.568L270.062 244.752C269.989 244.678 269.946 244.579 269.94 244.474L269.629 231.992C269.628 231.897 269.659 231.806 269.717 231.731C269.775 231.657 269.856 231.605 269.948 231.583C270.04 231.559 270.138 231.569 270.223 231.611C270.309 231.653 270.376 231.724 270.414 231.812L280.337 254.143C280.375 254.23 280.382 254.328 280.355 254.42C280.328 254.511 280.269 254.59 280.189 254.642C280.12 254.682 280.04 254.699 279.96 254.691ZM270.758 244.319L278.668 252.384L270.488 233.996L270.758 244.319Z" fill="#1E2028"/>
<path d="M270.095 241.039C269.992 241.039 269.893 241 269.817 240.931C269.741 240.861 269.694 240.765 269.686 240.662L267.371 206.732C267.367 206.678 267.374 206.624 267.391 206.573C267.408 206.522 267.435 206.475 267.471 206.434C267.506 206.393 267.549 206.36 267.597 206.336C267.645 206.312 267.698 206.298 267.752 206.294C267.805 206.29 267.859 206.297 267.91 206.314C267.961 206.331 268.008 206.358 268.049 206.394C268.09 206.429 268.123 206.472 268.147 206.52C268.171 206.568 268.185 206.621 268.189 206.674L270.504 240.605C270.507 240.659 270.5 240.713 270.483 240.763C270.465 240.814 270.438 240.861 270.402 240.902C270.366 240.942 270.323 240.975 270.274 240.998C270.226 241.022 270.173 241.035 270.12 241.039H270.095Z" fill="#1E2028"/>
<path d="M271.379 229.736H271.322C271.216 229.719 271.121 229.662 271.056 229.577C270.992 229.491 270.964 229.384 270.978 229.278C271.224 227.511 272.459 213.278 272.467 213.138C272.481 213.031 272.535 212.932 272.619 212.863C272.702 212.793 272.808 212.757 272.917 212.762C273.024 212.773 273.123 212.825 273.192 212.907C273.26 212.99 273.294 213.097 273.285 213.204C273.236 213.793 272.042 227.601 271.788 229.392C271.771 229.488 271.72 229.575 271.646 229.638C271.571 229.701 271.477 229.735 271.379 229.736Z" fill="#1E2028"/>
<path d="M273.44 238.986H273.375C273.321 238.979 273.27 238.962 273.223 238.934C273.176 238.907 273.136 238.87 273.104 238.827C273.071 238.783 273.048 238.733 273.036 238.681C273.024 238.628 273.022 238.573 273.031 238.52L275.862 220.524C275.87 220.47 275.888 220.419 275.916 220.372C275.944 220.326 275.981 220.285 276.025 220.253C276.068 220.221 276.118 220.197 276.171 220.184C276.223 220.171 276.278 220.168 276.332 220.176C276.386 220.185 276.437 220.203 276.484 220.231C276.53 220.259 276.571 220.296 276.603 220.34C276.635 220.383 276.659 220.433 276.672 220.486C276.685 220.538 276.688 220.593 276.68 220.647L273.849 238.643C273.835 238.74 273.786 238.829 273.71 238.893C273.635 238.956 273.539 238.989 273.44 238.986Z" fill="#1E2028"/>
<path d="M297.613 238.717C297.516 238.714 297.424 238.679 297.351 238.616C297.278 238.554 297.229 238.468 297.212 238.373L295.911 230.938C295.902 230.884 295.904 230.829 295.916 230.776C295.928 230.723 295.95 230.672 295.982 230.628C296.013 230.584 296.053 230.546 296.099 230.517C296.146 230.488 296.197 230.468 296.251 230.459C296.304 230.45 296.359 230.451 296.412 230.464C296.466 230.476 296.516 230.498 296.56 230.53C296.605 230.561 296.642 230.601 296.671 230.647C296.7 230.693 296.72 230.745 296.729 230.798L298.038 238.234C298.055 238.341 298.029 238.451 297.966 238.539C297.904 238.628 297.809 238.689 297.703 238.709L297.613 238.717Z" fill="#1E2028"/>
<path d="M290.316 235.07C290.209 235.064 290.108 235.017 290.034 234.94C289.959 234.862 289.917 234.76 289.915 234.652L289.997 229.573C290.008 229.468 290.056 229.37 290.132 229.296C290.209 229.223 290.308 229.179 290.414 229.172C290.468 229.173 290.521 229.185 290.57 229.206C290.619 229.228 290.664 229.259 290.701 229.297C290.738 229.336 290.767 229.382 290.787 229.432C290.806 229.482 290.816 229.535 290.815 229.589L290.733 234.661C290.733 234.715 290.722 234.769 290.701 234.819C290.68 234.869 290.649 234.915 290.61 234.953C290.572 234.991 290.525 235.021 290.475 235.041C290.424 235.061 290.37 235.071 290.316 235.07Z" fill="#1E2028"/>
<path d="M235.911 274.97C235.865 274.982 235.817 274.982 235.772 274.97C235.67 274.935 235.587 274.861 235.539 274.764C235.492 274.668 235.484 274.557 235.518 274.455C236.14 272.72 236.761 270.757 237.367 268.614C237.381 268.56 237.406 268.51 237.44 268.466C237.474 268.422 237.516 268.385 237.565 268.357C237.613 268.329 237.666 268.311 237.721 268.304C237.776 268.297 237.832 268.301 237.886 268.315C237.94 268.33 237.99 268.355 238.034 268.389C238.078 268.423 238.115 268.465 238.143 268.513C238.171 268.562 238.189 268.615 238.196 268.67C238.203 268.725 238.199 268.781 238.185 268.835C237.571 270.994 236.941 272.982 236.32 274.724C236.286 274.803 236.228 274.869 236.155 274.913C236.081 274.957 235.996 274.977 235.911 274.97Z" fill="#1E2028"/>
<path d="M238.856 265.194H238.749C238.646 265.167 238.557 265.101 238.502 265.009C238.447 264.917 238.43 264.808 238.455 264.703C242.807 247.525 245.49 224.973 245.817 222.347L235.747 215.803C235.679 215.759 235.625 215.694 235.595 215.618C235.564 215.542 235.557 215.458 235.575 215.378C235.59 215.297 235.629 215.223 235.688 215.166C235.747 215.109 235.822 215.071 235.903 215.059L247.805 213.112C246.987 212.049 245.007 209.57 243.085 206.691C240.541 202.879 232.369 190.331 232.287 190.233C232.235 190.142 232.22 190.034 232.245 189.933C232.27 189.831 232.333 189.743 232.421 189.686C232.509 189.629 232.616 189.609 232.719 189.628C232.822 189.648 232.913 189.706 232.974 189.791C233.056 189.914 241.228 202.429 243.764 206.233C246.299 210.037 248.86 213.112 248.884 213.137C248.929 213.194 248.958 213.261 248.969 213.333C248.981 213.404 248.974 213.478 248.95 213.546C248.925 213.614 248.883 213.675 248.827 213.721C248.77 213.767 248.703 213.797 248.631 213.807L237.081 215.689L246.479 221.799C246.543 221.842 246.594 221.901 246.625 221.97C246.657 222.039 246.669 222.116 246.659 222.192C246.659 222.429 243.895 246.65 239.297 264.9C239.271 264.993 239.212 265.074 239.131 265.128C239.05 265.182 238.952 265.206 238.856 265.194Z" fill="#1E2028"/>
<path d="M189.121 169.953L189.195 187.434L209.326 199.606L225.637 188.301L224.131 168.473C224.131 168.473 211.526 176.653 209.857 176.996C208.189 177.34 189.121 169.953 189.121 169.953Z" fill="white"/>
<path d="M209.326 200.017C209.251 200.019 209.177 199.999 209.113 199.96L188.958 187.821C188.898 187.783 188.847 187.732 188.812 187.671C188.776 187.609 188.756 187.54 188.753 187.469L188.68 169.989C188.681 169.923 188.698 169.858 188.729 169.8C188.761 169.742 188.805 169.692 188.86 169.654C188.914 169.617 188.976 169.593 189.042 169.584C189.107 169.575 189.174 169.582 189.236 169.604C196.598 172.451 208.59 176.868 209.76 176.631C210.929 176.393 218.856 171.42 223.903 168.164C223.963 168.128 224.033 168.109 224.103 168.109C224.174 168.109 224.243 168.128 224.304 168.164C224.367 168.196 224.422 168.244 224.462 168.302C224.502 168.361 224.526 168.429 224.533 168.5L226.013 188.328C226.018 188.4 226.004 188.472 225.973 188.536C225.941 188.601 225.893 188.656 225.833 188.696L209.531 200.001C209.465 200.023 209.394 200.029 209.326 200.017ZM189.604 187.207L209.31 199.126L225.212 188.099L223.796 169.187C221.113 170.921 211.526 177.056 209.972 177.367C208.418 177.678 193.719 172.14 189.522 170.52L189.604 187.207Z" fill="#1E2028"/>
<path d="M189.4 184.09L208.516 179.354L189.195 171.469L189.4 184.09Z" fill="#1E2028"/>
<path d="M189.4 184.49C189.308 184.492 189.219 184.463 189.146 184.408C189.097 184.37 189.058 184.322 189.031 184.267C189.004 184.211 188.99 184.151 188.991 184.089L188.786 171.459C188.786 171.392 188.802 171.325 188.834 171.265C188.865 171.205 188.911 171.154 188.966 171.116C189.025 171.083 189.091 171.066 189.158 171.066C189.226 171.066 189.292 171.083 189.351 171.116L208.672 179.001C208.752 179.034 208.819 179.091 208.865 179.164C208.911 179.238 208.932 179.324 208.925 179.41C208.917 179.496 208.883 179.577 208.827 179.642C208.772 179.708 208.697 179.755 208.614 179.778L189.498 184.506L189.4 184.49ZM189.62 172.081L189.8 183.533L207.199 179.222L189.62 172.081Z" fill="#1E2028"/>
<path d="M224.132 148.082C224.132 148.082 223.944 140.114 226.169 135.664C226.881 134.224 227.252 132.638 227.252 131.03C227.252 129.423 226.881 127.837 226.169 126.396L228.222 125.652C227.104 124.716 225.93 123.85 224.705 123.059C224.148 122.871 225.073 117.873 223.404 115.272C221.735 112.67 220.067 112.122 220.067 112.122L219.142 115.46C219.142 115.46 214.136 109.529 211.355 108.417C208.574 107.304 200.615 101.93 200.41 104.711C200.206 107.493 201.343 108.605 201.343 108.605C201.343 108.605 195.78 105.448 191.527 106.56C187.273 107.672 183.183 110.274 184.107 111.198C185.032 112.122 189.114 116.016 189.114 116.016C189.114 116.016 179.666 116.384 178.553 117.497C177.806 118.361 177.249 119.373 176.917 120.466L182.291 123.247C182.291 123.247 177.473 122.871 175.617 125.84C173.76 128.81 173.392 129.93 174.692 130.47C175.977 131.125 177.216 131.869 178.398 132.695C178.398 132.695 177.097 134.92 178.586 138.626C180.075 142.331 183.584 150.495 183.584 150.495C183.584 150.495 184.884 137.145 185.809 134.552C186.733 131.959 198.234 125.84 199.895 125.284C201.555 124.728 213.245 127.877 213.989 127.877C214.733 127.877 219.543 146.601 220.656 147.337C221.768 148.073 224.132 148.082 224.132 148.082Z" fill="#1E2028"/>
<path d="M183.559 150.904C183.48 150.902 183.403 150.877 183.337 150.832C183.272 150.787 183.221 150.724 183.191 150.65C183.191 150.568 179.649 142.47 178.177 138.781C176.958 135.738 177.539 133.636 177.858 132.842C176.788 132.098 175.667 131.431 174.504 130.846C174.286 130.772 174.087 130.65 173.923 130.489C173.758 130.327 173.633 130.131 173.555 129.914C173.277 129.022 173.907 127.771 175.248 125.619C176.508 123.599 178.986 123.018 180.647 122.871L176.688 120.826C176.602 120.785 176.534 120.714 176.497 120.627C176.459 120.54 176.454 120.442 176.483 120.351C176.841 119.19 177.443 118.119 178.25 117.21C179.264 116.196 185.449 115.787 188.132 115.648C186.929 114.495 184.5 112.171 183.813 111.484C183.697 111.376 183.615 111.236 183.578 111.082C183.54 110.928 183.548 110.767 183.6 110.617C184.001 109.137 188.058 107.043 191.412 106.167C194.618 105.349 198.447 106.773 200.353 107.648C200.035 106.695 199.915 105.687 200.001 104.687C200.002 104.483 200.057 104.284 200.161 104.108C200.264 103.933 200.412 103.788 200.59 103.689C201.825 103.01 204.614 104.409 208.418 106.47C209.629 107.124 210.774 107.746 211.502 108.041C213.85 108.973 217.588 113.071 218.946 114.585L219.666 111.983C219.681 111.93 219.707 111.88 219.743 111.836C219.778 111.793 219.821 111.756 219.87 111.73C219.92 111.706 219.974 111.693 220.03 111.693C220.085 111.693 220.139 111.706 220.189 111.73C220.263 111.73 222.013 112.36 223.739 115.002C224.86 116.744 224.876 119.435 224.884 121.219C224.873 121.705 224.895 122.191 224.95 122.675C226.176 123.473 227.353 124.344 228.475 125.284C228.532 125.331 228.575 125.392 228.601 125.461C228.627 125.53 228.634 125.604 228.623 125.677C228.608 125.747 228.576 125.813 228.529 125.868C228.481 125.922 228.421 125.963 228.353 125.987L226.717 126.576C227.37 128.031 227.691 129.613 227.657 131.208C227.623 132.802 227.235 134.369 226.52 135.795C224.369 140.106 224.524 147.943 224.524 148.024C224.524 148.135 224.48 148.241 224.402 148.319C224.365 148.358 224.321 148.389 224.272 148.41C224.222 148.432 224.169 148.442 224.115 148.442C224.009 148.442 221.563 148.442 220.369 147.624C219.764 147.223 218.88 144.556 216.533 136.744C215.477 133.251 214.185 128.94 213.743 128.212C213.367 128.163 212.541 127.967 210.774 127.558C207.608 126.814 201.023 125.259 199.96 125.611C198.226 126.192 186.97 132.27 186.128 134.609C185.236 137.129 183.943 150.315 183.927 150.446C183.919 150.537 183.881 150.622 183.819 150.689C183.756 150.756 183.674 150.799 183.584 150.814L183.559 150.904ZM181.776 123.64C180.565 123.64 177.318 123.852 175.935 126.094C174.847 127.844 174.152 129.129 174.299 129.709C174.299 129.816 174.422 129.979 174.798 130.143C176.107 130.805 177.367 131.56 178.569 132.401C178.656 132.459 178.717 132.548 178.739 132.65C178.762 132.752 178.745 132.859 178.692 132.949C178.692 132.949 177.522 135.067 178.905 138.519C179.993 141.235 182.177 146.405 183.281 148.924C183.657 145.292 184.622 136.556 185.367 134.454C186.406 131.55 198.357 125.39 199.714 124.94C200.892 124.54 205.71 125.619 210.962 126.855C212.377 127.19 213.719 127.501 213.931 127.509C214.471 127.509 214.676 127.82 217.318 136.605C218.586 140.801 220.312 146.536 220.843 147.051C221.738 147.476 222.716 147.699 223.706 147.705C223.706 145.963 223.821 139.468 225.792 135.525C226.468 134.141 226.819 132.62 226.819 131.079C226.819 129.539 226.468 128.018 225.792 126.634C225.764 126.582 225.747 126.524 225.743 126.466C225.739 126.407 225.748 126.348 225.769 126.292C225.79 126.237 225.823 126.187 225.865 126.146C225.907 126.105 225.958 126.073 226.013 126.053L227.371 125.562C226.476 124.805 225.531 124.111 224.541 123.484C224.058 123.329 224.058 122.74 224.042 121.308C224.042 119.623 224.042 117.079 223.027 115.533C222.352 114.399 221.415 113.443 220.295 112.744L219.477 115.607C219.458 115.679 219.42 115.744 219.367 115.796C219.314 115.848 219.247 115.885 219.175 115.902C219.102 115.916 219.026 115.911 218.955 115.887C218.885 115.862 218.822 115.819 218.774 115.762C218.725 115.705 213.8 109.897 211.15 108.834C210.065 108.343 209.006 107.797 207.976 107.198C205.522 105.881 201.874 103.926 200.933 104.409C200.892 104.409 200.786 104.49 200.77 104.744C200.606 107.272 201.588 108.31 201.588 108.327C201.653 108.4 201.689 108.495 201.689 108.593C201.689 108.691 201.653 108.785 201.588 108.859C201.528 108.936 201.442 108.989 201.346 109.009C201.25 109.028 201.15 109.013 201.064 108.965C201.015 108.965 195.6 105.914 191.543 106.969C187.747 107.959 184.541 110.004 184.312 110.846C185.228 111.828 189.277 115.689 189.318 115.754C189.376 115.81 189.416 115.882 189.433 115.96C189.451 116.039 189.445 116.12 189.416 116.196C189.387 116.271 189.337 116.335 189.271 116.382C189.206 116.429 189.128 116.455 189.048 116.458C185.187 116.605 179.444 117.129 178.757 117.824C178.115 118.538 177.62 119.372 177.301 120.278L182.365 122.895C182.447 122.94 182.512 123.011 182.549 123.097C182.586 123.183 182.593 123.279 182.569 123.37C182.542 123.46 182.485 123.539 182.408 123.594C182.331 123.649 182.238 123.677 182.144 123.673C182.144 123.673 182.054 123.64 181.776 123.64Z" fill="#1E2028"/>
<path d="M193.571 120.655C193.571 120.655 181.154 132.925 180.966 134.921C180.777 136.917 186.34 168.655 186.692 169.768C187.043 170.88 200.221 179.224 204.295 180.148C208.369 181.073 212.639 179.96 213.751 179.036C214.864 178.111 225.612 171.993 226.725 166.987C227.837 161.98 220.859 127.878 220.041 126.586C219.223 125.293 201.915 116.941 193.571 120.655Z" fill="white"/>
<path d="M207.543 180.902C206.429 180.906 205.318 180.788 204.23 180.55C200.345 179.666 186.79 171.298 186.324 169.916C185.817 168.394 180.377 136.934 180.557 134.905C180.737 132.877 191.191 122.439 193.285 120.378C193.319 120.341 193.361 120.313 193.408 120.296C201.653 116.631 219.461 124.697 220.402 126.398C221.171 127.74 228.255 161.957 227.118 167.094C226.169 171.372 218.594 176.329 215.363 178.448C214.7 178.881 214.185 179.216 214.005 179.372C213.081 180.149 210.447 180.902 207.543 180.902ZM193.809 120.999C189.04 125.695 181.498 133.588 181.375 134.963C181.212 136.803 186.635 168.247 187.101 169.638C187.674 170.717 200.32 178.824 204.41 179.748C208.5 180.672 212.525 179.552 213.514 178.726C213.727 178.546 214.21 178.227 214.946 177.744C218.095 175.683 225.473 170.856 226.349 166.897C227.42 162.088 220.459 128.173 219.723 126.815C219.036 125.76 202.046 117.474 193.809 120.999Z" fill="#1E2028"/>
<path d="M193.571 120.652C193.571 120.652 197.874 122.779 199.649 123.572C201.424 124.366 203.387 121.601 203.387 121.601C203.387 121.601 218.627 126.828 220.074 126.582C221.522 126.337 215.984 120.611 210.258 118.443C204.532 116.276 193.604 116.545 193.571 120.652Z" fill="#1E2028"/>
<path d="M219.992 126.992C218.021 126.992 206.544 123.115 203.534 122.084C202.961 122.788 201.211 124.71 199.444 123.949C197.677 123.189 193.399 121.037 193.358 121.013C193.289 120.979 193.231 120.927 193.191 120.861C193.15 120.796 193.129 120.721 193.129 120.645C193.146 120.162 193.284 119.691 193.531 119.277C193.779 118.862 194.127 118.516 194.544 118.272C197.816 116.056 205.873 116.342 210.405 118.068C215.428 119.974 220.826 124.906 220.679 126.387C220.667 126.536 220.605 126.676 220.502 126.785C220.4 126.894 220.263 126.964 220.115 126.984L219.992 126.992ZM203.387 121.193C203.433 121.185 203.48 121.185 203.526 121.193C209.178 123.131 218.381 126.101 219.886 126.158C219.542 125.037 215.125 120.694 210.151 118.796C205.832 117.16 198.012 116.89 195.051 118.919C194.784 119.073 194.552 119.283 194.371 119.534C194.191 119.785 194.066 120.072 194.004 120.375C194.945 120.833 198.315 122.501 199.82 123.164C201.023 123.696 202.569 122.019 203.092 121.332C203.128 121.289 203.173 121.254 203.224 121.23C203.275 121.206 203.33 121.193 203.387 121.193Z" fill="#1E2028"/>
<path d="M204.942 155.738C204.836 155.747 204.729 155.747 204.623 155.738L203.584 155.567C202.848 155.687 202.104 155.747 201.359 155.746C200.866 155.713 200.398 155.52 200.025 155.197C199.651 154.874 199.393 154.438 199.289 153.955C199.267 153.85 199.286 153.74 199.342 153.649C199.399 153.558 199.488 153.491 199.592 153.464C199.696 153.439 199.806 153.456 199.898 153.511C199.989 153.566 200.056 153.655 200.083 153.759C200.083 153.808 200.402 154.937 201.359 154.937C202.077 154.939 202.794 154.879 203.502 154.757H203.682L204.795 154.937C205.784 155.108 207.919 154.045 208.067 153.579C208.214 153.113 207.142 148.376 206.431 144.949C205.613 140.924 205.089 138.405 205.089 137.922C205.089 136.712 207.347 134.233 207.797 133.75C207.875 133.675 207.979 133.633 208.087 133.633C208.195 133.633 208.3 133.675 208.377 133.75C208.416 133.788 208.446 133.834 208.467 133.884C208.488 133.933 208.498 133.987 208.498 134.041C208.498 134.095 208.488 134.148 208.467 134.198C208.446 134.248 208.416 134.293 208.377 134.331C207.347 135.436 205.923 137.292 205.923 137.947C205.923 138.405 206.627 141.808 207.249 144.81C208.566 151.182 208.983 153.374 208.885 153.808C208.59 154.691 206.251 155.738 204.942 155.738Z" fill="#1E2028"/>
<path d="M209.056 154.112C208.809 154.11 208.563 154.088 208.319 154.046C208.267 154.036 208.217 154.015 208.172 153.985C208.128 153.954 208.09 153.916 208.06 153.871C208.03 153.826 208.01 153.776 208 153.723C207.989 153.671 207.99 153.616 208 153.564C208.01 153.511 208.031 153.46 208.06 153.415C208.09 153.37 208.129 153.331 208.174 153.301C208.219 153.271 208.269 153.251 208.323 153.241C208.376 153.232 208.43 153.233 208.483 153.245C208.943 153.347 209.423 153.304 209.857 153.122C209.952 153.054 210.017 152.951 210.037 152.836L210.217 151.723C210.237 151.617 210.298 151.522 210.386 151.459C210.475 151.397 210.585 151.371 210.692 151.388C210.745 151.396 210.795 151.414 210.841 151.442C210.887 151.47 210.927 151.507 210.958 151.55C210.989 151.594 211.011 151.643 211.023 151.695C211.035 151.747 211.036 151.801 211.027 151.854L210.839 152.967C210.812 153.13 210.753 153.287 210.664 153.428C210.575 153.568 210.46 153.69 210.324 153.785C209.942 154.016 209.501 154.129 209.056 154.112Z" fill="#1E2028"/>
<path d="M203.576 155.535C203.493 155.536 203.413 155.51 203.347 155.461C202.894 155.111 202.563 154.626 202.403 154.077C202.243 153.527 202.261 152.941 202.455 152.402C202.467 152.346 202.491 152.292 202.525 152.246C202.559 152.199 202.603 152.16 202.653 152.131C202.703 152.103 202.759 152.085 202.817 152.08C202.874 152.075 202.932 152.081 202.987 152.1C203.042 152.119 203.092 152.149 203.134 152.188C203.176 152.227 203.21 152.275 203.232 152.329C203.254 152.382 203.265 152.439 203.264 152.497C203.263 152.555 203.249 152.612 203.224 152.664C203.086 153.037 203.069 153.445 203.176 153.828C203.284 154.211 203.509 154.551 203.821 154.799C203.89 154.85 203.94 154.922 203.966 155.004C203.992 155.086 203.991 155.174 203.964 155.255C203.937 155.337 203.884 155.408 203.815 155.458C203.745 155.508 203.661 155.535 203.576 155.535Z" fill="#1E2028"/>
<path d="M200.246 166.839C200.145 166.839 200.047 166.804 199.968 166.74C199.893 166.663 199.851 166.558 199.851 166.45C199.851 166.342 199.893 166.238 199.968 166.16C200.034 166.086 206.357 159.117 213.588 161.972C213.638 161.991 213.683 162.021 213.722 162.058C213.761 162.096 213.791 162.141 213.813 162.19C213.834 162.239 213.845 162.292 213.846 162.346C213.847 162.4 213.837 162.453 213.817 162.503C213.797 162.553 213.768 162.599 213.73 162.637C213.693 162.676 213.648 162.707 213.599 162.728C213.549 162.749 213.496 162.76 213.442 162.761C213.389 162.762 213.335 162.752 213.285 162.732C206.586 160.09 200.639 166.634 200.582 166.708C200.54 166.754 200.487 166.789 200.429 166.812C200.371 166.835 200.309 166.844 200.246 166.839Z" fill="#1E2028"/>
<path d="M187.453 141.301C187.355 141.302 187.257 141.283 187.167 141.244C186.966 141.167 186.803 141.014 186.715 140.818C186.626 140.622 186.618 140.399 186.692 140.197C187.564 138.093 189.024 136.284 190.897 134.987C194.022 132.901 199.437 135.371 199.666 135.477C199.763 135.523 199.851 135.587 199.924 135.667C199.997 135.747 200.053 135.84 200.09 135.941C200.127 136.043 200.144 136.15 200.139 136.258C200.134 136.366 200.108 136.472 200.062 136.569C200.017 136.667 199.952 136.755 199.873 136.828C199.793 136.901 199.7 136.957 199.599 136.994C199.497 137.031 199.39 137.047 199.282 137.042C199.174 137.038 199.068 137.012 198.97 136.966C197.645 136.344 193.76 135.036 191.805 136.344C190.222 137.457 188.981 138.99 188.222 140.77C188.163 140.926 188.058 141.061 187.921 141.156C187.783 141.251 187.62 141.302 187.453 141.301Z" fill="#1E2028"/>
<path d="M219.895 137.784C219.746 137.785 219.599 137.746 219.47 137.669C219.342 137.593 219.237 137.483 219.167 137.351C218.24 135.772 216.824 134.537 215.134 133.833C214.405 133.569 213.619 133.501 212.855 133.636C212.092 133.771 211.377 134.104 210.782 134.602C210.703 134.675 210.609 134.732 210.507 134.768C210.406 134.805 210.298 134.821 210.19 134.816C210.082 134.811 209.976 134.784 209.878 134.737C209.78 134.691 209.693 134.625 209.621 134.545C209.476 134.384 209.4 134.173 209.411 133.956C209.422 133.74 209.518 133.537 209.678 133.392C210.496 132.691 211.485 132.221 212.545 132.03C213.604 131.839 214.696 131.933 215.707 132.304C217.77 133.144 219.497 134.646 220.615 136.574C220.666 136.669 220.698 136.773 220.709 136.88C220.72 136.988 220.71 137.096 220.679 137.2C220.648 137.303 220.596 137.399 220.528 137.483C220.459 137.566 220.375 137.635 220.279 137.686C220.161 137.75 220.029 137.784 219.895 137.784Z" fill="#1E2028"/>
<path d="M195.706 146.046C196.474 146.046 197.097 145.174 197.097 144.099C197.097 143.024 196.474 142.152 195.706 142.152C194.938 142.152 194.315 143.024 194.315 144.099C194.315 145.174 194.938 146.046 195.706 146.046Z" fill="#1E2028"/>
<path d="M213.686 141.318C213.686 142.39 213.056 143.265 212.295 143.265C211.534 143.265 210.904 142.39 210.904 141.318C210.904 140.246 211.526 139.371 212.295 139.371C213.064 139.371 213.686 140.246 213.686 141.318Z" fill="#1E2028"/>
<path d="M183.232 148.451C183.232 148.451 179.714 143.453 178.046 147.339C176.377 151.224 178.046 154.382 179.682 156.983C181.318 159.584 184.868 160.876 184.868 160.876L183.232 148.451Z" fill="white"/>
<path d="M184.868 161.284C184.822 161.292 184.775 161.292 184.729 161.284C184.581 161.234 181.056 159.909 179.338 157.194C177.465 154.281 175.968 151.059 177.637 147.173C177.763 146.738 178.007 146.347 178.342 146.042C178.677 145.738 179.09 145.532 179.534 145.447C181.391 145.259 183.322 147.901 183.534 148.212C183.575 148.264 183.601 148.326 183.608 148.392L185.244 160.809C185.252 160.88 185.241 160.951 185.214 161.017C185.187 161.083 185.144 161.141 185.089 161.185C185.026 161.239 184.949 161.273 184.868 161.284ZM179.731 146.265H179.616C179.125 146.314 178.716 146.731 178.389 147.492C176.794 151.206 178.389 154.216 180.025 156.752C181.147 158.262 182.644 159.452 184.369 160.204L182.806 148.596C182.267 147.877 180.843 146.265 179.723 146.265H179.731Z" fill="#1E2028"/>
<path d="M224.524 142.341C224.524 142.341 224.893 138.815 226.381 139.183C227.87 139.551 230.643 142.341 228.974 146.226C227.306 150.112 225.637 154.202 225.637 154.202L224.132 146.602L224.524 142.341Z" fill="white"/>
<path d="M225.637 154.609C225.549 154.598 225.467 154.56 225.402 154.5C225.337 154.44 225.294 154.36 225.277 154.274L223.796 146.674C223.792 146.636 223.792 146.598 223.796 146.56L224.164 142.298C224.164 142.036 224.467 139.713 225.506 138.985C225.652 138.881 225.82 138.811 225.996 138.778C226.173 138.746 226.355 138.752 226.528 138.797C227.151 139.02 227.722 139.365 228.21 139.812C228.697 140.258 229.09 140.798 229.367 141.398C229.745 142.177 229.941 143.031 229.941 143.897C229.941 144.763 229.745 145.617 229.367 146.396C227.731 150.241 226.046 154.323 226.029 154.363C225.997 154.44 225.942 154.505 225.872 154.549C225.802 154.593 225.72 154.614 225.637 154.609ZM224.565 146.576L225.776 152.785C226.406 151.271 227.502 148.613 228.598 146.069C228.92 145.396 229.087 144.66 229.087 143.914C229.087 143.168 228.92 142.431 228.598 141.758C228.145 140.757 227.317 139.976 226.291 139.582C226.23 139.564 226.166 139.56 226.103 139.572C226.041 139.583 225.982 139.609 225.931 139.648C225.383 140.032 225.031 141.521 224.941 142.372L224.565 146.576Z" fill="#1E2028"/>
<path d="M384.124 369.056H41.2596C41.1511 369.056 41.0471 369.013 40.9704 368.936C40.8937 368.86 40.8506 368.756 40.8506 368.647C40.8506 368.539 40.8937 368.435 40.9704 368.358C41.0471 368.281 41.1511 368.238 41.2596 368.238H384.124C384.233 368.238 384.337 368.281 384.413 368.358C384.49 368.435 384.533 368.539 384.533 368.647C384.531 368.755 384.487 368.858 384.411 368.934C384.335 369.01 384.232 369.054 384.124 369.056Z" fill="#1E2028"/>
</svg>
