<svg width="403" height="396" viewBox="0 0 403 396" fill="none" xmlns="http://www.w3.org/2000/svg">
<path fill-rule="evenodd" clip-rule="evenodd" d="M89.9688 65.9512V153.889H157.013V65.9512H246.409V0H157.013C120.004 0 89.9688 29.545 89.9688 65.9512Z" fill="#E26336"/>
<path fill-rule="evenodd" clip-rule="evenodd" d="M246.41 87.9297V153.884H335.806V241.822H402.85V153.884C402.85 117.478 372.815 87.9297 335.806 87.9297H246.41Z" fill="#F6BF25"/>
<path fill-rule="evenodd" clip-rule="evenodd" d="M157.019 329.766V395.72H246.415C283.425 395.72 313.463 366.169 313.463 329.766V241.828H246.415V329.766H157.019Z" fill="#3BAD6B"/>
<path fill-rule="evenodd" clip-rule="evenodd" d="M0.571289 153.895V241.833C0.571289 278.239 30.6091 307.787 67.6189 307.787H157.015V241.833H67.6189V153.895H0.571289Z" fill="#DA2750"/>
<path fill-rule="evenodd" clip-rule="evenodd" d="M269.382 197.855C272.481 197.855 274.6 196.11 274.6 193.367C274.6 190.526 272.481 188.831 269.382 188.831H264.627V197.855H269.382ZM264.575 204.635V217.349H256.409V182H270.208C277.651 182 282.766 186.736 282.766 193.317C282.766 199.998 277.651 204.635 270.208 204.635H264.575Z" fill="#1B1C20"/>
<path fill-rule="evenodd" clip-rule="evenodd" d="M233.229 209.825V182H225.197V209.771C225.197 213.955 228.656 217.349 232.927 217.349H248.78V209.825H233.229Z" fill="#1B1C20"/>
<path fill-rule="evenodd" clip-rule="evenodd" d="M200.394 209.872V203.09H213.414V196.159H200.394V189.429H214.746V182H200.1C195.956 182 192.599 185.394 192.599 189.578V209.771C192.599 213.955 195.956 217.349 200.1 217.349H214.794V209.872H200.394Z" fill="#1B1C20"/>
<path fill-rule="evenodd" clip-rule="evenodd" d="M174.107 217.349V203.09H159.712V217.349H151.676V182H159.712V196.159H174.107V182H182.194V217.349H174.107Z" fill="#1B1C20"/>
</svg>
