<svg width="120" height="35" viewBox="0 0 120 35" fill="none" xmlns="http://www.w3.org/2000/svg">
<g clip-path="url(#clip0_4044_12986)">
<path fill-rule="evenodd" clip-rule="evenodd" d="M59.6939 27.222V19.3782H51.8093V27.222H47.4072V7.77734H51.8093V15.5659H59.6939V7.77734H64.1239V27.222H59.6939Z" fill="#383A47"/>
<path fill-rule="evenodd" clip-rule="evenodd" d="M74.086 23.1093V19.3788H81.44V15.5668H74.086V11.8654H82.1927V7.7793H73.92C71.5793 7.7793 69.6831 9.64587 69.6831 11.9472V23.0538C69.6831 25.355 71.5793 27.2218 73.92 27.2218H82.2195V23.1093H74.086Z" fill="#383A47"/>
<path fill-rule="evenodd" clip-rule="evenodd" d="M92.1807 23.0831V7.7793H87.7778V23.0538C87.7778 25.355 89.6741 27.2218 92.0151 27.2218H100.705V23.0831H92.1807Z" fill="#383A47"/>
<path fill-rule="evenodd" clip-rule="evenodd" d="M112.332 16.4986C114.003 16.4986 115.145 15.5387 115.145 14.0302C115.145 12.4673 114.003 11.5347 112.332 11.5347H109.768V16.4986H112.332ZM109.74 20.2285V27.222H105.338V7.77734H112.777C116.79 7.77734 119.547 10.3824 119.547 14.0027C119.547 17.6777 116.79 20.2285 112.777 20.2285H109.74Z" fill="#383A47"/>
<path fill-rule="evenodd" clip-rule="evenodd" d="M7.90137 5.83315V13.611H13.8271V5.83315H21.7284V0H13.8271C10.556 0 7.90137 2.61315 7.90137 5.83315Z" fill="#E26336"/>
<path fill-rule="evenodd" clip-rule="evenodd" d="M21.7285 7.77734V13.6108H29.6297V21.3886H35.5555V13.6108C35.5555 10.3908 32.9008 7.77734 29.6297 7.77734H21.7285Z" fill="#F6BF25"/>
<path fill-rule="evenodd" clip-rule="evenodd" d="M13.8276 29.1664V34.9998H21.729C25.0001 34.9998 27.655 32.3862 27.655 29.1664V21.3887H21.729V29.1664H13.8276Z" fill="#3BAD6B"/>
<path fill-rule="evenodd" clip-rule="evenodd" d="M0 13.6113V21.3892C0 24.6092 2.6549 27.2226 5.92601 27.2226H13.8273V21.3892H5.92601V13.6113H0Z" fill="#DA2750"/>
</g>
<defs>
<clipPath id="clip0_4044_12986">
<rect width="120" height="35" fill="white"/>
</clipPath>
</defs>
</svg>
