<svg width="40" height="41" viewBox="0 0 40 41" fill="none" xmlns="http://www.w3.org/2000/svg">
<rect y="0.5" width="40" height="40" rx="8" fill="#0A66C2"/>
<path d="M14.9395 13.501C14.9392 14.0314 14.7282 14.54 14.353 14.9149C13.9777 15.2898 13.4689 15.5003 12.9385 15.5C12.408 15.4997 11.8994 15.2888 11.5245 14.9135C11.1496 14.5382 10.9392 14.0294 10.9395 13.499C10.9397 12.9686 11.1507 12.46 11.5259 12.0851C11.9012 11.7102 12.41 11.4997 12.9405 11.5C13.4709 11.5003 13.9795 11.7112 14.3544 12.0865C14.7293 12.4618 14.9397 12.9706 14.9395 13.501ZM14.9995 16.981H10.9995V29.501H14.9995V16.981ZM21.3195 16.981H17.3395V29.501H21.2795V22.931C21.2795 19.271 26.0495 18.931 26.0495 22.931V29.501H29.9995V21.571C29.9995 15.401 22.9395 15.631 21.2795 18.661L21.3195 16.981Z" fill="white"/>
</svg>
