<svg width="252" height="196" viewBox="0 0 252 196" fill="none" xmlns="http://www.w3.org/2000/svg">
<rect y="0.5" width="252" height="195" rx="12" fill="#F8EFD5"/>
<path d="M146.423 133.202C147.758 132.101 155.47 127.331 159.693 123.312C162.99 120.172 164.265 111.973 159.194 107.985C152.601 102.805 146.272 108.243 146.272 108.243C146.272 108.243 145.719 105.169 141.869 103.365C137.02 101.091 130.878 100.243 125.23 100.315C119.756 100.381 114.715 101.043 110.239 103.238C106.232 105.205 105.992 108.009 105.992 108.009C105.992 108.009 100.734 102.986 94.2915 107.064C87.8547 111.149 89.7015 119.33 92.7996 122.765C96.8361 127.241 101.685 129.521 103.886 131.169C106.082 132.817 108.188 134.387 108.188 135.801C108.188 137.215 107.562 137.527 107.321 137.449C107.087 137.371 106.672 135.993 105.595 136.583C104.127 137.395 104.572 140.668 107.634 140.98C110.6 141.287 111.165 138.153 111.165 138.153L111.635 135.091L116.501 138.466L121.837 142.863L121.681 146.629C121.681 146.629 121.446 149.535 120.032 152.049C118.619 154.564 116.345 157.072 116.345 157.072L116.273 159.346L136.058 158.877L135.432 156.681C135.432 156.681 132.882 153.878 131.348 150.87C130.253 148.716 130.078 146.545 130.078 146.545L130.03 141.143L140.299 134.85C140.299 134.85 141.4 135.717 141.243 136.03C141.087 136.342 141.051 139.549 143.517 140.74C145.954 141.919 147.915 140.427 147.68 138.382C147.446 136.342 146.188 137.046 145.797 137.359C145.406 137.672 144.54 137.75 144.305 136.571C144.065 135.404 145.087 134.303 146.423 133.202ZM95.8736 122.097L93.5215 114.939L96.3668 111.215L99.5551 110.283C99.5551 110.283 103.628 113.321 103.772 113.567C103.916 113.814 106.371 118.861 106.371 118.861L109.607 130.579L95.8736 122.097ZM142.11 131.512C142.158 131.265 145.148 118.957 145.148 118.957C145.148 118.813 147.253 117.832 147.253 117.634C147.253 117.435 151.079 111.209 151.079 111.209L157.456 111.456L158.779 117.778L155.591 123.024C155.597 123.03 142.062 131.752 142.11 131.512Z" fill="#FEC417"/>
<path d="M160.139 115.932C159.669 110.326 154.123 108.984 151.843 109.796C149.563 110.608 148.083 112.13 147.578 114.296C147.169 116.046 146.76 117.213 146.291 117.394C145.773 117.586 145.298 117.508 145.298 117.508C145.298 117.508 145.214 113.718 145.238 112.19C145.298 109.038 146.261 108.232 146.261 108.232C146.261 108.232 146.056 107.167 145.647 106.578C145.238 105.994 144.48 105.236 144.48 105.236C144.48 105.236 144.654 106.752 143.896 107.107C143.138 107.462 142.32 106.933 142.32 106.933L143.078 110.085C143.078 110.085 141.851 125.798 141.737 126.147C141.622 126.496 137.008 134.496 137.008 134.496C137.008 134.496 134.319 137.011 133.038 137.594C131.751 138.178 130.644 139.7 125.681 139.754C120.718 139.814 116.453 135.898 116.453 135.898L112.188 131.807L109.036 122.519L108.567 113.057L108.765 109.616L108.903 108.178L108.681 107.45C108.681 107.45 108.272 107.859 107.514 107.685C106.756 107.51 106.461 106.518 106.461 106.518C106.461 106.518 106.166 106.987 106.112 107.221C106.052 107.456 105.992 107.998 105.992 107.998C105.992 107.998 106.81 108.858 106.984 110.085C107.159 111.312 106.924 116.395 106.052 116.275C105.174 116.161 105.463 111.896 102.136 110.259C99.2544 108.84 94.9532 109.267 93.1967 112.828C91.4461 116.389 92.7275 120.594 98.2197 124.51C103.712 128.427 109.559 131.717 110.486 134.857C111.592 138.593 109.084 140.813 109.084 140.813C109.084 140.813 110.907 140.56 111.803 138.605C112.092 137.973 112.2 137.053 112.242 136.506C114.318 139.213 117.079 141.505 120.736 142.611C122.12 143.087 123.678 143.327 125.843 143.327C126.156 143.327 126.463 143.315 126.77 143.303C129.302 143.213 131.468 142.738 133.568 141.697C136.401 140.386 138.597 138.382 140.293 136.109C140.245 136.65 140.576 137.997 141.207 139.062C142.314 140.933 144.185 141.047 144.185 141.047C144.185 141.047 141.616 139.531 142.14 135.91C142.663 132.289 145.057 131.001 148.679 128.667C152.312 126.327 160.602 121.539 160.139 115.932ZM100.794 123.879C99.1642 122.73 96.3068 121.196 95.1277 118.856C93.5576 115.734 94.8329 111.962 97.8167 111.499C104.013 110.524 104.127 118.218 104.536 119.15C104.945 120.083 106.112 120.143 106.112 120.143C106.112 120.143 106.154 120.66 106.323 121.659C106.329 121.689 106.335 121.713 106.335 121.743L106.353 121.833C106.467 122.513 106.63 123.361 106.858 124.33L106.876 124.402C107.003 124.95 107.135 125.467 107.273 125.942C107.55 126.941 107.887 128.017 108.302 129.124C107.7 128.715 104.253 126.327 100.794 123.879ZM156.926 119.554C155.633 121.647 153.016 123.205 151.085 124.516C148.595 126.207 144.889 128.745 143.842 129.455C144.083 128.818 144.293 128.186 144.486 127.566C144.799 126.748 145.13 125.75 145.358 124.673C145.96 121.845 146.062 119.373 146.062 119.373C146.062 119.373 147.289 119.722 148.047 118.904C148.805 118.086 149.088 115.547 149.798 114.35C150.905 112.479 153.124 110.554 156.457 112.888C158.382 114.242 158.454 117.075 156.926 119.554ZM124.406 145.21L127.805 145.168C127.805 145.168 127.895 148.88 128.43 151.647C128.966 154.42 129.681 157.5 129.681 157.5C129.681 157.5 122.757 159.822 122.8 157.32C122.842 154.817 123.87 149.944 123.87 149.944C123.87 149.944 124.496 144.139 124.406 145.21Z" fill="#FFA828"/>
<path d="M118.703 106.637C118.703 106.637 122.487 106.21 126.006 106.265C129.525 106.319 133.146 107.01 133.146 107.01C133.146 107.01 132.936 118.789 132.292 125.4C131.654 132.011 129.152 136.962 128.484 138.364C127.841 139.723 127.371 140.451 127.371 140.451L123.979 140.054L118.113 128.276L118.703 106.637Z" fill="#FFA828"/>
<path d="M114.174 108.401C114.174 108.401 115.238 107.865 116.784 107.282C118.186 106.752 119.449 106.59 119.449 106.59C119.449 106.59 119.485 114.398 119.612 119.969C119.72 124.715 121.477 132.493 122.331 134.575C123.185 136.656 124.725 139.832 124.725 139.832C124.725 139.832 121.627 139.387 119.72 136.969C118.715 135.693 114.017 125.828 113.855 119.325C113.692 112.822 114.33 108.238 114.174 108.401Z" fill="#FFEFAB"/>
<path d="M112.413 109.303C112.305 109.622 111.456 116.341 112.786 122.573C114.115 128.806 116.082 133.071 117.382 134.761C118.537 136.259 119.289 136.969 119.716 136.969C120.143 136.969 117.959 131.801 116.943 127.747C115.932 123.698 115.397 118.844 115.288 116.45C115.18 114.049 115.078 107.865 115.078 107.865C115.078 107.865 113.905 108.401 113.64 108.557C113.375 108.719 112.413 109.303 112.413 109.303Z" fill="#FFFCFD"/>
<path d="M120.086 157.061C120.086 157.061 122.378 153.331 122.859 150.504C123.34 147.676 123.605 145.174 123.605 145.174L125.025 145.234C125.025 145.234 124.886 149.331 124.724 152.104C124.562 154.877 124.086 157.596 124.086 157.596L120.086 157.061Z" fill="#FFEFAB"/>
<path d="M121.85 142.864C121.85 142.864 122.914 141.823 125.844 141.823C128.774 141.823 130.031 142.948 130.031 142.948L130.109 146.564C130.109 146.564 128.16 145.956 125.79 145.926C123.817 145.902 121.693 146.636 121.693 146.636L121.85 142.864ZM109.054 106.957C109.548 106.5 114.276 102.95 125.471 102.854C137.514 102.746 142.032 106.235 142.315 106.427C142.634 106.638 143.007 107.6 142.85 108.027C142.688 108.455 142.369 108.611 141.467 108.238C140.558 107.865 136.083 104.599 125.315 104.935C114.974 105.254 110.588 108.4 110.125 108.665C109.752 108.876 109.06 108.93 108.742 108.503C108.417 108.082 108.736 107.257 109.054 106.957ZM142.85 109.465C141.467 109.573 142.423 120.714 139.494 127.693C136.353 135.158 132.347 137.287 132.509 137.715C132.672 138.142 136.594 136.957 139.066 133.449C141.358 130.201 142.742 127.32 143.386 123.482C144.017 119.644 144.39 109.345 142.85 109.465ZM108.76 110.741C108.411 110.722 108.766 116.281 108.2 118.723C107.984 119.662 107.454 119.854 107.4 120.065C107.346 120.275 108.561 127.428 110.6 130.568C112.574 133.606 116.466 137.39 117.103 136.752C117.741 136.114 114.276 133.979 111.936 129.341C110.588 126.682 109.217 122.676 109.163 118.092C109.127 115.06 109.506 110.783 108.76 110.741Z" fill="#D1701C"/>
<path d="M140.199 165.301L140.193 156.705H112.6C112.684 156.705 112.618 163.695 112.606 165.331H108.684V171.558H143.725V165.331L140.199 165.301Z" fill="#865C50"/>
<path d="M121.44 161.222C120.76 161.192 119.978 161.331 119.948 162.173C119.918 163.015 119.918 165.451 119.918 165.915C119.918 166.378 120.297 166.781 121.247 166.811C122.198 166.841 131.119 166.811 131.745 166.811C132.37 166.811 132.695 166.27 132.719 165.728C132.749 165.187 132.689 162.907 132.689 162.287C132.689 161.259 131.769 161.259 131.143 161.259C130.469 161.247 121.44 161.222 121.44 161.222Z" fill="#FCC219"/>
<path d="M216.003 18.334L213.503 25.0007L206.836 27.5007L213.503 30.0007L216.003 36.6673L218.503 30.0007L225.169 27.5007L218.503 25.0007L216.003 18.334Z" fill="#F6BF25"/>
<path d="M47.9974 28.166L45.9974 33.4993L40.6641 35.4993L45.9974 37.4993L47.9974 42.8327L49.9974 37.4993L55.3307 35.4993L49.9974 33.4993L47.9974 28.166Z" fill="#F6BF25"/>
<path d="M33 132.5L30 140.5L22 143.5L30 146.5L33 154.5L36 146.5L44 143.5L36 140.5L33 132.5Z" fill="#F6BF25"/>
<path d="M195 109L193.5 113L189.5 114.5L193.5 116L195 120L196.5 116L200.5 114.5L196.5 113L195 109Z" fill="#F6BF25"/>
<path d="M229.997 167.166L227.997 172.499L222.664 174.499L227.997 176.499L229.997 181.833L231.997 176.499L237.331 174.499L231.997 172.499L229.997 167.166Z" fill="#F6BF25"/>
</svg>
