<svg width="40" height="41" viewBox="0 0 40 41" fill="none" xmlns="http://www.w3.org/2000/svg">
<rect y="0.5" width="40" height="40" rx="8" fill="#1E2028"/>
<g clip-path="url(#clip0_3916_15710)">
<path d="M24.8228 17.7003C26.2821 18.6207 28.0697 19.1622 30.0004 19.1622V15.8843C29.635 15.8844 29.2705 15.8507 28.9131 15.7838V18.364C26.9825 18.364 25.1951 17.8226 23.7356 16.9023V23.5917C23.7356 26.9381 20.6609 29.6507 16.8684 29.6507C15.4533 29.6507 14.138 29.2732 13.0454 28.6258C14.2924 29.7509 16.0315 30.4487 17.9554 30.4487C21.7482 30.4487 24.823 27.7362 24.823 24.3896V17.7003H24.8228ZM26.1642 14.3933C25.4185 13.6745 24.9288 12.7455 24.8228 11.7185V11.2969H23.7924C24.0518 12.6022 24.9366 13.7174 26.1642 14.3933ZM15.4442 26.058C15.0275 25.576 14.8022 24.9863 14.8033 24.38C14.8033 22.8496 16.2096 21.6086 17.9447 21.6086C18.268 21.6084 18.5894 21.6522 18.8976 21.7385V18.3872C18.5374 18.3437 18.174 18.3252 17.8107 18.332V20.9404C17.5024 20.8542 17.1808 20.8104 16.8574 20.8106C15.1224 20.8106 13.7161 22.0514 13.7161 23.5821C13.7161 24.6645 14.419 25.6015 15.4442 26.058Z" fill="#FF004F"/>
<path d="M23.7347 16.9023C25.1944 17.8225 26.9816 18.364 28.9122 18.364V15.7838C27.8346 15.5812 26.8806 15.0844 26.1633 14.3933C24.9356 13.7173 24.051 12.6021 23.7916 11.2969H21.0851V24.3895C21.079 25.9158 19.6751 27.1517 17.9437 27.1517C16.9236 27.1517 16.0172 26.7227 15.4432 26.0579C14.4182 25.6015 13.7152 24.6644 13.7152 23.5822C13.7152 22.0516 15.1215 20.8107 16.8565 20.8107C17.1889 20.8107 17.5093 20.8563 17.8098 20.9405V18.332C14.0839 18.4 11.0874 21.086 11.0874 24.3896C11.0874 26.0387 11.8336 27.5336 13.0447 28.626C14.1372 29.2732 15.4525 29.6508 16.8676 29.6508C20.6602 29.6508 23.7348 26.938 23.7348 23.5917L23.7347 16.9023Z" fill="white"/>
<path d="M28.9121 15.7848V15.0873C27.9403 15.0886 26.9877 14.8484 26.1632 14.3944C26.893 15.0994 27.8541 15.5855 28.9121 15.785M23.7914 11.2979C23.7667 11.1732 23.7477 11.0477 23.7345 10.9216V10.5H19.9975V23.5928C19.9916 25.119 18.5877 26.3548 16.8563 26.3548C16.3654 26.3555 15.8813 26.2542 15.443 26.0592C16.017 26.7238 16.9234 27.1528 17.9435 27.1528C19.6748 27.1528 21.0788 25.917 21.0849 24.3907V11.298L23.7914 11.2979ZM17.8098 18.3331V17.5904C17.4976 17.5528 17.1828 17.5339 16.8676 17.534C13.0746 17.534 10 20.2467 10 23.5928C10 25.6906 11.2084 27.5394 13.0446 28.627C11.8335 27.5347 11.0873 26.0397 11.0873 24.3906C11.0873 21.0872 14.0838 18.401 17.8098 18.3331Z" fill="#00F2EA"/>
</g>
<defs>
<clipPath id="clip0_3916_15710">
<rect width="20" height="20" fill="white" transform="translate(10 10.5)"/>
</clipPath>
</defs>
</svg>
