<svg width="21" height="21" viewBox="0 0 21 21" fill="none" xmlns="http://www.w3.org/2000/svg">
<path d="M18.904 18.2806H18.0706V13.0723C18.0706 8.9306 14.7123 5.57227 10.5706 5.57227C6.42897 5.57227 3.07064 8.9306 3.07064 13.0723V18.2806H2.2373C1.89564 18.2806 1.6123 18.5639 1.6123 18.9056C1.6123 19.2473 1.89564 19.5306 2.2373 19.5306H18.904C19.2456 19.5306 19.529 19.2473 19.529 18.9056C19.529 18.5639 19.2456 18.2806 18.904 18.2806Z" fill="#1B1C20"/>
<path d="M10.5708 3.69661C10.2291 3.69661 9.9458 3.41328 9.9458 3.07161V2.23828C9.9458 1.89661 10.2291 1.61328 10.5708 1.61328C10.9125 1.61328 11.1958 1.89661 11.1958 2.23828V3.07161C11.1958 3.41328 10.9125 3.69661 10.5708 3.69661Z" fill="#1B1C20"/>
<path d="M4.7375 5.36445C4.57917 5.36445 4.42083 5.30612 4.29583 5.18112L3.4625 4.34779C3.22083 4.10612 3.22083 3.70612 3.4625 3.46445C3.70417 3.22279 4.10417 3.22279 4.34583 3.46445L5.17917 4.29779C5.42083 4.53945 5.42083 4.93945 5.17917 5.18112C5.05417 5.30612 4.89583 5.36445 4.7375 5.36445Z" fill="#1B1C20"/>
<path d="M16.4042 5.36445C16.2458 5.36445 16.0875 5.30612 15.9625 5.18112C15.7208 4.93945 15.7208 4.53945 15.9625 4.29779L16.7958 3.46445C17.0375 3.22279 17.4375 3.22279 17.6792 3.46445C17.9208 3.70612 17.9208 4.10612 17.6792 4.34779L16.8458 5.18112C16.7208 5.30612 16.5625 5.36445 16.4042 5.36445Z" fill="#1B1C20"/>
</svg>
