<svg width="244" height="243" viewBox="0 0 244 243" fill="none" xmlns="http://www.w3.org/2000/svg">
<g filter="url(#filter0_d_3916_24178)">
<circle cx="122" cy="59" r="25" fill="#AEDEBC"/>
<path d="M128.903 65.2786H128.07V60.0703C128.07 55.9286 124.711 52.5703 120.57 52.5703C116.428 52.5703 113.07 55.9286 113.07 60.0703V65.2786H112.236C111.895 65.2786 111.611 65.562 111.611 65.9036C111.611 66.2453 111.895 66.5286 112.236 66.5286H128.903C129.245 66.5286 129.528 66.2453 129.528 65.9036C129.528 65.562 129.245 65.2786 128.903 65.2786Z" fill="#1B1C20"/>
<path d="M120.57 50.6966C120.229 50.6966 119.945 50.4133 119.945 50.0716V49.2383C119.945 48.8966 120.229 48.6133 120.57 48.6133C120.912 48.6133 121.195 48.8966 121.195 49.2383V50.0716C121.195 50.4133 120.912 50.6966 120.57 50.6966Z" fill="#1B1C20"/>
<path d="M114.737 52.3625C114.579 52.3625 114.421 52.3042 114.296 52.1792L113.462 51.3458C113.221 51.1042 113.221 50.7042 113.462 50.4625C113.704 50.2208 114.104 50.2208 114.346 50.4625L115.179 51.2958C115.421 51.5375 115.421 51.9375 115.179 52.1792C115.054 52.3042 114.896 52.3625 114.737 52.3625Z" fill="#1B1C20"/>
<path d="M126.404 52.3625C126.246 52.3625 126.087 52.3042 125.962 52.1792C125.721 51.9375 125.721 51.5375 125.962 51.2958L126.796 50.4625C127.037 50.2208 127.438 50.2208 127.679 50.4625C127.921 50.7042 127.921 51.1042 127.679 51.3458L126.846 52.1792C126.721 52.3042 126.563 52.3625 126.404 52.3625Z" fill="#1B1C20"/>
</g>
<defs>
<filter id="filter0_d_3916_24178" x="0.75" y="0.25" width="242.5" height="242.5" filterUnits="userSpaceOnUse" color-interpolation-filters="sRGB">
<feFlood flood-opacity="0" result="BackgroundImageFix"/>
<feColorMatrix in="SourceAlpha" type="matrix" values="0 0 0 0 0 0 0 0 0 0 0 0 0 0 0 0 0 0 127 0" result="hardAlpha"/>
<feOffset dy="62.5"/>
<feGaussianBlur stdDeviation="48.125"/>
<feColorMatrix type="matrix" values="0 0 0 0 0.690196 0 0 0 0 0.717647 0 0 0 0 0.764706 0 0 0 0.22 0"/>
<feBlend mode="normal" in2="BackgroundImageFix" result="effect1_dropShadow_3916_24178"/>
<feBlend mode="normal" in="SourceGraphic" in2="effect1_dropShadow_3916_24178" result="shape"/>
</filter>
</defs>
</svg>
