<svg width="36" height="21" viewBox="0 0 36 21" fill="none" xmlns="http://www.w3.org/2000/svg">
<path d="M34.8973 11.4419L29.2353 3.21891C29.1418 3.08502 29.0175 2.97553 28.8729 2.89966C28.7283 2.82379 28.5676 2.78375 28.4043 2.78291H23.3833V1.50091C23.3833 1.23649 23.2782 0.982895 23.0913 0.795921C22.9043 0.608947 22.6507 0.503906 22.3863 0.503906H1.35828C1.09439 0.503906 0.841309 0.608736 0.65471 0.795335C0.468111 0.981934 0.363281 1.23502 0.363281 1.49891L0.363281 20.0619C0.363281 20.4109 0.646281 20.6939 0.995281 20.6959H3.97828V20.6369C3.97828 19.475 4.43985 18.3607 5.26145 17.5391C6.08304 16.7175 7.19737 16.2559 8.35928 16.2559C9.52119 16.2559 10.6355 16.7175 11.4571 17.5391C12.2787 18.3607 12.7403 19.475 12.7403 20.6369V20.6989V20.6959H19.8053V20.6369C19.8053 19.475 20.2668 18.3607 21.0884 17.5391C21.91 16.7175 23.0244 16.2559 24.1863 16.2559C25.3482 16.2559 26.4625 16.7175 27.2841 17.5391C28.1057 18.3607 28.5673 19.475 28.5673 20.6369V20.6989V20.6959H34.5503C34.7181 20.6954 34.8788 20.6283 34.9973 20.5095C35.1158 20.3907 35.1823 20.2297 35.1823 20.0619V12.3019C35.1715 11.9916 35.0723 11.6908 34.8963 11.4349L34.9003 11.4409L34.8973 11.4419ZM15.6133 9.13691H12.9153V11.8339H10.4673V9.13991H7.76928V6.68991H10.4673V3.98291H12.9153V6.67991H15.6133V9.13691ZM33.5163 11.7269C33.4974 11.7621 33.4692 11.7915 33.4349 11.812C33.4005 11.8324 33.3613 11.8431 33.3213 11.8429H23.3853V3.98191H27.8363C27.986 3.9826 28.1334 4.01897 28.2663 4.08801C28.3992 4.15705 28.5137 4.25678 28.6003 4.37891L28.6023 4.38191L33.5083 11.5019C33.5302 11.5335 33.5426 11.5707 33.5442 11.6091C33.5458 11.6475 33.5365 11.6856 33.5173 11.7189L33.5183 11.7179L33.5163 11.7269Z" fill="#DA2750"/>
</svg>
