<svg width="154" height="154" viewBox="0 0 154 154" fill="none" xmlns="http://www.w3.org/2000/svg">
<g clip-path="url(#clip0_3916_15677)">
<path fill-rule="evenodd" clip-rule="evenodd" d="M50.2327 104.986C50.0831 103.95 49.9491 103.059 49.8758 102.588C49.4229 99.7241 49.161 92.4749 47.2643 87.5024C45.8185 83.7082 43.4196 81.2241 39.6587 82.0047C36.2405 82.7143 34.0414 86.0505 32.9077 90.7097C30.4679 100.737 32.7132 116.908 34.6532 121.619C34.8652 122.133 35.4518 122.378 35.9658 122.166C36.4777 121.955 36.7228 121.368 36.5107 120.854C34.6502 116.334 32.5182 100.811 34.8602 91.1843C35.7762 87.4217 37.307 84.5455 40.0685 83.9728C42.7935 83.4063 44.338 85.467 45.3861 88.2176C47.233 93.0566 47.4507 100.113 47.8902 102.902C48.1666 104.65 49.0326 111.346 49.245 111.902C49.5106 112.599 50.0958 112.594 50.2878 112.578C50.4366 112.566 51.1745 112.458 51.2303 111.546C52.0341 98.5432 62.2676 79.1463 76.932 66.3544C91.4674 53.6748 110.424 47.4924 128.933 60.8822C129.383 61.2066 130.012 61.1054 130.337 60.6576C130.662 60.2074 130.561 59.5785 130.111 59.2541C110.717 45.2249 90.8391 51.5554 75.6114 64.8386C62.7774 76.0331 53.2968 92.1726 50.2327 104.986Z" fill="#3BAD6B"/>
<path fill-rule="evenodd" clip-rule="evenodd" d="M128.468 59.5015C126.102 59.6378 123.742 59.6981 121.386 60.0182C115.107 60.87 108.763 63.0849 103.597 66.7917C103.145 67.1171 103.043 67.7448 103.365 68.195C103.691 68.6465 104.319 68.7483 104.769 68.4262C109.67 64.9054 115.699 62.8186 121.655 62.011C124.353 61.6459 127.058 61.6257 129.769 61.4343C129.904 61.4231 131.084 61.376 131.331 61.2975C131.905 61.1183 132.029 60.6771 132.06 60.4655C132.088 60.2891 132.079 60.0712 131.97 59.8254C131.88 59.6242 131.618 59.2828 131.171 58.9006C129.744 57.6721 126.002 55.2844 125.43 54.8275C118.865 49.5909 113.637 43.6171 107.976 37.4655C107.598 37.0584 106.962 37.0313 106.553 37.4062C106.145 37.7812 106.121 38.4171 106.496 38.8252C112.228 45.0552 117.531 51.0973 124.176 56.3965C124.569 56.7119 126.839 58.3386 128.468 59.5015Z" fill="#3BAD6B"/>
</g>
<defs>
<clipPath id="clip0_3916_15677">
<rect width="114.551" height="114.551" fill="white" transform="translate(0.50293 50.1875) rotate(-25.5519)"/>
</clipPath>
</defs>
</svg>
