<svg width="145" height="145" viewBox="0 0 145 145" fill="none" xmlns="http://www.w3.org/2000/svg">
<g clip-path="url(#clip0_3916_15681)">
<path fill-rule="evenodd" clip-rule="evenodd" d="M111.067 70.2379C110.463 71.0931 109.948 71.8327 109.678 72.2251C108.039 74.6166 103.247 80.0625 101.207 84.9782C99.6498 88.7279 99.6851 92.1811 102.954 94.1987C105.924 96.0325 109.815 95.1203 113.84 92.5149C122.504 86.9076 131.987 73.6175 133.815 68.8628C134.014 68.3436 133.756 67.7624 133.237 67.5632C132.72 67.3647 132.139 67.6223 131.94 68.1415C130.185 72.7039 121.065 85.4449 112.748 90.8284C109.497 92.9321 106.408 93.9693 104.009 92.4875C101.64 91.0262 101.934 88.4678 103.063 85.7494C105.047 80.965 109.739 75.6893 111.336 73.3616C112.336 71.9018 116.309 66.4424 116.537 65.8925C116.823 65.204 116.395 64.805 116.245 64.6846C116.128 64.5912 115.518 64.1627 114.85 64.7868C105.33 73.6799 84.5657 80.737 65.122 79.951C45.8492 79.172 27.8297 70.6347 23.587 48.188C23.483 47.6429 22.9566 47.2842 22.4124 47.3859C21.8673 47.49 21.5086 48.0163 21.6126 48.5613C26.0585 72.0806 44.849 81.1434 65.0395 81.9596C82.0559 82.6481 100.035 77.4398 111.067 70.2379Z" fill="#3BAD6B"/>
<path fill-rule="evenodd" clip-rule="evenodd" d="M22.9776 49.5114C24.7898 51.0384 26.5456 52.6165 28.4775 54.0036C33.6238 57.6999 39.7541 60.4507 46.0547 61.3089C46.6063 61.3828 47.1117 60.9968 47.1872 60.4484C47.2611 59.8968 46.8751 59.3915 46.3267 59.316C40.3465 58.5051 34.5333 55.8779 29.6511 52.3706C27.4405 50.7818 25.4616 48.9374 23.3611 47.2136C23.2552 47.1288 22.3654 46.3519 22.1326 46.2396C21.5919 45.9748 21.1989 46.2104 21.031 46.3428C20.8894 46.4516 20.7459 46.6159 20.6562 46.8694C20.5837 47.0778 20.5391 47.5056 20.6011 48.0903C20.7938 49.9639 21.8705 54.2694 21.9724 54.9949C23.1421 63.3103 22.8343 71.2428 22.7191 79.6023C22.7134 80.1573 23.1574 80.6147 23.7115 80.6228C24.2657 80.6309 24.7207 80.1861 24.7288 79.6319C24.8462 71.1665 25.1466 63.1331 23.9615 54.7168C23.8931 54.2179 23.3621 51.4761 22.9776 49.5114Z" fill="#3BAD6B"/>
</g>
<defs>
<clipPath id="clip0_3916_15681">
<rect width="114.551" height="114.551" fill="white" transform="translate(109.531 144.223) rotate(-162.138)"/>
</clipPath>
</defs>
</svg>
