<svg width="68" height="61" viewBox="0 0 68 61" fill="none" xmlns="http://www.w3.org/2000/svg">
<g clip-path="url(#clip0_3916_15667)">
<path d="M0 30.5C0 13.6553 13.6553 0 30.5 0H225V61H30.5C13.6553 61 0 47.3447 0 30.5V30.5Z" fill="#2A3735"/>
<rect x="8" y="8" width="44.2461" height="44.2461" rx="22.1231" fill="#3BAD6B"/>
<rect x="9.21191" y="9.21289" width="41.8217" height="41.8217" rx="20.9108" fill="white"/>
<path d="M38.7855 34.1568V37.6075C38.7856 37.8546 38.692 38.0925 38.5236 38.2733C38.3551 38.454 38.1244 38.5641 37.8779 38.5814C37.4515 38.6107 37.1031 38.6263 36.8338 38.6263C28.2099 38.6263 21.2197 31.6361 21.2197 23.0123C21.2197 22.743 21.2344 22.3946 21.2646 21.9681C21.2819 21.7216 21.392 21.4909 21.5728 21.3225C21.7536 21.154 21.9915 21.0604 22.2385 21.0605H25.6892C25.8103 21.0604 25.9271 21.1053 26.0169 21.1865C26.1067 21.2676 26.1631 21.3793 26.1752 21.4997C26.1977 21.7241 26.2182 21.9027 26.2377 22.0384C26.4316 23.3918 26.8291 24.7082 27.4165 25.9429C27.5093 26.138 27.4487 26.3713 27.2731 26.4962L25.1671 28.001C26.4548 31.0013 28.8458 33.3923 31.846 34.6799L33.3489 32.5778C33.4103 32.492 33.4999 32.4304 33.6021 32.4038C33.7043 32.3772 33.8126 32.3874 33.9081 32.4324C35.1426 33.0189 36.4586 33.4153 37.8116 33.6084C37.9472 33.6279 38.1258 33.6484 38.3483 33.6708C38.4686 33.6832 38.58 33.7397 38.6609 33.8295C38.7419 33.9193 38.7857 34.0359 38.7855 34.1568Z" fill="#3BAD6B"/>
</g>
<defs>
<clipPath id="clip0_3916_15667">
<rect width="68" height="61" fill="white"/>
</clipPath>
</defs>
</svg>
