<svg width="156" height="44" viewBox="0 0 156 44" fill="none" xmlns="http://www.w3.org/2000/svg">
<rect x="1.25" y="1.25" width="41.5" height="41.5" rx="20.75" fill="#C7B9DA"/>
<rect x="1.25" y="1.25" width="41.5" height="41.5" rx="20.75"/>
<rect x="1.25" y="1.25" width="41.5" height="41.5" rx="20.75" stroke="white" stroke-width="1.5"/>
<rect x="29.25" y="1.25" width="41.5" height="41.5" rx="20.75" fill="#AA9C75"/>
<rect x="29.25" y="1.25" width="41.5" height="41.5" rx="20.75"/>
<rect x="29.25" y="1.25" width="41.5" height="41.5" rx="20.75" stroke="white" stroke-width="1.5"/>
<rect x="57.25" y="1.25" width="41.5" height="41.5" rx="20.75" fill="#D4B5AD"/>
<rect x="57.25" y="1.25" width="41.5" height="41.5" rx="20.75"/>
<rect x="57.25" y="1.25" width="41.5" height="41.5" rx="20.75" stroke="white" stroke-width="1.5"/>
<rect x="85.25" y="1.25" width="41.5" height="41.5" rx="20.75" fill="#BEA887"/>
<rect x="85.25" y="1.25" width="41.5" height="41.5" rx="20.75"/>
<rect x="85.25" y="1.25" width="41.5" height="41.5" rx="20.75" stroke="white" stroke-width="1.5"/>
<rect x="113.25" y="1.25" width="41.5" height="41.5" rx="20.75" fill="#A2A8CD"/>
<rect x="113.25" y="1.25" width="41.5" height="41.5" rx="20.75"/>
<rect x="113.25" y="1.25" width="41.5" height="41.5" rx="20.75" stroke="white" stroke-width="1.5"/>
</svg>
