<svg width="20" height="20" viewBox="0 0 20 20" fill="none" xmlns="http://www.w3.org/2000/svg">
<path fill-rule="evenodd" clip-rule="evenodd" d="M7.05269 0.036576C6.5268 0.117268 5.88092 0.373019 5.39196 0.694223C5.07619 0.901637 4.52866 1.44385 4.29799 1.77752C4.03068 2.16418 3.80728 2.64973 3.68294 3.11411C3.59439 3.44497 3.58115 3.57318 3.57919 4.1186C3.57736 4.63936 3.59142 4.8011 3.66336 5.08666C3.85808 5.85939 4.24981 6.51188 4.92012 7.17999C5.42678 7.68505 5.82531 7.99855 7.28226 9.03832C8.48368 9.89577 8.97373 10.269 9.59262 10.798C9.80753 10.9817 9.99217 11.1319 10.0029 11.1318C10.0137 11.1317 10.251 10.9367 10.5304 10.6984C11.1127 10.2019 12.0681 9.47406 13.1681 8.68914C15.3115 7.15956 16.0304 6.34326 16.3407 5.08666C16.4439 4.66867 16.462 3.80658 16.3766 3.37615C16.0356 1.65815 14.703 0.348909 12.9969 0.0557231C11.9584 -0.122697 11.0532 0.12688 10.2569 0.811177L9.98338 1.04622L9.788 0.858771C9.43542 0.520413 8.96389 0.25247 8.47227 0.111094C8.14341 0.01653 7.42821 -0.0209828 7.05269 0.036576ZM10.5891 4.13813V4.72427H11.1752H11.7613V5.31041V5.89655H11.1752H10.5891V6.48269V7.06882H10.0029H9.41678V6.48269V5.89655H8.83064H8.2445V5.31041V4.72427H8.83064H9.41678V4.13813V3.552H10.0029H10.5891V4.13813ZM0.519007 5.44346C0.167637 5.73915 0.00066589 6.72089 1.6008e-06 8.49509C-0.000545461 9.88592 0.139229 12.0925 0.257394 12.559C0.290062 12.6879 0.393261 12.952 0.48677 13.1459C0.828254 13.8538 1.38376 14.52 2.61715 15.7007C4.03072 17.0538 4.89507 17.9345 5.17114 18.3031C5.57187 18.8382 5.89995 19.5631 5.89995 19.9134V20.0029H7.66012H9.42025L9.40802 17.2969L9.39575 14.5909L9.28673 14.2392C9.0962 13.6247 8.70755 13.0097 8.29194 12.6652C8.19061 12.5813 7.9231 12.3897 7.69744 12.2395C6.48304 11.4311 5.40146 10.9267 4.65515 10.8209C3.74476 10.6918 3.39448 11.1585 3.80931 11.948C4.04467 12.3959 4.3509 12.6687 5.76318 13.6885C6.47241 14.2007 7.06832 14.6341 7.08743 14.6518C7.10688 14.6697 6.97086 14.8908 6.77798 15.1547L6.4338 15.6257L6.31341 15.5344C6.24722 15.4842 5.771 15.1384 5.2552 14.766C3.82189 13.7311 3.61479 13.5705 3.37666 13.3091C2.90564 12.792 2.45994 11.989 2.30966 11.3867C2.26675 11.2148 2.20298 10.7488 2.16797 10.3512C1.93258 7.67923 1.49536 5.86454 0.995029 5.48293C0.802151 5.33581 0.660892 5.32409 0.519007 5.44346ZM19.1197 5.40587C18.5517 5.65693 18.1123 7.35884 17.8209 10.4364C17.7176 11.528 17.5671 11.981 17.0457 12.7696C16.6863 13.3133 16.3513 13.6088 14.9265 14.6392C14.2065 15.1599 13.6053 15.5907 13.5904 15.5964C13.5627 15.6072 12.8945 14.7352 12.8945 14.6883C12.8945 14.674 13.4868 14.233 14.2108 13.7083C14.9347 13.1836 15.6337 12.6463 15.7641 12.5142C16.2656 12.0061 16.4878 11.4303 16.3128 11.0921C16.2425 10.956 16.0303 10.8403 15.7861 10.8048C15.5522 10.7709 15.0166 10.8672 14.6081 11.0167C13.6488 11.3679 12.1991 12.2107 11.5999 12.7653C11.3029 13.0404 10.9439 13.578 10.8098 13.9486C10.5916 14.5519 10.5905 14.5695 10.5897 17.3946L10.5891 20.0029H12.3421H14.0951L14.1204 19.788C14.1343 19.6698 14.1902 19.4544 14.2446 19.3093C14.4986 18.6329 14.9862 18.0232 16.2261 16.8317C17.6353 15.4774 18.549 14.5511 18.8341 14.1879C19.2181 13.6984 19.5164 13.2025 19.6519 12.8278C19.8434 12.2987 19.9495 11.1498 19.9927 9.13984C20.0516 6.39336 19.7551 5.12503 19.1197 5.40587Z" fill="white"/>
</svg>
