<svg width="30" height="31" viewBox="0 0 30 31" fill="none" xmlns="http://www.w3.org/2000/svg">
<circle cx="15" cy="15.2969" r="15" fill="white"/>
<g clip-path="url(#clip0_4069_7829)">
<path d="M19.25 7.29688H10.75C8.67893 7.29688 7 8.97581 7 11.0469V19.5469C7 21.6179 8.67893 23.2969 10.75 23.2969H19.25C21.3211 23.2969 23 21.6179 23 19.5469V11.0469C23 8.97581 21.3211 7.29688 19.25 7.29688Z" fill="url(#paint0_radial_4069_7829)"/>
<path d="M19.25 7.29688H10.75C8.67893 7.29688 7 8.97581 7 11.0469V19.5469C7 21.6179 8.67893 23.2969 10.75 23.2969H19.25C21.3211 23.2969 23 21.6179 23 19.5469V11.0469C23 8.97581 21.3211 7.29688 19.25 7.29688Z" fill="url(#paint1_radial_4069_7829)"/>
<path d="M15.0006 9.04688C13.3032 9.04688 13.0901 9.05431 12.4235 9.08463C11.7581 9.11513 11.3039 9.22044 10.9066 9.375C10.4954 9.53462 10.1468 9.74819 9.79938 10.0957C9.45169 10.4431 9.23813 10.7918 9.078 11.2027C8.923 11.6003 8.81756 12.0546 8.78762 12.7197C8.75781 13.3864 8.75 13.5995 8.75 15.2969C8.75 16.9944 8.7575 17.2067 8.78775 17.8734C8.81838 18.5387 8.92369 18.9929 9.07812 19.3903C9.23787 19.8014 9.45144 20.1501 9.79894 20.4975C10.1463 20.8452 10.4949 21.0592 10.9058 21.2189C11.3034 21.3734 11.7577 21.4787 12.4229 21.5092C13.0896 21.5396 13.3025 21.547 14.9998 21.547C16.6974 21.547 16.9097 21.5396 17.5764 21.5092C18.2417 21.4787 18.6964 21.3734 19.0941 21.2189C19.5051 21.0592 19.8532 20.8452 20.2005 20.4975C20.5482 20.1501 20.7617 19.8014 20.9219 19.3905C21.0755 18.9929 21.181 18.5386 21.2122 17.8735C21.2422 17.2069 21.25 16.9944 21.25 15.2969C21.25 13.5995 21.2422 13.3865 21.2122 12.7198C21.181 12.0544 21.0755 11.6003 20.9219 11.2029C20.7617 10.7918 20.5482 10.4431 20.2005 10.0957C19.8529 9.74806 19.5052 9.5345 19.0938 9.37506C18.6953 9.22044 18.2409 9.11506 17.5755 9.08463C16.9088 9.05431 16.6966 9.04688 14.9986 9.04688H15.0006ZM14.4399 10.1732C14.6063 10.1729 14.792 10.1732 15.0006 10.1732C16.6694 10.1732 16.8671 10.1792 17.5261 10.2091C18.1355 10.237 18.4663 10.3388 18.6866 10.4244C18.9783 10.5376 19.1862 10.6731 19.4048 10.8919C19.6236 11.1106 19.7589 11.3189 19.8725 11.6106C19.9581 11.8306 20.06 12.1614 20.0878 12.7708C20.1177 13.4296 20.1242 13.6275 20.1242 15.2955C20.1242 16.9635 20.1177 17.1614 20.0878 17.8202C20.0599 18.4296 19.9581 18.7604 19.8725 18.9804C19.7593 19.2721 19.6236 19.4798 19.4048 19.6984C19.1861 19.9172 18.9784 20.0526 18.6866 20.1659C18.4665 20.2518 18.1355 20.3534 17.5261 20.3813C16.8673 20.4112 16.6694 20.4177 15.0006 20.4177C13.3317 20.4177 13.1339 20.4112 12.4751 20.3813C11.8657 20.3531 11.5349 20.2513 11.3144 20.1657C11.0228 20.0524 10.8144 19.9171 10.5957 19.6983C10.3769 19.4796 10.2416 19.2718 10.128 18.9799C10.0424 18.7599 9.9405 18.4291 9.91275 17.8197C9.88281 17.1609 9.87681 16.963 9.87681 15.2939C9.87681 13.6249 9.88281 13.4281 9.91275 12.7692C9.94062 12.1598 10.0424 11.8291 10.128 11.6087C10.2413 11.3171 10.3769 11.1088 10.5958 10.89C10.8146 10.6713 11.0228 10.5358 11.3145 10.4223C11.5348 10.3364 11.8657 10.2348 12.4751 10.2068C13.0516 10.1807 13.2751 10.1729 14.4399 10.1716V10.1732ZM18.3368 11.2109C17.9228 11.2109 17.5868 11.5466 17.5868 11.9607C17.5868 12.3748 17.9228 12.7107 18.3368 12.7107C18.7509 12.7107 19.0868 12.3748 19.0868 11.9607C19.0868 11.5466 18.7509 11.2107 18.3368 11.2107V11.2109ZM15.0006 12.0873C13.2281 12.0873 11.7909 13.5244 11.7909 15.2969C11.7909 17.0695 13.2281 18.5059 15.0006 18.5059C16.7731 18.5059 18.2098 17.0695 18.2098 15.2969C18.2098 13.5244 16.773 12.0873 15.0004 12.0873H15.0006ZM15.0006 13.2136C16.1511 13.2136 17.0839 14.1463 17.0839 15.2969C17.0839 16.4475 16.1511 17.3803 15.0006 17.3803C13.85 17.3803 12.9173 16.4475 12.9173 15.2969C12.9173 14.1463 13.8499 13.2136 15.0006 13.2136Z" fill="white"/>
</g>
<defs>
<radialGradient id="paint0_radial_4069_7829" cx="0" cy="0" r="1" gradientUnits="userSpaceOnUse" gradientTransform="translate(11.25 24.5292) rotate(-90) scale(15.8572 14.7484)">
<stop stop-color="#FFDD55"/>
<stop offset="0.1" stop-color="#FFDD55"/>
<stop offset="0.5" stop-color="#FF543E"/>
<stop offset="1" stop-color="#C837AB"/>
</radialGradient>
<radialGradient id="paint1_radial_4069_7829" cx="0" cy="0" r="1" gradientUnits="userSpaceOnUse" gradientTransform="translate(4.31994 8.44944) rotate(78.681) scale(7.08825 29.218)">
<stop stop-color="#3771C8"/>
<stop offset="0.128" stop-color="#3771C8"/>
<stop offset="1" stop-color="#6600FF" stop-opacity="0"/>
</radialGradient>
<clipPath id="clip0_4069_7829">
<rect width="16" height="16" fill="white" transform="translate(7 7.29688)"/>
</clipPath>
</defs>
</svg>
