<svg width="30" height="31" viewBox="0 0 30 31" fill="none" xmlns="http://www.w3.org/2000/svg">
<circle cx="15" cy="15.2969" r="15" fill="white"/>
<path d="M10.5814 23.2969H7.26429V12.6145H10.5814V23.2969ZM8.92107 11.1573C7.86036 11.1573 7 10.2787 7 9.21799C7 8.70848 7.2024 8.21984 7.56267 7.85956C7.92294 7.49928 8.41157 7.29688 8.92107 7.29688C9.43057 7.29688 9.9192 7.49928 10.2795 7.85956C10.6397 8.21984 10.8421 8.70848 10.8421 9.21799C10.8421 10.2787 9.98143 11.1573 8.92107 11.1573ZM22.9964 23.2969H19.6864V18.0968C19.6864 16.8574 19.6614 15.2681 17.9618 15.2681C16.2371 15.2681 15.9729 16.6146 15.9729 18.0075V23.2969H12.6593V12.6145H15.8407V14.0717H15.8871C16.33 13.2324 17.4118 12.3466 19.0257 12.3466C22.3829 12.3466 23 14.5574 23 17.4289V23.2969H22.9964Z" fill="#0A66C2"/>
</svg>
