<svg width="179" height="179" viewBox="0 0 179 179" fill="none" xmlns="http://www.w3.org/2000/svg">
<path d="M55.9374 134.25C49.0884 134.251 42.5135 131.56 37.6302 126.758C32.747 121.956 29.9467 115.426 29.8332 108.578C29.162 102.127 29.2589 92.6101 33.622 81.624C38.0821 70.3918 46.7785 58.1452 62.6499 46.2417C63.4334 45.654 64.3251 45.2264 65.2739 44.9833C66.2227 44.7403 67.21 44.6864 68.1796 44.825C70.1378 45.1047 71.9047 46.1509 73.0915 47.7333C74.2784 49.3158 74.788 51.3049 74.5082 53.2631C74.2285 55.2213 73.1823 56.9882 71.5999 58.175C59.9351 66.9236 53.2524 75.4261 49.4263 82.8621C53.0134 81.9409 56.7556 81.7935 60.4041 82.4298C64.0526 83.0661 67.5239 84.4715 70.5875 86.5525C73.6511 88.6336 76.2368 91.3428 78.1728 94.5C80.1088 97.6573 81.3508 101.19 81.8164 104.865C82.2819 108.539 81.9603 112.27 80.8729 115.81C79.7855 119.351 77.9572 122.619 75.5095 125.398C73.0617 128.178 70.0506 130.405 66.6761 131.931C63.3016 133.457 59.6409 134.247 55.9374 134.25ZM123.062 134.25C116.213 134.251 109.638 131.56 104.755 126.758C99.872 121.956 97.0717 115.426 96.9582 108.578C96.287 102.127 96.3839 92.6101 100.747 81.624C105.2 70.3918 113.904 58.1452 129.775 46.2417C130.558 45.654 131.45 45.2264 132.399 44.9833C133.348 44.7403 134.335 44.6864 135.305 44.825C137.263 45.1047 139.03 46.1509 140.217 47.7333C141.403 49.3158 141.913 51.3049 141.633 53.2631C141.354 55.2213 140.307 56.9882 138.725 58.175C127.06 66.9236 120.377 75.4261 116.551 82.8621C120.138 81.9409 123.881 81.7935 127.529 82.4298C131.178 83.0661 134.649 84.4715 137.712 86.5525C140.776 88.6336 143.362 91.3428 145.298 94.5C147.234 97.6573 148.476 101.19 148.941 104.865C149.407 108.539 149.085 112.27 147.998 115.81C146.911 119.351 145.082 122.619 142.634 125.398C140.187 128.178 137.176 130.405 133.801 131.931C130.427 133.457 126.766 134.247 123.062 134.25Z" fill="#C5E9CF"/>
</svg>
