<svg width="179" height="179" viewBox="0 0 179 179" fill="none" xmlns="http://www.w3.org/2000/svg">
<g clip-path="url(#clip0_4588_7411)">
<path d="M123.063 134.25C129.912 134.251 136.487 131.56 141.37 126.758C146.253 121.956 149.053 115.426 149.167 108.578C149.838 102.127 149.741 92.6101 145.378 81.624C140.918 70.3918 132.221 58.1452 116.35 46.2417C115.567 45.654 114.675 45.2264 113.726 44.9833C112.777 44.7403 111.79 44.6864 110.82 44.825C108.862 45.1047 107.095 46.1509 105.908 47.7333C104.722 49.3158 104.212 51.3049 104.492 53.2631C104.771 55.2213 105.818 56.9882 107.4 58.175C119.065 66.9236 125.748 75.4261 129.574 82.8621C125.987 81.9409 122.244 81.7935 118.596 82.4298C114.947 83.0661 111.476 84.4715 108.413 86.5525C105.349 88.6336 102.763 91.3428 100.827 94.5C98.8912 97.6573 97.6492 101.19 97.1836 104.865C96.7181 108.539 97.0397 112.27 98.1271 115.81C99.2145 119.351 101.043 122.619 103.491 125.398C105.938 128.178 108.949 130.405 112.324 131.931C115.698 133.457 119.359 134.247 123.063 134.25ZM55.9376 134.25C62.7866 134.251 69.3615 131.56 74.2448 126.758C79.128 121.956 81.9283 115.426 82.0418 108.578C82.713 102.127 82.6161 92.6101 78.2529 81.624C73.8003 70.3918 65.0965 58.1452 49.2251 46.2417C48.4416 45.654 47.5499 45.2264 46.6011 44.9833C45.6523 44.7403 44.6649 44.6864 43.6953 44.825C41.7372 45.1047 39.9703 46.1509 38.7834 47.7333C37.5966 49.3158 37.087 51.3049 37.3667 53.2631C37.6465 55.2213 38.6927 56.9882 40.2751 58.175C51.94 66.9236 58.6226 75.4261 62.4487 82.8621C58.8616 81.9409 55.1194 81.7935 51.4709 82.4298C47.8224 83.0661 44.3511 84.4715 41.2875 86.5525C38.2239 88.6336 35.6382 91.3428 33.7022 94.5C31.7662 97.6573 30.5242 101.19 30.0586 104.865C29.5931 108.539 29.9147 112.27 31.0021 115.81C32.0895 119.351 33.9178 122.619 36.3655 125.398C38.8133 128.178 41.8244 130.405 45.1989 131.931C48.5734 133.457 52.234 134.247 55.9376 134.25Z" fill="#C5E9CF"/>
</g>
<defs>
<clipPath id="clip0_4588_7411">
<rect width="179" height="179" fill="white" transform="matrix(1 0 0 -1 0 179)"/>
</clipPath>
</defs>
</svg>
