<svg width="21" height="20" viewBox="0 0 21 20" fill="none" xmlns="http://www.w3.org/2000/svg">
<g id="Send">
<path id="Send_2" d="M19.9354 0.581983C19.4352 0.0685981 18.6949 -0.122663 18.0046 0.0786645L1.908 4.75952C1.1797 4.96186 0.663487 5.54269 0.52443 6.28055C0.382372 7.0315 0.878575 7.98479 1.52684 8.38342L6.5599 11.4768C7.07611 11.7939 7.74238 11.7144 8.16956 11.2835L13.9329 5.4843C14.223 5.18231 14.7032 5.18231 14.9934 5.4843C15.2835 5.77623 15.2835 6.24935 14.9934 6.55134L9.21999 12.3516C8.79181 12.7814 8.71178 13.4508 9.02691 13.9702L12.1022 19.0538C12.4623 19.6577 13.0826 20 13.7628 20C13.8429 20 13.9329 20 14.013 19.9899C14.7933 19.8893 15.4135 19.3558 15.6436 18.6008L20.4156 2.52479C20.6257 1.84028 20.4356 1.09537 19.9354 0.581983Z" fill="white"/>
</g>
</svg>
