<svg width="36" height="29" viewBox="0 0 36 29" fill="none" xmlns="http://www.w3.org/2000/svg">
<path d="M18.8743 0.224831L35.0761 9.18421C35.9425 9.66577 36.2575 10.7577 35.7737 11.62C35.2899 12.4824 34.1929 12.796 33.3266 12.3144L18.0023 3.84218L2.67237 12.32C1.80602 12.8016 0.709018 12.488 0.225212 11.6256C-0.258594 10.7633 0.0564423 9.67137 0.922793 9.18981L17.1303 0.224831C17.676 -0.0775478 18.3342 -0.0775478 18.8799 0.224831H18.8743ZM18.0023 8.96022C18.5991 8.96022 19.1714 9.19621 19.5935 9.61626C20.0155 10.0363 20.2525 10.606 20.2525 11.2001C20.2525 11.7941 20.0155 12.3638 19.5935 12.7839C19.1714 13.2039 18.5991 13.4399 18.0023 13.4399C17.4055 13.4399 16.8331 13.2039 16.4111 12.7839C15.9891 12.3638 15.752 11.7941 15.752 11.2001C15.752 10.606 15.9891 10.0363 16.4111 9.61626C16.8331 9.19621 17.4055 8.96022 18.0023 8.96022ZM8.10113 14.3358C8.69793 14.3358 9.2703 14.5718 9.6923 14.9919C10.1143 15.4119 10.3514 15.9816 10.3514 16.5757C10.3514 17.1697 10.1143 17.7394 9.6923 18.1595C9.2703 18.5795 8.69793 18.8155 8.10113 18.8155C7.50432 18.8155 6.93196 18.5795 6.50995 18.1595C6.08795 17.7394 5.85087 17.1697 5.85087 16.5757C5.85087 15.9816 6.08795 15.4119 6.50995 14.9919C6.93196 14.5718 7.50432 14.3358 8.10113 14.3358ZM25.6532 16.5757C25.6532 15.9816 25.8902 15.4119 26.3123 14.9919C26.7343 14.5718 27.3066 14.3358 27.9034 14.3358C28.5002 14.3358 29.0726 14.5718 29.4946 14.9919C29.9166 15.4119 30.1537 15.9816 30.1537 16.5757C30.1537 17.1697 29.9166 17.7394 29.4946 18.1595C29.0726 18.5795 28.5002 18.8155 27.9034 18.8155C27.3066 18.8155 26.7343 18.5795 26.3123 18.1595C25.8902 17.7394 25.6532 17.1697 25.6532 16.5757ZM12.7648 27.5173L11.2515 24.7231V26.879C11.2515 27.8701 10.447 28.6708 9.45128 28.6708H6.75097C5.75523 28.6708 4.95076 27.8701 4.95076 26.879V24.7231L3.43746 27.5173C3.08304 28.1725 2.26732 28.4133 1.60912 28.0661C0.950921 27.7189 0.709018 26.9014 1.05781 26.2462L3.18993 22.3097C4.05066 20.7138 5.7271 19.7171 7.54981 19.7171H8.64682C9.5638 19.7171 10.4414 19.9691 11.2009 20.4226L13.0911 16.9341C13.9518 15.3382 15.6283 14.3414 17.451 14.3414H18.548C20.3707 14.3414 22.0415 15.3382 22.9078 16.9341L24.7981 20.4226C25.5575 19.9691 26.4351 19.7171 27.3521 19.7171H28.4491C30.2718 19.7171 31.9426 20.7138 32.809 22.3097L34.9411 26.2462C35.2955 26.9014 35.048 27.7133 34.3898 28.0661C33.7316 28.4189 32.9159 28.1725 32.5615 27.5173L31.0538 24.7231V26.879C31.0538 27.8701 30.2493 28.6708 29.2536 28.6708H26.5533C25.5575 28.6708 24.7531 27.8701 24.7531 26.879V24.7231L23.2398 27.5173C22.8853 28.1725 22.0696 28.4133 21.4114 28.0661C20.7532 27.7189 20.5113 26.9014 20.8601 26.2462L22.9022 22.4665C22.8066 22.3713 22.7222 22.2649 22.6603 22.1417L21.1526 19.3475V22.3993C21.1526 23.3904 20.3482 24.1912 19.3524 24.1912H16.6521C15.6564 24.1912 14.8519 23.3904 14.8519 22.3993V19.3475L13.3386 22.1417C13.2711 22.2649 13.1923 22.3713 13.0967 22.4665L15.1388 26.2462C15.4932 26.9014 15.2457 27.7133 14.5875 28.0661C13.9293 28.4189 13.1136 28.1725 12.7592 27.5173H12.7648Z" fill="#3BAD6B"/>
</svg>
