<svg width="80" height="80" viewBox="0 0 80 80" fill="none" xmlns="http://www.w3.org/2000/svg">
<path fill-rule="evenodd" clip-rule="evenodd" d="M0 12C7.62742 12 12 7.62742 12 0C12 7.62742 16.3726 12 24 12C16.3726 12 12 16.3726 12 24C12 16.3726 7.62742 12 0 12Z" fill="#FEC84B"/>
<path fill-rule="evenodd" clip-rule="evenodd" d="M64 24C69.0849 24 72 21.0849 72 16C72 21.0849 74.9151 24 80 24C74.9151 24 72 26.9151 72 32C72 26.9151 69.0849 24 64 24Z" fill="#FEC84B"/>
<path d="M37.3461 24.2689L36.0768 22.9997C33.188 20.1108 28.5042 20.1108 25.6153 22.9997L22.9999 25.6151C20.111 28.5039 20.111 33.1877 22.9999 36.0766L24.2691 37.3458M55.6537 42.5766L56.9999 43.9228C59.8888 46.8116 59.8888 51.4954 56.9999 54.3843L54.3845 56.9997C51.4957 59.8886 46.8119 59.8886 43.923 56.9997L42.5769 55.6535M34.7307 42.5766L37.3461 45.1919C38.0683 45.9142 39.2393 45.9142 39.9615 45.1919L45.1922 39.9612C45.9145 39.239 45.9145 38.068 45.1922 37.3458L42.5769 34.7304C41.8546 34.0082 40.6837 34.0082 39.9615 34.7304L34.7307 39.9612C34.0085 40.6834 34.0085 41.8543 34.7307 42.5766Z" stroke="#E8E9ED" stroke-width="3.83333"/>
<path d="M43.923 22.9997C46.8119 20.1108 51.4957 20.1108 54.3845 22.9997L56.9999 25.6151C59.8888 28.5039 59.8888 33.1877 56.9999 36.0766L53.0768 39.9997L39.9999 53.0766L36.0768 56.9997C33.188 59.8886 28.5042 59.8886 25.6153 56.9997L22.9999 54.3843C20.111 51.4954 20.111 46.8116 22.9999 43.9228L26.923 39.9997L39.9999 26.9227L43.923 22.9997Z" stroke="white" stroke-width="3.83333"/>
</svg>
