<svg width="24" height="25" viewBox="0 0 24 25" fill="none" xmlns="http://www.w3.org/2000/svg">
<g clip-path="url(#clip0_4346_11930)">
<path fill-rule="evenodd" clip-rule="evenodd" d="M12.3584 0.584773C12.2472 0.529027 12.1244 0.5 12 0.5C11.8756 0.5 11.7528 0.529027 11.6416 0.584773L2.0576 5.37677C1.92067 5.44162 1.80497 5.54401 1.72396 5.67204C1.64296 5.80007 1.59997 5.94847 1.6 6.09997V22.9H0V24.5H8V16.5H16V24.5H24V22.9H22.4V6.09997C22.4 5.94847 22.357 5.80007 22.276 5.67204C22.195 5.54401 22.0793 5.44162 21.9424 5.37677L12.3584 0.584773ZM11.2 8.49997V5.29997H12.8V8.49997H16V10.1H12.8V13.3H11.2V10.1H8V8.49997H11.2Z" fill="#3BAD6B"/>
<path d="M14.4016 24.4996V18.0996H9.60156V24.4996H14.4016Z" fill="#3BAD6B"/>
</g>
<defs>
<clipPath id="clip0_4346_11930">
<rect width="24" height="24" fill="white" transform="translate(0 0.5)"/>
</clipPath>
</defs>
</svg>
