<svg width="30" height="31" viewBox="0 0 30 31" fill="none" xmlns="http://www.w3.org/2000/svg">
<circle cx="15" cy="15.2969" r="15" fill="white"/>
<g clip-path="url(#clip0_4069_7819)">
<path d="M24 11.0013C23.3634 11.2858 22.6882 11.4725 21.9968 11.5553C22.717 11.1198 23.2699 10.4304 23.5303 9.60885C22.8457 10.0186 22.0967 10.3074 21.3156 10.4626C20.6794 9.77886 19.773 9.35156 18.7698 9.35156C16.8436 9.35156 15.2819 10.9268 15.2819 12.8696C15.2819 13.1454 15.3128 13.4139 15.3722 13.6715C12.4736 13.5247 9.90368 12.1241 8.18343 9.99556C7.88327 10.5152 7.71128 11.1196 7.71128 11.7643C7.71128 12.9849 8.32706 14.0617 9.26286 14.6926C8.70899 14.6751 8.16731 14.5242 7.68305 14.2525C7.68288 14.2672 7.68281 14.282 7.68286 14.2968C7.68286 16.0014 8.88507 17.4233 10.4806 17.7465C9.96695 17.8874 9.42823 17.908 8.90553 17.8068C9.34932 19.2045 10.6374 20.2217 12.1636 20.2501C10.9699 21.1937 9.466 21.7562 7.832 21.7562C7.55044 21.7562 7.27286 21.7395 7 21.707C8.54348 22.7052 10.3768 23.2877 12.3464 23.2877C18.7617 23.2877 22.2697 17.9267 22.2697 13.2777C22.2697 13.1251 22.2664 12.9733 22.2596 12.8225C22.9424 12.3245 23.5317 11.7078 24 11.0013Z" fill="#55ACEE"/>
</g>
<defs>
<clipPath id="clip0_4069_7819">
<rect width="17" height="14" fill="white" transform="translate(7 9.29688)"/>
</clipPath>
</defs>
</svg>
