<svg width="37" height="37" viewBox="0 0 37 37" fill="none" xmlns="http://www.w3.org/2000/svg">
<path d="M26.3123 22.084C26.4557 20.9015 26.5632 19.719 26.5632 18.5007C26.5632 17.2823 26.4557 16.0998 26.3123 14.9173H32.3682C32.6548 16.064 32.834 17.2644 32.834 18.5007C32.834 19.7369 32.6548 20.9373 32.3682 22.084M23.1411 32.0456C24.2161 30.0569 25.0402 27.9069 25.6136 25.6673H30.899C29.1632 28.6563 26.4093 30.9205 23.1411 32.0456ZM22.6932 22.084H14.3082C14.129 20.9015 14.0215 19.719 14.0215 18.5007C14.0215 17.2823 14.129 16.0819 14.3082 14.9173H22.6932C22.8544 16.0819 22.9798 17.2823 22.9798 18.5007C22.9798 19.719 22.8544 20.9015 22.6932 22.084ZM18.5007 32.7623C17.0136 30.6123 15.8132 28.2294 15.0786 25.6673H21.9227C21.1882 28.2294 19.9877 30.6123 18.5007 32.7623ZM11.334 11.334H6.10232C7.81988 8.33659 10.5719 6.06871 13.8423 4.95565C12.7673 6.9444 11.9611 9.0944 11.334 11.334ZM6.10232 25.6673H11.334C11.9611 27.9069 12.7673 30.0569 13.8423 32.0456C10.5784 30.921 7.83 28.6562 6.10232 25.6673ZM4.63315 22.084C4.34648 20.9373 4.16732 19.7369 4.16732 18.5007C4.16732 17.2644 4.34648 16.064 4.63315 14.9173H10.689C10.5457 16.0998 10.4382 17.2823 10.4382 18.5007C10.4382 19.719 10.5457 20.9015 10.689 22.084M18.5007 4.22107C19.9877 6.37107 21.1882 8.7719 21.9227 11.334H15.0786C15.8132 8.7719 17.0136 6.37107 18.5007 4.22107ZM30.899 11.334H25.6136C25.052 9.1152 24.2217 6.97326 23.1411 4.95565C26.4377 6.0844 29.179 8.35982 30.899 11.334ZM18.5007 0.583984C8.59273 0.583984 0.583984 8.64648 0.583984 18.5007C0.583984 23.2524 2.47163 27.8096 5.83165 31.1696C7.49537 32.8334 9.47049 34.1531 11.6442 35.0535C13.818 35.9539 16.1478 36.4173 18.5007 36.4173C23.2524 36.4173 27.8096 34.5297 31.1696 31.1696C34.5297 27.8096 36.4173 23.2524 36.4173 18.5007C36.4173 16.1478 35.9539 13.818 35.0535 11.6442C34.1531 9.47049 32.8334 7.49537 31.1696 5.83165C29.5059 4.16794 27.5308 2.84821 25.3571 1.94781C23.1833 1.04741 20.8535 0.583984 18.5007 0.583984Z" fill="#3BAD6B"/>
</svg>
