<svg width="45" height="45" viewBox="0 0 45 45" fill="none" xmlns="http://www.w3.org/2000/svg">
<g clip-path="url(#clip0_3916_15849)">
<path d="M22.5 0C19.5577 0 17.3077 2.25 17.3077 5.19231V15.5769C17.3077 18.5192 19.5577 20.7692 22.5 20.7692H32.8846L39.8077 27.6923V20.7692C42.75 20.7692 45 18.5192 45 15.5769V5.19231C45 2.25 42.75 0 39.8077 0H22.5ZM29.7485 5.19231H32.7219L35.6435 15.5769H33.0473L32.3429 12.9808H29.7467L29.0994 15.5769H26.8269L29.7485 5.19231ZM31.1538 6.92308C30.9808 7.61539 30.7869 8.46 30.6121 8.97923L30.1275 11.25H32.1819L31.6938 8.9775C31.3494 8.46 31.1538 7.61539 31.1538 6.92308ZM5.19231 17.3077C2.25 17.3077 0 19.5577 0 22.5V32.8846C0 35.8269 2.25 38.0769 5.19231 38.0769V45L12.1154 38.0769H22.5C25.4423 38.0769 27.6923 35.8269 27.6923 32.8846V22.5H22.5C19.2115 22.5 16.605 20.25 15.7396 17.3077H5.19231ZM13.1435 22.3373C16.0858 22.3373 17.4704 24.7604 17.4704 27.5296C17.4704 29.9527 16.6379 31.4896 15.2533 32.1819C15.9456 32.5281 16.766 32.7115 17.6313 32.8846L16.984 34.6154C15.7725 34.2692 14.516 33.7292 13.3044 33.2083C13.1313 33.0352 12.8285 33.0473 12.6554 33.0473C10.5785 32.8742 8.65385 31.1538 8.65385 27.6923C8.65385 24.75 10.3742 22.3373 13.1435 22.3373ZM13.1435 24.2308C11.7588 24.2308 11.0873 25.7885 11.0873 27.6923C11.0873 29.7692 11.7588 31.1538 13.1435 31.1538C14.5281 31.1538 15.2515 29.5962 15.2515 27.6923C15.2515 25.7885 14.5281 24.2308 13.1435 24.2308Z" fill="white"/>
</g>
<defs>
<clipPath id="clip0_3916_15849">
<rect width="45" height="45" fill="white"/>
</clipPath>
</defs>
</svg>
