<svg width="1440" height="384" viewBox="0 0 1440 384" fill="none" xmlns="http://www.w3.org/2000/svg">
<g clip-path="url(#clip0_3916_15649)">
<rect width="1440" height="384" fill="#3BAD6B"/>
<g opacity="0.3">
<path d="M237.358 108.825L231.525 98.7333C230.744 97.395 229.468 96.4181 227.972 96.0142C226.476 95.6102 224.881 95.8117 223.533 96.575L200.667 109.817V83.3333C200.667 80.125 198.042 77.5 194.833 77.5H183.167C179.958 77.5 177.333 80.125 177.333 83.3333V109.817L154.408 96.575C153.75 96.1906 153.022 95.94 152.266 95.8375C151.511 95.735 150.743 95.7827 150.005 95.9778C149.268 96.1729 148.577 96.5116 147.971 96.9744C147.365 97.4373 146.857 98.0152 146.475 98.675L140.642 108.767C139.008 111.567 139.942 115.183 142.742 116.758L165.667 130L142.742 143.242C139.942 144.875 139.008 148.433 140.583 151.233L146.417 161.325C148.05 164.125 151.608 165.058 154.408 163.483L177.333 150.183V176.667C177.333 179.875 179.958 182.5 183.167 182.5H194.833C198.042 182.5 200.667 179.875 200.667 176.667V150.183L223.592 163.425C226.392 165.058 229.95 164.067 231.583 161.267L237.417 151.175C239.05 148.375 238.058 144.817 235.258 143.183L212.333 130L235.258 116.758C238.058 115.183 238.992 111.567 237.358 108.825Z" fill="#5DBA7F"/>
</g>
<g opacity="0.3">
<path d="M1308.36 248.825L1302.52 238.733C1301.74 237.395 1300.47 236.418 1298.97 236.014C1297.48 235.61 1295.88 235.812 1294.53 236.575L1271.67 249.817V223.333C1271.67 220.125 1269.04 217.5 1265.83 217.5H1254.17C1250.96 217.5 1248.33 220.125 1248.33 223.333V249.817L1225.41 236.575C1224.75 236.191 1224.02 235.94 1223.27 235.837C1222.51 235.735 1221.74 235.783 1221.01 235.978C1220.27 236.173 1219.58 236.512 1218.97 236.974C1218.37 237.437 1217.86 238.015 1217.47 238.675L1211.64 248.767C1210.01 251.567 1210.94 255.183 1213.74 256.758L1236.67 270L1213.74 283.242C1210.94 284.875 1210.01 288.433 1211.58 291.233L1217.42 301.325C1219.05 304.125 1222.61 305.058 1225.41 303.483L1248.33 290.183V316.667C1248.33 319.875 1250.96 322.5 1254.17 322.5H1265.83C1269.04 322.5 1271.67 319.875 1271.67 316.667V290.183L1294.59 303.425C1297.39 305.058 1300.95 304.067 1302.58 301.267L1308.42 291.175C1310.05 288.375 1309.06 284.817 1306.26 283.183L1283.33 270L1306.26 256.758C1309.06 255.183 1309.99 251.567 1308.36 248.825Z" fill="#5DBA7F"/>
</g>
<g opacity="0.3">
<path d="M588.358 6.825L582.525 -3.26667C581.744 -4.60496 580.468 -5.58187 578.972 -5.98584C577.476 -6.3898 575.881 -6.18831 574.533 -5.425L551.667 7.81667V-18.6667C551.667 -21.875 549.042 -24.5 545.833 -24.5H534.167C530.958 -24.5 528.333 -21.875 528.333 -18.6667V7.81667L505.408 -5.425C504.75 -5.8094 504.022 -6.06004 503.266 -6.16252C502.511 -6.26501 501.743 -6.21733 501.005 -6.02223C500.268 -5.82713 499.577 -5.48844 498.971 -5.02559C498.365 -4.56273 497.857 -3.98482 497.475 -3.325L491.642 6.76667C490.008 9.56667 490.942 13.1833 493.742 14.7583L516.667 28L493.742 41.2417C490.942 42.875 490.008 46.4333 491.583 49.2333L497.417 59.325C499.05 62.125 502.608 63.0583 505.408 61.4833L528.333 48.1833V74.6667C528.333 77.875 530.958 80.5 534.167 80.5H545.833C549.042 80.5 551.667 77.875 551.667 74.6667V48.1833L574.592 61.425C577.392 63.0583 580.95 62.0667 582.583 59.2667L588.417 49.175C590.05 46.375 589.058 42.8167 586.258 41.1833L563.333 28L586.258 14.7583C589.058 13.1833 589.992 9.56667 588.358 6.825Z" fill="#5DBA7F"/>
</g>
<g opacity="0.3">
<path d="M1053.36 38.825L1047.52 28.7333C1046.74 27.395 1045.47 26.4181 1043.97 26.0142C1042.48 25.6102 1040.88 25.8117 1039.53 26.575L1016.67 39.8167V13.3333C1016.67 10.125 1014.04 7.5 1010.83 7.5H999.167C995.958 7.5 993.333 10.125 993.333 13.3333V39.8167L970.408 26.575C969.75 26.1906 969.022 25.94 968.266 25.8375C967.511 25.735 966.743 25.7827 966.005 25.9778C965.268 26.1729 964.577 26.5116 963.971 26.9744C963.365 27.4373 962.857 28.0152 962.475 28.675L956.642 38.7667C955.008 41.5667 955.942 45.1833 958.742 46.7583L981.667 60L958.742 73.2417C955.942 74.875 955.008 78.4333 956.583 81.2333L962.417 91.325C964.05 94.125 967.608 95.0583 970.408 93.4833L993.333 80.1833V106.667C993.333 109.875 995.958 112.5 999.167 112.5H1010.83C1014.04 112.5 1016.67 109.875 1016.67 106.667V80.1833L1039.59 93.425C1042.39 95.0583 1045.95 94.0667 1047.58 91.2667L1053.42 81.175C1055.05 78.375 1054.06 74.8167 1051.26 73.1833L1028.33 60L1051.26 46.7583C1054.06 45.1833 1054.99 41.5667 1053.36 38.825Z" fill="#5DBA7F"/>
</g>
<g opacity="0.3">
<path d="M913.358 368.825L907.525 358.733C906.744 357.395 905.468 356.418 903.972 356.014C902.476 355.61 900.881 355.812 899.533 356.575L876.667 369.817V343.333C876.667 340.125 874.042 337.5 870.833 337.5H859.167C855.958 337.5 853.333 340.125 853.333 343.333V369.817L830.408 356.575C829.75 356.191 829.022 355.94 828.266 355.837C827.511 355.735 826.743 355.783 826.005 355.978C825.268 356.173 824.577 356.512 823.971 356.974C823.365 357.437 822.857 358.015 822.475 358.675L816.642 368.767C815.008 371.567 815.942 375.183 818.742 376.758L841.667 390L818.742 403.242C815.942 404.875 815.008 408.433 816.583 411.233L822.417 421.325C824.05 424.125 827.608 425.058 830.408 423.483L853.333 410.183V436.667C853.333 439.875 855.958 442.5 859.167 442.5H870.833C874.042 442.5 876.667 439.875 876.667 436.667V410.183L899.592 423.425C902.392 425.058 905.95 424.067 907.583 421.267L913.417 411.175C915.05 408.375 914.058 404.817 911.258 403.183L888.333 390L911.258 376.758C914.058 375.183 914.992 371.567 913.358 368.825Z" fill="#5DBA7F"/>
</g>
<g opacity="0.3">
<path d="M394.358 368.825L388.525 358.733C387.744 357.395 386.468 356.418 384.972 356.014C383.476 355.61 381.881 355.812 380.533 356.575L357.667 369.817V343.333C357.667 340.125 355.042 337.5 351.833 337.5H340.167C336.958 337.5 334.333 340.125 334.333 343.333V369.817L311.408 356.575C310.75 356.191 310.022 355.94 309.266 355.837C308.511 355.735 307.743 355.783 307.005 355.978C306.268 356.173 305.577 356.512 304.971 356.974C304.365 357.437 303.857 358.015 303.475 358.675L297.642 368.767C296.008 371.567 296.942 375.183 299.742 376.758L322.667 390L299.742 403.242C296.942 404.875 296.008 408.433 297.583 411.233L303.417 421.325C305.05 424.125 308.608 425.058 311.408 423.483L334.333 410.183V436.667C334.333 439.875 336.958 442.5 340.167 442.5H351.833C355.042 442.5 357.667 439.875 357.667 436.667V410.183L380.592 423.425C383.392 425.058 386.95 424.067 388.583 421.267L394.417 411.175C396.05 408.375 395.058 404.817 392.258 403.183L369.333 390L392.258 376.758C395.058 375.183 395.992 371.567 394.358 368.825Z" fill="#5DBA7F"/>
</g>
<g opacity="0.3">
<path d="M47.3582 368.825L41.5249 358.733C40.7442 357.395 39.4677 356.418 37.9719 356.014C36.4762 355.61 34.8815 355.812 33.5332 356.575L10.6665 369.817V343.333C10.6665 340.125 8.04152 337.5 4.83318 337.5H-6.83348C-10.0418 337.5 -12.6668 340.125 -12.6668 343.333V369.817L-35.5918 356.575C-36.2503 356.191 -36.9781 355.94 -37.7336 355.837C-38.4891 355.735 -39.2575 355.783 -39.9945 355.978C-40.7316 356.173 -41.4228 356.512 -42.0287 356.974C-42.6346 357.437 -43.1431 358.015 -43.5251 358.675L-49.3585 368.767C-50.9918 371.567 -50.0585 375.183 -47.2585 376.758L-24.3335 390L-47.2585 403.242C-50.0585 404.875 -50.9918 408.433 -49.4168 411.233L-43.5835 421.325C-41.9501 424.125 -38.3918 425.058 -35.5918 423.483L-12.6668 410.183V436.667C-12.6668 439.875 -10.0418 442.5 -6.83348 442.5H4.83318C8.04152 442.5 10.6665 439.875 10.6665 436.667V410.183L33.5915 423.425C36.3915 425.058 39.9498 424.067 41.5832 421.267L47.4165 411.175C49.0498 408.375 48.0582 404.817 45.2582 403.183L22.3332 390L45.2582 376.758C48.0582 375.183 48.9915 371.567 47.3582 368.825Z" fill="#5DBA7F"/>
</g>
<g opacity="0.3">
<path d="M1459.36 -26.175L1453.52 -36.2667C1452.74 -37.605 1451.47 -38.5819 1449.97 -38.9858C1448.48 -39.3898 1446.88 -39.1883 1445.53 -38.425L1422.67 -25.1833V-51.6667C1422.67 -54.875 1420.04 -57.5 1416.83 -57.5H1405.17C1401.96 -57.5 1399.33 -54.875 1399.33 -51.6667V-25.1833L1376.41 -38.425C1375.75 -38.8094 1375.02 -39.06 1374.27 -39.1625C1373.51 -39.265 1372.74 -39.2173 1372.01 -39.0222C1371.27 -38.8271 1370.58 -38.4884 1369.97 -38.0256C1369.37 -37.5627 1368.86 -36.9848 1368.47 -36.325L1362.64 -26.2333C1361.01 -23.4333 1361.94 -19.8167 1364.74 -18.2417L1387.67 -5L1364.74 8.24167C1361.94 9.87501 1361.01 13.4333 1362.58 16.2333L1368.42 26.325C1370.05 29.125 1373.61 30.0583 1376.41 28.4833L1399.33 15.1833V41.6667C1399.33 44.875 1401.96 47.5 1405.17 47.5H1416.83C1420.04 47.5 1422.67 44.875 1422.67 41.6667V15.1833L1445.59 28.425C1448.39 30.0583 1451.95 29.0667 1453.58 26.2667L1459.42 16.175C1461.05 13.375 1460.06 9.81667 1457.26 8.18333L1434.33 -5L1457.26 -18.2417C1460.06 -19.8167 1460.99 -23.4333 1459.36 -26.175Z" fill="#5DBA7F"/>
</g>
</g>
<defs>
<clipPath id="clip0_3916_15649">
<rect width="1440" height="384" fill="white"/>
</clipPath>
</defs>
</svg>
