<svg width="1439" height="384" viewBox="0 0 1439 384" fill="none" xmlns="http://www.w3.org/2000/svg">
<g clip-path="url(#clip0_3916_15649)">
<rect width="1440" height="384" transform="translate(-1)" fill="#3BAD6B"/>
<g opacity="0.3">
<path d="M236.358 108.825L230.525 98.7333C229.744 97.395 228.468 96.4181 226.972 96.0142C225.476 95.6102 223.881 95.8117 222.533 96.575L199.667 109.817V83.3333C199.667 80.125 197.042 77.5 193.833 77.5H182.167C178.958 77.5 176.333 80.125 176.333 83.3333V109.817L153.408 96.575C152.75 96.1906 152.022 95.94 151.266 95.8375C150.511 95.735 149.743 95.7827 149.005 95.9778C148.268 96.1729 147.577 96.5116 146.971 96.9744C146.365 97.4373 145.857 98.0152 145.475 98.675L139.642 108.767C138.008 111.567 138.942 115.183 141.742 116.758L164.667 130L141.742 143.242C138.942 144.875 138.008 148.433 139.583 151.233L145.417 161.325C147.05 164.125 150.608 165.058 153.408 163.483L176.333 150.183V176.667C176.333 179.875 178.958 182.5 182.167 182.5H193.833C197.042 182.5 199.667 179.875 199.667 176.667V150.183L222.592 163.425C225.392 165.058 228.95 164.067 230.583 161.267L236.417 151.175C238.05 148.375 237.058 144.817 234.258 143.183L211.333 130L234.258 116.758C237.058 115.183 237.992 111.567 236.358 108.825Z" fill="#5DBA7F"/>
</g>
<g opacity="0.3">
<path d="M1307.36 248.825L1301.52 238.733C1300.74 237.395 1299.47 236.418 1297.97 236.014C1296.48 235.61 1294.88 235.812 1293.53 236.575L1270.67 249.817V223.333C1270.67 220.125 1268.04 217.5 1264.83 217.5H1253.17C1249.96 217.5 1247.33 220.125 1247.33 223.333V249.817L1224.41 236.575C1223.75 236.191 1223.02 235.94 1222.27 235.837C1221.51 235.735 1220.74 235.783 1220.01 235.978C1219.27 236.173 1218.58 236.512 1217.97 236.974C1217.37 237.437 1216.86 238.015 1216.47 238.675L1210.64 248.767C1209.01 251.567 1209.94 255.183 1212.74 256.758L1235.67 270L1212.74 283.242C1209.94 284.875 1209.01 288.433 1210.58 291.233L1216.42 301.325C1218.05 304.125 1221.61 305.058 1224.41 303.483L1247.33 290.183V316.667C1247.33 319.875 1249.96 322.5 1253.17 322.5H1264.83C1268.04 322.5 1270.67 319.875 1270.67 316.667V290.183L1293.59 303.425C1296.39 305.058 1299.95 304.067 1301.58 301.267L1307.42 291.175C1309.05 288.375 1308.06 284.817 1305.26 283.183L1282.33 270L1305.26 256.758C1308.06 255.183 1308.99 251.567 1307.36 248.825Z" fill="#5DBA7F"/>
</g>
<g opacity="0.3">
<path d="M587.358 6.825L581.525 -3.26667C580.744 -4.60496 579.468 -5.58187 577.972 -5.98584C576.476 -6.3898 574.881 -6.18831 573.533 -5.425L550.667 7.81667V-18.6667C550.667 -21.875 548.042 -24.5 544.833 -24.5H533.167C529.958 -24.5 527.333 -21.875 527.333 -18.6667V7.81667L504.408 -5.425C503.75 -5.8094 503.022 -6.06004 502.266 -6.16252C501.511 -6.26501 500.743 -6.21733 500.005 -6.02223C499.268 -5.82713 498.577 -5.48844 497.971 -5.02559C497.365 -4.56273 496.857 -3.98482 496.475 -3.325L490.642 6.76667C489.008 9.56667 489.942 13.1833 492.742 14.7583L515.667 28L492.742 41.2417C489.942 42.875 489.008 46.4333 490.583 49.2333L496.417 59.325C498.05 62.125 501.608 63.0583 504.408 61.4833L527.333 48.1833V74.6667C527.333 77.875 529.958 80.5 533.167 80.5H544.833C548.042 80.5 550.667 77.875 550.667 74.6667V48.1833L573.592 61.425C576.392 63.0583 579.95 62.0667 581.583 59.2667L587.417 49.175C589.05 46.375 588.058 42.8167 585.258 41.1833L562.333 28L585.258 14.7583C588.058 13.1833 588.992 9.56667 587.358 6.825Z" fill="#5DBA7F"/>
</g>
<g opacity="0.3">
<path d="M1052.36 38.825L1046.52 28.7333C1045.74 27.395 1044.47 26.4181 1042.97 26.0142C1041.48 25.6102 1039.88 25.8117 1038.53 26.575L1015.67 39.8167V13.3333C1015.67 10.125 1013.04 7.5 1009.83 7.5H998.167C994.958 7.5 992.333 10.125 992.333 13.3333V39.8167L969.408 26.575C968.75 26.1906 968.022 25.94 967.266 25.8375C966.511 25.735 965.743 25.7827 965.005 25.9778C964.268 26.1729 963.577 26.5116 962.971 26.9744C962.365 27.4373 961.857 28.0152 961.475 28.675L955.642 38.7667C954.008 41.5667 954.942 45.1833 957.742 46.7583L980.667 60L957.742 73.2417C954.942 74.875 954.008 78.4333 955.583 81.2333L961.417 91.325C963.05 94.125 966.608 95.0583 969.408 93.4833L992.333 80.1833V106.667C992.333 109.875 994.958 112.5 998.167 112.5H1009.83C1013.04 112.5 1015.67 109.875 1015.67 106.667V80.1833L1038.59 93.425C1041.39 95.0583 1044.95 94.0667 1046.58 91.2667L1052.42 81.175C1054.05 78.375 1053.06 74.8167 1050.26 73.1833L1027.33 60L1050.26 46.7583C1053.06 45.1833 1053.99 41.5667 1052.36 38.825Z" fill="#5DBA7F"/>
</g>
<g opacity="0.3">
<path d="M912.358 368.825L906.525 358.733C905.744 357.395 904.468 356.418 902.972 356.014C901.476 355.61 899.881 355.812 898.533 356.575L875.667 369.817V343.333C875.667 340.125 873.042 337.5 869.833 337.5H858.167C854.958 337.5 852.333 340.125 852.333 343.333V369.817L829.408 356.575C828.75 356.191 828.022 355.94 827.266 355.837C826.511 355.735 825.743 355.783 825.005 355.978C824.268 356.173 823.577 356.512 822.971 356.974C822.365 357.437 821.857 358.015 821.475 358.675L815.642 368.767C814.008 371.567 814.942 375.183 817.742 376.758L840.667 390L817.742 403.242C814.942 404.875 814.008 408.433 815.583 411.233L821.417 421.325C823.05 424.125 826.608 425.058 829.408 423.483L852.333 410.183V436.667C852.333 439.875 854.958 442.5 858.167 442.5H869.833C873.042 442.5 875.667 439.875 875.667 436.667V410.183L898.592 423.425C901.392 425.058 904.95 424.067 906.583 421.267L912.417 411.175C914.05 408.375 913.058 404.817 910.258 403.183L887.333 390L910.258 376.758C913.058 375.183 913.992 371.567 912.358 368.825Z" fill="#5DBA7F"/>
</g>
<g opacity="0.3">
<path d="M393.358 368.825L387.525 358.733C386.744 357.395 385.468 356.418 383.972 356.014C382.476 355.61 380.881 355.812 379.533 356.575L356.667 369.817V343.333C356.667 340.125 354.042 337.5 350.833 337.5H339.167C335.958 337.5 333.333 340.125 333.333 343.333V369.817L310.408 356.575C309.75 356.191 309.022 355.94 308.266 355.837C307.511 355.735 306.743 355.783 306.005 355.978C305.268 356.173 304.577 356.512 303.971 356.974C303.365 357.437 302.857 358.015 302.475 358.675L296.642 368.767C295.008 371.567 295.942 375.183 298.742 376.758L321.667 390L298.742 403.242C295.942 404.875 295.008 408.433 296.583 411.233L302.417 421.325C304.05 424.125 307.608 425.058 310.408 423.483L333.333 410.183V436.667C333.333 439.875 335.958 442.5 339.167 442.5H350.833C354.042 442.5 356.667 439.875 356.667 436.667V410.183L379.592 423.425C382.392 425.058 385.95 424.067 387.583 421.267L393.417 411.175C395.05 408.375 394.058 404.817 391.258 403.183L368.333 390L391.258 376.758C394.058 375.183 394.992 371.567 393.358 368.825Z" fill="#5DBA7F"/>
</g>
<g opacity="0.3">
<path d="M46.3582 368.825L40.5249 358.733C39.7442 357.395 38.4677 356.418 36.9719 356.014C35.4762 355.61 33.8815 355.812 32.5332 356.575L9.66652 369.817V343.333C9.66652 340.125 7.04152 337.5 3.83318 337.5H-7.83348C-11.0418 337.5 -13.6668 340.125 -13.6668 343.333V369.817L-36.5918 356.575C-37.2503 356.191 -37.9781 355.94 -38.7336 355.837C-39.4891 355.735 -40.2575 355.783 -40.9945 355.978C-41.7316 356.173 -42.4228 356.512 -43.0287 356.974C-43.6346 357.437 -44.1431 358.015 -44.5251 358.675L-50.3585 368.767C-51.9918 371.567 -51.0585 375.183 -48.2585 376.758L-25.3335 390L-48.2585 403.242C-51.0585 404.875 -51.9918 408.433 -50.4168 411.233L-44.5835 421.325C-42.9501 424.125 -39.3918 425.058 -36.5918 423.483L-13.6668 410.183V436.667C-13.6668 439.875 -11.0418 442.5 -7.83348 442.5H3.83318C7.04152 442.5 9.66652 439.875 9.66652 436.667V410.183L32.5915 423.425C35.3915 425.058 38.9498 424.067 40.5832 421.267L46.4165 411.175C48.0498 408.375 47.0582 404.817 44.2582 403.183L21.3332 390L44.2582 376.758C47.0582 375.183 47.9915 371.567 46.3582 368.825Z" fill="#5DBA7F"/>
</g>
<g opacity="0.3">
<path d="M1458.36 -26.175L1452.52 -36.2667C1451.74 -37.605 1450.47 -38.5819 1448.97 -38.9858C1447.48 -39.3898 1445.88 -39.1883 1444.53 -38.425L1421.67 -25.1833V-51.6667C1421.67 -54.875 1419.04 -57.5 1415.83 -57.5H1404.17C1400.96 -57.5 1398.33 -54.875 1398.33 -51.6667V-25.1833L1375.41 -38.425C1374.75 -38.8094 1374.02 -39.06 1373.27 -39.1625C1372.51 -39.265 1371.74 -39.2173 1371.01 -39.0222C1370.27 -38.8271 1369.58 -38.4884 1368.97 -38.0256C1368.37 -37.5627 1367.86 -36.9848 1367.47 -36.325L1361.64 -26.2333C1360.01 -23.4333 1360.94 -19.8167 1363.74 -18.2417L1386.67 -5L1363.74 8.24167C1360.94 9.87501 1360.01 13.4333 1361.58 16.2333L1367.42 26.325C1369.05 29.125 1372.61 30.0583 1375.41 28.4833L1398.33 15.1833V41.6667C1398.33 44.875 1400.96 47.5 1404.17 47.5H1415.83C1419.04 47.5 1421.67 44.875 1421.67 41.6667V15.1833L1444.59 28.425C1447.39 30.0583 1450.95 29.0667 1452.58 26.2667L1458.42 16.175C1460.05 13.375 1459.06 9.81667 1456.26 8.18333L1433.33 -5L1456.26 -18.2417C1459.06 -19.8167 1459.99 -23.4333 1458.36 -26.175Z" fill="#5DBA7F"/>
</g>
<g clip-path="url(#clip1_3916_15649)">
<path d="M1371 192.5C1371 175.655 1384.66 162 1401.5 162H1596V223H1401.5C1384.66 223 1371 209.345 1371 192.5Z" fill="#2A3735"/>
<rect x="1379" y="170" width="44.2461" height="44.2461" rx="22.1231" fill="#3BAD6B"/>
<rect x="1380.21" y="171.213" width="41.8217" height="41.8217" rx="20.9108" fill="white"/>
<path d="M1409.79 196.157V199.608C1409.79 199.855 1409.69 200.092 1409.52 200.273C1409.36 200.454 1409.12 200.564 1408.88 200.581C1408.45 200.611 1408.1 200.626 1407.83 200.626C1399.21 200.626 1392.22 193.636 1392.22 185.012C1392.22 184.743 1392.23 184.395 1392.26 183.968C1392.28 183.722 1392.39 183.491 1392.57 183.322C1392.75 183.154 1392.99 183.06 1393.24 183.061H1396.69C1396.81 183.06 1396.93 183.105 1397.02 183.186C1397.11 183.268 1397.16 183.379 1397.18 183.5C1397.2 183.724 1397.22 183.903 1397.24 184.038C1397.43 185.392 1397.83 186.708 1398.42 187.943C1398.51 188.138 1398.45 188.371 1398.27 188.496L1396.17 190.001C1397.45 193.001 1399.85 195.392 1402.85 196.68L1404.35 194.578C1404.41 194.492 1404.5 194.43 1404.6 194.404C1404.7 194.377 1404.81 194.387 1404.91 194.432C1406.14 195.019 1407.46 195.415 1408.81 195.608C1408.95 195.628 1409.13 195.648 1409.35 195.671C1409.47 195.683 1409.58 195.74 1409.66 195.829C1409.74 195.919 1409.79 196.036 1409.79 196.157Z" fill="#3BAD6B"/>
</g>
</g>
<defs>
<clipPath id="clip0_3916_15649">
<rect width="1440" height="384" fill="white" transform="translate(-1)"/>
</clipPath>
<clipPath id="clip1_3916_15649">
<rect width="68" height="61" fill="white" transform="translate(1371 162)"/>
</clipPath>
</defs>
</svg>
